<svg width="2467" height="2467" viewBox="0 0 2467 2467" fill="none" xmlns="http://www.w3.org/2000/svg">
<path d="M1234.35 2466.85C1915.12 2466.85 2467 1914.78 2467 1233.77C2467 552.766 1915.12 0.700195 1234.35 0.700195C553.577 0.700195 1.70145 552.766 1.70145 1233.77C1.70145 1914.78 553.577 2466.85 1234.35 2466.85Z" fill="#D1A284" fill-opacity="0.59"/>
<path opacity="0.3" d="M569.203 533.582C607.633 533.582 607.633 571.299 646.063 571.299C684.492 571.299 684.492 533.582 722.922 533.582C761.352 533.582 761.352 571.299 799.781 571.299C838.211 571.299 838.211 533.582 876.641 533.582C915.07 533.582 915.07 571.299 953.5 571.299C991.93 571.299 991.93 533.582 1030.36 533.582C1068.79 533.582 1068.79 571.299 1107.22 571.299" stroke="#3C8260" stroke-width="2" stroke-miterlimit="10"/>
<path opacity="0.3" d="M569.203 638.514C607.633 638.514 607.633 676.231 646.063 676.231C684.492 676.231 684.492 638.514 722.922 638.514C761.352 638.514 761.352 676.231 799.781 676.231C838.211 676.231 838.211 638.514 876.641 638.514C915.07 638.514 915.07 676.231 953.5 676.231C991.93 676.231 991.93 638.514 1030.36 638.514C1068.79 638.514 1068.79 676.231 1107.22 676.231" stroke="#3C8260" stroke-width="2" stroke-miterlimit="10"/>
<path d="M1618.65 1632.71C1627.11 1616.03 1641.37 1579.28 1656.84 1548.09C1663.36 1534.55 1681.97 1483.77 1700.34 1442.43C1714.6 1410.51 1730.31 1384.89 1731.52 1381.98C1745.3 1350.55 1757.38 1327.83 1767.05 1307.28C1776.96 1286.72 1780.34 1274.39 1767.29 1271.73C1749.16 1267.87 1732.97 1286 1720.16 1306.31C1721.85 1305.1 1708.07 1338.46 1705.66 1346.93C1703.24 1355.39 1675.69 1404.47 1675.69 1404.47L1665.29 1397.94C1671.82 1377.87 1679.8 1354.18 1687.53 1330.73C1701.55 1289.38 1722.58 1229.18 1725.24 1219.03C1728.38 1207.42 1722.09 1198.96 1712.67 1199.2C1692.36 1199.68 1680.04 1213.22 1672.55 1233.77C1669.4 1242.72 1665.78 1251.18 1662.15 1260.61C1662.15 1261.1 1656.84 1283.82 1654.9 1294.7C1652.97 1305.82 1648.86 1322.02 1643.78 1332.42C1638.71 1342.82 1623 1379.57 1623 1379.57L1615.51 1375.22C1615.02 1374.97 1623.72 1331.21 1631.22 1304.13C1643.06 1260.61 1662.88 1191.95 1664.81 1181.31C1666.75 1169.22 1662.64 1160.52 1652.73 1161.24C1631.94 1162.45 1617.92 1177.68 1611.4 1199.44C1608.25 1209.84 1603.9 1222.41 1599.31 1235.71C1599.31 1235.71 1599.07 1236.43 1598.83 1237.64C1597.38 1243.93 1593.03 1265.45 1591.58 1279.23C1589.89 1295.43 1571.28 1355.15 1571.28 1355.15L1562.33 1352.49C1567.65 1318.88 1582.15 1239.58 1584.81 1225.31C1590.61 1194.85 1595.2 1166.32 1581.91 1163.66C1568.62 1161 1555.56 1171.64 1547.59 1194.85C1539.61 1218.06 1536.23 1240.3 1525.84 1277.78C1517.62 1307.76 1517.14 1310.18 1507.23 1343.3C1502.39 1359.74 1494.9 1378.6 1488.37 1394.56C1486.44 1399.63 1478.95 1423.81 1475.56 1438.8C1472.18 1453.79 1463 1463.46 1454.54 1462.5C1446.08 1461.53 1435.2 1436.14 1434.48 1426.96C1433.75 1417.77 1430.61 1399.63 1430.37 1399.15C1424.81 1385.37 1417.8 1372.8 1405.23 1366.03C1375.74 1349.59 1365.11 1373.52 1376.95 1403.5C1390 1436.39 1399.91 1504.81 1412.24 1539.62C1424.57 1574.68 1459.61 1591.37 1465.65 1604.66C1469.28 1612.64 1315.08 2298.81 1303.48 2384.64L1618.65 2410.27C1625.66 2325.89 1608.01 1707.9 1608.98 1696.54C1612.85 1661.48 1609.95 1649.39 1618.65 1632.71Z" fill="#F9C8A7"/>
<path d="M1489.1 1394.07C1483.3 1408.34 1477.98 1420.19 1476.29 1425.02C1471.7 1437.35 1463.48 1459.35 1454.29 1449.92C1443.42 1438.56 1438.83 1417.53 1431.09 1398.43C1431.09 1398.91 1434.48 1417.04 1435.2 1426.23C1435.93 1435.42 1446.8 1460.8 1455.26 1461.77C1463.72 1462.74 1472.9 1453.07 1476.29 1438.08C1479.67 1423.33 1487.16 1399.15 1489.1 1394.07Z" fill="#F9B587"/>
<path d="M1382.51 1368.69C1369.46 1373.28 1379.85 1395.04 1379.85 1395.04L1407.16 1384.16C1407.16 1384.16 1397.25 1363.37 1382.51 1368.69Z" fill="#FFDDCA"/>
<path d="M1583.6 1168.74C1577.8 1166.08 1571.28 1170.67 1568.37 1176.23C1565.72 1182.03 1564.51 1189.29 1564.51 1189.29L1586.5 1194.12C1586.5 1194.12 1591.82 1172.6 1583.6 1168.74Z" fill="#FFDDCA"/>
<path d="M1659.25 1168.25C1654.42 1164.14 1648.38 1167.77 1644.27 1172.6C1640.16 1177.44 1636.29 1185.9 1636.29 1185.9L1657.08 1194.61C1657.32 1194.61 1666.5 1174.05 1659.25 1168.25Z" fill="#FFDDCA"/>
<path d="M1719.43 1205C1714.6 1200.89 1708.56 1204.52 1704.45 1209.35C1700.34 1214.19 1696.47 1222.65 1696.47 1222.65L1717.26 1231.36C1717.5 1231.36 1726.69 1210.81 1719.43 1205Z" fill="#FFDDCA"/>
<path d="M1771.4 1279.23C1767.77 1274.88 1761.97 1277.29 1757.62 1280.92C1753.27 1284.55 1748.44 1291.56 1748.44 1291.56L1765.36 1302.44C1765.6 1302.2 1776.72 1285.51 1771.4 1279.23Z" fill="#FFDDCA"/>
<path d="M1720.4 1306.07C1713.63 1316.95 1707.59 1328.31 1702.76 1337.5C1694.54 1353.21 1667.23 1398.18 1665.54 1397.7L1675.93 1404.23C1675.93 1404.23 1703.48 1355.15 1705.9 1346.68C1708.32 1338.22 1722.09 1304.86 1720.4 1306.07Z" fill="#F9B587"/>
<path d="M1655.63 1294.46C1657.56 1283.58 1662.88 1260.85 1662.88 1260.37C1658.04 1272.7 1652.97 1286 1648.13 1302.2C1642.82 1319.85 1626.62 1357.32 1616.23 1374.97L1623.72 1379.33C1623.72 1379.33 1639.43 1342.57 1644.51 1332.18C1649.34 1321.78 1653.69 1305.34 1655.63 1294.46Z" fill="#F9B587"/>
<path d="M1599.55 1237.16C1599.8 1235.95 1600.04 1235.47 1600.04 1235.22C1595.2 1249.49 1590.13 1264.96 1586.02 1280.68C1581.91 1296.39 1563.06 1351.76 1562.82 1351.76L1571.76 1354.42C1571.76 1354.42 1590.37 1294.7 1592.06 1278.5C1593.51 1265.21 1598.1 1243.69 1599.55 1237.16Z" fill="#F9B587"/>
<path d="M1464.93 1657.37C1462.51 1654.71 1462.03 1650.36 1464.2 1646.01C1467.1 1640.45 1473.87 1637.06 1479.19 1639C1502.39 1646.73 1569.82 1663.66 1602.21 1650.12C1608.01 1647.7 1614.06 1650.12 1615.26 1655.44C1616.47 1660.76 1612.85 1667.28 1607.05 1669.7C1560.4 1689.04 1477.74 1662.45 1468.55 1659.31C1467.1 1659.06 1465.9 1658.34 1464.93 1657.37Z" fill="black"/>
<path d="M1569.1 1332.9C1567.89 1331.69 1567.65 1329.76 1568.37 1328.07C1569.34 1325.89 1572 1324.68 1574.18 1325.65C1584.33 1330 1613.09 1340.16 1626.14 1335.8C1628.56 1335.08 1630.97 1336.29 1631.94 1338.71C1632.67 1341.12 1631.46 1343.54 1629.04 1344.51C1610.43 1350.79 1574.66 1335.8 1570.55 1334.11C1570.07 1333.87 1569.58 1333.39 1569.1 1332.9Z" fill="black"/>
<path d="M1284.62 2245.62C1284.62 2245.62 1529.22 2356.36 1661.43 2328.31L1664.81 2389.72C1664.81 2389.72 1474.35 2467.33 1234.59 2466.85L1284.62 2245.62Z" fill="#D1A284"/>
<path d="M1327.4 2263.51C1327.4 2263.51 1396.29 2298.33 1483.78 2314.28C1571.28 2330.24 1569.82 2332.66 1621.79 2332.42L1618.16 2097.41C1618.41 2097.89 1445.35 2141.9 1327.4 2263.51Z" fill="#EAB794"/>
<path d="M1615.51 1962.98C1615.51 1962.98 1540.1 1923.33 1516.41 1834.11C1516.41 1834.11 1507.71 2024.63 1618.41 2097.89L1615.51 1962.98Z" fill="#D1A284"/>
<path d="M1619.13 2135.61C1619.13 2135.61 1543.72 2095.96 1520.04 2006.74C1520.04 2006.74 1511.33 2197.26 1622.03 2270.52L1619.13 2135.61Z" fill="#D1A284"/>
<path d="M1143.23 1817.67C1161.6 1813.8 1199.06 1802.2 1233.14 1794.7C1247.89 1791.56 1298.88 1774.15 1342.87 1762.79C1376.71 1754.08 1406.44 1750.46 1409.58 1749.49C1442.69 1740.54 1468.07 1735.95 1490.07 1730.87C1512.3 1725.79 1523.9 1720.72 1517.86 1709.11C1509.4 1692.67 1485.23 1691.22 1461.54 1693.88C1463.72 1694.36 1428.92 1704.52 1420.7 1707.9C1412.48 1711.29 1356.89 1720.23 1356.89 1720.23L1355.68 1708.15C1375.5 1700.89 1398.95 1692.19 1422.15 1683.73C1463 1668.98 1523.42 1647.7 1533.09 1643.59C1543.96 1638.75 1546.86 1628.6 1540.82 1621.35C1527.77 1605.87 1509.64 1604.66 1488.86 1611.43C1479.91 1614.33 1470.97 1616.99 1461.54 1620.14C1461.06 1620.38 1440.03 1630.29 1430.37 1635.61C1420.46 1640.93 1405.23 1647.94 1393.87 1650.36C1382.51 1653.02 1344.08 1663.66 1344.08 1663.66L1342.87 1654.95C1342.87 1654.47 1382.51 1633.92 1408.13 1622.8C1449.46 1604.91 1515.68 1577.58 1525.11 1572.27C1535.75 1566.22 1539.85 1557.52 1533.33 1550.26C1519.55 1534.79 1498.77 1533.34 1477.74 1541.8C1467.59 1545.91 1455.02 1550.26 1441.73 1555.1C1441.73 1555.1 1441 1555.34 1440.03 1555.82C1434.23 1558.73 1414.66 1568.64 1403.05 1575.89C1389.28 1584.6 1331.03 1607.32 1331.03 1607.32L1327.4 1598.62C1356.89 1581.94 1427.95 1543.74 1440.76 1536.97C1468.31 1522.46 1493.45 1508.44 1487.16 1496.35C1480.88 1484.26 1464.69 1480.63 1441.48 1488.85C1418.28 1497.07 1398.7 1508.19 1363.17 1523.67C1334.65 1536 1332.48 1536.97 1300.33 1550.02C1284.38 1556.55 1265.05 1562.59 1248.61 1567.19C1243.29 1568.64 1219.85 1578.07 1206.07 1584.84C1192.3 1591.61 1179 1590.4 1174.41 1583.15C1170.06 1575.89 1182.87 1551.47 1189.64 1545.19C1196.4 1538.9 1208.49 1525.12 1208.97 1524.63C1216.22 1511.82 1221.54 1498.28 1219.37 1484.5C1213.81 1451.13 1188.43 1457.66 1172.48 1485.71C1154.83 1516.41 1107.7 1566.95 1088.12 1598.38C1068.55 1629.81 1077.25 1667.53 1070.72 1680.58C1066.86 1688.32 563.403 1917.28 488.96 1961.77L529.807 2193.4C600.141 2146.25 1078.7 1856.36 1088.37 1849.83C1117.13 1831.21 1124.86 1821.3 1143.23 1817.67Z" fill="#9B633D"/>
<path d="M1248.85 1567.67C1234.11 1572.02 1221.54 1575.17 1216.71 1576.86C1204.14 1580.97 1181.9 1588.22 1183.59 1575.17C1185.53 1559.45 1199.3 1542.77 1209.46 1525.12C1209.21 1525.6 1196.89 1539.38 1190.12 1545.67C1183.35 1551.96 1170.3 1576.38 1174.89 1583.63C1179.24 1590.88 1192.78 1592.09 1206.56 1585.32C1220.09 1578.55 1243.78 1569.12 1248.85 1567.67Z" fill="#825230"/>
<path d="M1202.21 1468.54C1190.36 1461.29 1179.97 1482.81 1179.97 1482.81L1205.59 1497.31C1205.35 1497.31 1215.5 1476.76 1202.21 1468.54Z" fill="#EDB98E"/>
<path d="M1483.78 1500.94C1482.33 1494.65 1474.6 1492.48 1468.55 1493.93C1462.27 1495.38 1455.99 1499.01 1455.99 1499.01L1465.9 1519.32C1465.9 1519.07 1485.96 1509.89 1483.78 1500.94Z" fill="#EDB98E"/>
<path d="M1531.4 1559.93C1531.64 1553.65 1524.87 1551.23 1518.59 1550.99C1512.3 1550.75 1503.12 1552.92 1503.12 1552.92L1509.4 1574.68C1509.64 1574.68 1531.15 1569.12 1531.4 1559.93Z" fill="#EDB98E"/>
<path d="M1540.34 1629.81C1540.58 1623.52 1533.81 1621.1 1527.53 1620.86C1521.24 1620.62 1512.06 1622.8 1512.06 1622.8L1518.34 1644.56C1518.34 1644.8 1540.1 1639.24 1540.34 1629.81Z" fill="#EDB98E"/>
<path d="M1514.72 1716.85C1515.93 1711.29 1510.37 1708.15 1504.81 1707.18C1499.25 1705.97 1491.03 1706.69 1491.03 1706.69L1493.21 1726.76C1492.97 1726.52 1513.03 1724.83 1514.72 1716.85Z" fill="#EDB98E"/>
<path d="M1461.79 1693.64C1448.98 1695.09 1436.41 1697.51 1426.26 1699.44C1408.86 1702.83 1356.65 1709.35 1355.92 1707.9L1357.13 1719.99C1357.13 1719.99 1412.72 1711.05 1420.94 1707.66C1429.16 1704.28 1463.72 1694.36 1461.79 1693.64Z" fill="#825230"/>
<path d="M1430.61 1635.61C1440.28 1630.29 1461.3 1620.14 1461.79 1620.14C1449.22 1624.01 1435.68 1628.36 1419.73 1634.64C1402.57 1641.41 1363.17 1652.05 1342.87 1655.19L1344.08 1663.9C1344.08 1663.9 1382.75 1653.26 1393.87 1650.6C1405.23 1647.94 1420.7 1640.93 1430.61 1635.61Z" fill="#825230"/>
<path d="M1440.28 1556.07C1441.24 1555.58 1441.97 1555.34 1441.97 1555.34C1427.71 1560.42 1412.48 1566.22 1397.74 1572.75C1382.99 1579.28 1327.89 1599.1 1327.89 1598.86L1331.51 1607.57C1331.51 1607.57 1389.76 1584.84 1403.54 1576.13C1414.9 1568.88 1434.47 1558.97 1440.28 1556.07Z" fill="#825230"/>
<path d="M694.16 1441.95C709.629 1452.58 743.95 1471.68 772.953 1491.27C785.28 1499.73 833.135 1524.88 871.807 1548.81C901.535 1567.19 924.738 1586.29 927.397 1587.98C956.642 1605.87 977.428 1620.86 996.522 1633.44C1015.62 1646.01 1027.22 1651.09 1031.57 1638.51C1037.85 1621.1 1022.14 1602.49 1003.77 1587.26C1004.74 1589.19 973.561 1570.81 965.585 1567.43C957.367 1564.04 912.653 1529.95 912.653 1529.95L920.629 1520.52C939.482 1529.71 961.959 1540.83 984.195 1551.71C1023.11 1571.06 1080.15 1600.31 1089.82 1604.42C1100.69 1609.02 1110.12 1603.94 1111.33 1594.75C1113.5 1574.68 1101.9 1560.66 1082.57 1550.26C1074.35 1545.91 1066.13 1541.32 1057.43 1536.48C1056.95 1536.24 1035.19 1528.02 1024.56 1524.63C1013.92 1521.25 998.214 1514.96 988.788 1508.44C979.12 1502.15 944.799 1481.6 944.799 1481.6L950.116 1474.83C950.358 1474.59 992.655 1489.09 1018.52 1499.97C1060.09 1517.62 1125.35 1546.64 1135.74 1549.78C1147.34 1553.41 1156.52 1550.26 1157.25 1540.59C1158.94 1519.8 1145.65 1503.84 1124.86 1494.41C1114.95 1489.82 1103.11 1483.77 1090.54 1477.49C1090.54 1477.49 1089.82 1477.25 1088.85 1476.76C1082.81 1474.59 1062.02 1467.09 1048.73 1463.95C1033.02 1460.08 976.219 1433.48 976.219 1433.48L980.087 1425.02C1012.47 1434.93 1089.33 1459.84 1102.87 1464.43C1132.35 1474.1 1159.91 1482.81 1164.26 1469.99C1168.61 1457.18 1159.91 1442.91 1138.16 1431.79C1116.16 1420.67 1094.65 1414.38 1059.12 1399.15C1030.36 1387.06 1028.18 1386.1 996.764 1371.83C981.053 1364.82 963.41 1354.91 948.666 1346.44C944.074 1343.78 921.113 1333.15 906.611 1327.83C892.109 1322.51 883.892 1311.87 886.067 1303.65C888.242 1295.43 914.829 1287.93 924.013 1288.66C933.197 1289.14 951.566 1288.42 952.292 1288.42C966.552 1284.79 980.087 1279.47 988.546 1268.11C1008.85 1241.03 986.612 1227.25 955.192 1234.98C920.871 1243.45 851.746 1244.17 815.492 1251.67C779.237 1259.16 757.968 1291.56 743.95 1295.91C735.49 1298.33 100.072 1067.43 16.6866 1044.22C16.6866 1044.22 6.53535 1117.24 2.42652 1185.42C-0.715525 1239.82 5.81025 1325.65 5.81025 1325.65C88.4703 1344.03 622.377 1422.85 633.495 1425.51C666.365 1432.52 678.692 1431.31 694.16 1441.95Z" fill="#DBA371"/>
<path d="M191.433 1235.47C185.874 1207.9 137.535 1084.11 115.057 1076.62C63.5756 1058.97 26.3544 1046.39 15.9615 1043.74C15.9615 1043.74 5.81029 1116.75 1.70146 1184.93C-1.44058 1239.33 5.08519 1325.17 5.08519 1325.17C10.6442 1326.38 144.302 1350.55 193.85 1358.77C193.85 1358.77 205.451 1306.55 191.433 1235.47Z" fill="#77C969"/>
<path d="M947.941 1345.96C934.648 1338.22 923.771 1331.45 918.938 1329.03C907.336 1322.75 886.55 1311.63 897.185 1303.89C909.995 1294.7 931.506 1293.01 951.325 1287.93C950.841 1287.93 932.231 1288.66 923.046 1288.17C913.862 1287.69 887.275 1294.94 885.1 1303.16C882.925 1311.38 891.143 1322.02 905.644 1327.34C920.388 1332.66 943.349 1343.3 947.941 1345.96Z" fill="#C18656"/>
<path d="M987.579 1243.69C984.679 1230.15 961.718 1237.4 961.718 1237.4L968.727 1265.93C968.727 1265.93 990.721 1259.16 987.579 1243.69Z" fill="#EDB98E"/>
<path d="M1158.46 1469.99C1161.84 1464.67 1158.46 1457.42 1153.14 1454.03C1147.82 1450.65 1140.81 1448.47 1140.81 1448.47L1132.84 1469.51C1132.84 1469.51 1153.38 1477.73 1158.46 1469.99Z" fill="#EDB98E"/>
<path d="M1148.55 1545.19C1153.38 1540.83 1150.48 1534.55 1146.13 1529.71C1142.02 1524.88 1134.05 1520.04 1134.05 1520.04L1122.69 1539.62C1122.69 1539.62 1141.78 1551.47 1148.55 1545.19Z" fill="#EDB98E"/>
<path d="M1104.08 1599.83C1108.91 1595.48 1106.01 1589.19 1101.66 1584.35C1097.55 1579.52 1089.57 1574.68 1089.57 1574.68L1078.22 1594.27C1078.22 1594.27 1097.31 1606.11 1104.08 1599.83Z" fill="#EDB98E"/>
<path d="M1023.59 1641.17C1028.43 1638.03 1026.73 1631.98 1023.83 1627.15C1020.93 1622.31 1014.65 1616.75 1014.65 1616.75L1001.6 1632.23C1001.6 1632.47 1016.58 1645.77 1023.59 1641.17Z" fill="#EDB98E"/>
<path d="M1003.77 1587.01C993.863 1578.79 983.47 1571.3 975.011 1565.25C960.509 1554.86 919.904 1521.73 920.388 1520.28L912.412 1529.71C912.412 1529.71 957.367 1563.8 965.343 1567.19C973.561 1570.81 1004.74 1588.95 1003.77 1587.01Z" fill="#C18656"/>
<path d="M1024.08 1524.39C1034.71 1527.78 1056.46 1536 1056.95 1536.24C1045.34 1529.95 1033.02 1523.18 1017.55 1515.93C1000.87 1508.19 965.827 1487.16 949.633 1474.59L944.316 1481.36C944.316 1481.36 978.637 1501.91 988.304 1508.19C997.972 1514.72 1013.44 1521.01 1024.08 1524.39Z" fill="#C18656"/>
<path d="M1088.37 1476.52C1089.57 1477 1090.06 1477.25 1090.06 1477.25C1076.52 1470.48 1061.78 1463.46 1046.79 1457.18C1031.81 1451.13 979.361 1424.78 979.603 1424.78L975.736 1433.24C975.736 1433.24 1032.29 1459.84 1048.24 1463.71C1061.54 1467.09 1082.32 1474.34 1088.37 1476.52Z" fill="#C18656"/>
<path d="M1004.26 924.538C1011.75 941.704 1024.08 979.18 1037.61 1011.34C1043.41 1025.12 1058.88 1076.86 1075.07 1119.41C1087.4 1152.05 1101.66 1178.41 1102.87 1181.55C1114.71 1213.71 1125.59 1237.16 1134.05 1258.19C1142.75 1279.23 1145.41 1291.8 1132.36 1293.73C1113.99 1296.39 1099 1277.54 1087.4 1256.5C1089.09 1257.95 1077.25 1223.62 1075.31 1215.16C1073.38 1206.45 1048.73 1155.92 1048.73 1155.92L1038.09 1161.96C1043.41 1182.27 1049.94 1206.45 1056.46 1230.15C1068.06 1272.22 1085.71 1333.63 1087.88 1344.02C1090.3 1355.63 1083.53 1363.85 1074.11 1363.13C1054.05 1361.43 1042.44 1347.41 1036.16 1326.37C1033.5 1317.43 1030.36 1308.48 1027.46 1299.05C1027.46 1298.57 1023.35 1275.6 1022.14 1264.72C1020.93 1253.6 1017.55 1237.16 1013.2 1226.28C1008.85 1215.64 995.313 1177.92 995.313 1177.92L987.579 1181.79C987.096 1182.03 993.38 1226.28 999.181 1253.6C1008.61 1297.84 1024.56 1367.48 1025.53 1378.12C1026.73 1390.2 1022.14 1398.67 1012.23 1397.46C991.446 1395.04 978.395 1379.08 973.319 1356.84C970.661 1346.2 967.035 1333.63 963.41 1319.85C963.41 1319.85 963.41 1319.12 963.168 1317.91C962.201 1311.38 958.817 1289.62 958.334 1276.08C957.609 1259.89 942.382 1199.2 942.382 1199.2L933.198 1201.37C936.581 1235.22 946.491 1315.25 948.183 1329.52C952.05 1360.47 955.192 1389 941.899 1390.93C928.605 1392.86 916.037 1381.5 909.511 1357.81C902.744 1334.11 900.569 1311.87 892.593 1273.91C886.067 1243.44 885.584 1241.03 877.849 1207.42C873.982 1190.74 867.698 1171.39 862.139 1155.2C860.447 1150.12 854.405 1125.46 851.988 1110.22C849.571 1094.99 840.87 1084.84 832.411 1085.32C823.951 1085.8 811.625 1110.47 810.416 1119.65C809.208 1128.84 804.857 1146.73 804.857 1147.22C798.573 1160.51 790.839 1172.85 778.029 1178.89C747.575 1193.64 738.391 1169.22 751.926 1139.96C766.669 1107.81 780.688 1040.11 794.948 1006.02C809.208 971.926 845.22 957.178 851.988 944.364C856.097 936.627 848.604 827.826 841.837 741.269L995.313 660.031C997.489 744.654 999.906 849.344 1000.39 860.708C1000.39 895.282 996.764 907.371 1004.26 924.538Z" fill="#9B633D"/>
<path d="M861.414 1155.2C856.338 1140.69 851.988 1128.6 850.296 1123.52C846.429 1110.95 839.42 1088.46 829.752 1097.41C818.15 1108.05 812.35 1128.84 803.649 1147.46C803.649 1146.97 808.241 1128.84 809.208 1119.9C810.416 1110.71 822.743 1086.05 831.202 1085.56C839.661 1085.08 848.362 1095.23 850.779 1110.47C853.68 1125.46 859.722 1150.12 861.414 1155.2Z" fill="#825230"/>
<path d="M753.376 1174.3C740.566 1168.98 752.167 1147.7 752.167 1147.7L778.754 1160.27C778.996 1160.27 767.878 1180.58 753.376 1174.3Z" fill="#EDB98E"/>
<path d="M942.624 1385.61C936.823 1388.03 930.297 1383.19 927.88 1377.15C925.463 1371.35 924.738 1364.09 924.738 1364.09L946.974 1360.47C946.974 1360.47 951.325 1382.23 942.624 1385.61Z" fill="#EDB98E"/>
<path d="M1018.27 1390.45C1013.2 1394.32 1007.4 1390.2 1003.53 1385.13C999.664 1380.05 996.28 1371.35 996.28 1371.35L1017.55 1363.85C1017.79 1363.85 1025.77 1384.89 1018.27 1390.45Z" fill="#EDB98E"/>
<path d="M1080.39 1357.32C1075.31 1361.19 1069.51 1357.08 1065.65 1352C1061.78 1346.93 1058.4 1338.22 1058.4 1338.22L1079.67 1330.73C1079.91 1330.73 1087.88 1351.76 1080.39 1357.32Z" fill="#EDB98E"/>
<path d="M1136.46 1286C1132.6 1290.11 1127.04 1287.45 1122.69 1283.58C1118.58 1279.71 1114.23 1272.46 1114.23 1272.46L1131.87 1262.55C1132.11 1262.79 1142.26 1280.2 1136.46 1286Z" fill="#EDB98E"/>
<path d="M1087.16 1256.26C1080.87 1245.14 1075.56 1233.29 1071.45 1223.86C1064.2 1207.66 1039.3 1161.24 1037.85 1161.48L1048.49 1155.44C1048.49 1155.44 1073.38 1205.97 1075.07 1214.67C1077.01 1223.38 1088.85 1257.71 1087.16 1256.26Z" fill="#825230"/>
<path d="M1021.66 1264.24C1022.87 1275.36 1026.98 1298.33 1026.98 1298.57C1022.87 1286 1018.76 1272.46 1014.65 1255.78C1010.3 1237.88 996.28 1199.44 987.096 1181.31L994.83 1177.44C994.83 1177.44 1008.37 1215.16 1012.72 1225.79C1017.31 1236.67 1020.45 1253.12 1021.66 1264.24Z" fill="#825230"/>
<path d="M962.443 1318.15C962.685 1319.36 962.684 1320.09 962.684 1320.09C958.576 1305.58 954.467 1289.87 951.325 1273.91C948.183 1257.95 932.473 1201.62 932.231 1201.62L941.415 1199.44C941.415 1199.44 956.642 1260.13 957.367 1276.33C958.334 1289.87 961.476 1311.63 962.443 1318.15Z" fill="#825230"/>
<path d="M845.704 808.967C845.704 808.967 926.43 808.725 994.83 771.008C994.83 771.008 973.803 814.286 936.581 848.135C905.161 876.665 850.538 892.381 850.538 892.381L845.704 808.967Z" fill="#895633"/>
<path d="M854.646 1992.48C854.646 1992.48 811.141 1902.54 772.712 1823.23C772.712 1823.23 821.534 1840.4 863.348 1868.44C904.678 1896.25 931.747 1943.88 931.747 1943.88L854.646 1992.48Z" fill="#895633"/>
<path d="M611.259 169.703C611.259 169.703 752.651 761.095 789.63 795.428C826.61 829.519 1033.26 799.296 1053.08 700.892C1072.66 602.488 919.904 41.3184 919.904 41.3184C919.904 41.3184 781.171 74.2003 611.259 169.703Z" fill="#7C3833"/>
<path d="M729.931 242.721L648.238 197.75L696.819 128.601L774.887 160.999L729.931 242.721Z" fill="#D35F4C"/>
<path d="M841.719 74.0276L796.806 155.829L878.579 200.756L923.491 118.955L841.719 74.0276Z" fill="#D35F4C"/>
<path d="M801.138 223.228L756.226 305.029L837.999 349.957L882.911 268.156L801.138 223.228Z" fill="#D35F4C"/>
<path d="M762.692 363.387L717.78 445.188L799.553 490.115L844.465 408.315L762.692 363.387Z" fill="#D35F4C"/>
<path d="M911.186 321.582L866.274 403.383L948.047 448.311L992.959 366.51L911.186 321.582Z" fill="#D35F4C"/>
<path d="M816.445 614.081L771.533 695.882L853.306 740.809L898.218 659.008L816.445 614.081Z" fill="#D35F4C"/>
<path d="M964.714 572.147L919.802 653.948L1001.57 698.875L1046.49 617.074L964.714 572.147Z" fill="#D35F4C"/>
<path d="M870.722 470.573L825.81 552.374L907.583 597.301L952.495 515.5L870.722 470.573Z" fill="#D35F4C"/>
<path d="M1343.11 1653.75C1343.6 1652.05 1345.05 1650.84 1346.74 1650.36C1349.16 1649.88 1351.57 1651.57 1351.81 1653.99C1353.51 1664.87 1360.27 1694.61 1370.91 1703.31C1372.84 1705 1373.08 1707.66 1371.63 1709.6C1369.94 1711.53 1367.28 1711.77 1365.35 1710.32C1350.12 1697.75 1343.84 1659.79 1343.11 1655.44C1342.87 1654.95 1342.87 1654.23 1343.11 1653.75Z" fill="#FFB808"/>
<path d="M1312.9 1543.98C1313.39 1542.28 1314.84 1541.08 1316.53 1540.59C1318.94 1540.11 1321.36 1541.8 1321.6 1544.22C1323.29 1555.1 1330.06 1584.84 1340.7 1593.54C1342.63 1595.23 1342.87 1597.89 1341.42 1599.83C1339.73 1601.76 1337.07 1602 1335.14 1600.55C1319.91 1587.98 1313.63 1550.02 1312.9 1545.67C1312.66 1545.19 1312.66 1544.46 1312.9 1543.98Z" fill="#FFB808"/>
<path d="M1331.75 1529.95C1332.24 1528.26 1333.69 1527.05 1335.38 1526.57C1337.8 1526.08 1340.21 1527.78 1340.46 1530.19C1342.15 1541.07 1348.91 1570.81 1359.55 1579.52C1361.48 1581.21 1361.72 1583.87 1360.27 1585.8C1358.58 1587.74 1355.92 1587.98 1353.99 1586.53C1338.76 1573.96 1332.48 1536 1331.75 1531.65C1331.51 1531.4 1331.51 1530.68 1331.75 1529.95Z" fill="#FFB808"/>
<path d="M748.059 1772.22L884.858 2054.86L582.738 2278.5C582.738 2278.5 400.016 2186.14 281.585 2014L748.059 1772.22Z" fill="#00468F"/>
<path d="M1331.51 810.419C1313.63 816.222 1277.86 832.179 1244.74 843.785C1230.48 848.62 1181.66 871.831 1139.36 888.272C1106.74 900.844 1077.73 907.856 1074.59 909.065C1042.93 921.637 1018.03 929.374 996.764 936.87C975.495 944.606 964.377 950.893 971.627 961.773C981.779 977.247 1005.95 975.796 1029.39 970.477C1027.22 970.235 1060.57 956.212 1068.31 951.86C1076.04 947.508 1130.18 932.034 1130.18 932.034L1132.84 943.881C1114.23 953.552 1091.75 964.916 1069.76 975.796C1030.84 995.38 973.319 1023.18 964.135 1028.5C953.742 1034.55 952.292 1044.94 959.059 1051.47C973.803 1065.25 991.93 1064.53 1011.75 1055.1C1020.21 1050.99 1028.91 1047.36 1037.85 1043.25C1038.34 1043.01 1057.91 1030.68 1067.1 1024.15C1076.28 1017.62 1090.78 1009.16 1101.66 1005.29C1112.54 1001.42 1149.76 986.434 1149.76 986.434L1151.93 994.897C1151.93 995.38 1114.95 1020.28 1090.78 1034.31C1051.87 1056.79 989.271 1091.61 980.57 1097.89C970.661 1105.15 967.519 1114.09 975.011 1120.62C990.721 1134.4 1011.27 1133.44 1031.33 1122.56C1040.99 1117.24 1052.84 1111.68 1065.41 1105.15C1065.41 1105.15 1065.89 1104.66 1066.86 1104.18C1072.41 1100.55 1090.54 1088.47 1101.18 1079.76C1113.74 1069.36 1169.09 1040.35 1169.09 1040.35L1173.69 1048.57C1146.37 1068.64 1080.15 1114.82 1068.31 1123.04C1042.69 1140.69 1019.48 1157.61 1026.98 1168.74C1034.47 1179.86 1051.15 1181.79 1073.14 1170.91C1095.38 1160.03 1113.26 1146.73 1146.86 1127.39C1173.93 1111.92 1175.86 1110.47 1206.31 1093.78C1221.3 1085.56 1239.91 1077.34 1255.62 1070.57C1260.7 1068.4 1282.93 1056.55 1295.74 1048.09C1308.79 1039.87 1322.09 1039.38 1327.4 1046.15C1332.72 1052.92 1322.57 1078.55 1316.53 1085.56C1310.49 1092.58 1300.09 1107.81 1299.85 1108.29C1294.05 1121.83 1290.42 1135.85 1294.29 1149.39C1303.72 1181.79 1328.13 1172.36 1340.7 1142.87C1354.72 1110.47 1395.56 1054.62 1411.51 1021.25C1427.22 987.643 1414.17 951.135 1419.25 937.353C1422.15 929.133 1573.45 820.09 1642.33 767.382L1554.6 615.545C1490.31 670.671 1390.97 763.997 1382.27 771.251C1355.92 793.978 1349.4 804.616 1331.51 810.419Z" fill="#F9C8A7"/>
<path d="M1255.62 1071.06C1269.88 1065.01 1281.72 1060.42 1286.56 1058.24C1298.64 1052.68 1319.91 1042.77 1319.67 1056.07C1319.43 1071.78 1307.83 1089.92 1299.85 1108.77C1300.09 1108.29 1310.73 1093.06 1316.53 1086.05C1322.57 1079.04 1332.48 1053.41 1327.4 1046.64C1322.09 1039.87 1308.79 1040.35 1295.74 1048.57C1282.69 1056.79 1260.45 1068.88 1255.62 1071.06Z" fill="#F9B587"/>
<path d="M1313.39 1164.14C1325.95 1169.95 1333.93 1147.22 1333.93 1147.22L1306.86 1135.85C1306.86 1135.85 1299.13 1157.37 1313.39 1164.14Z" fill="#FFDDCA"/>
<path d="M1029.88 1164.63C1032.05 1170.67 1040.03 1172.12 1045.83 1169.95C1051.87 1167.77 1057.67 1163.42 1057.67 1163.42L1045.59 1144.32C1045.59 1144.32 1026.73 1155.92 1029.88 1164.63Z" fill="#FFDDCA"/>
<path d="M975.736 1111.43C976.22 1117.72 983.229 1119.41 989.513 1118.69C995.797 1118.2 1004.5 1114.82 1004.5 1114.82L995.797 1094.03C995.797 1094.27 974.769 1102.25 975.736 1111.43Z" fill="#FFDDCA"/>
<path d="M958.817 1043.01C959.301 1049.3 966.31 1050.99 972.594 1050.26C978.878 1049.78 987.579 1046.4 987.579 1046.4L978.878 1025.6C978.878 1025.84 958.092 1033.82 958.817 1043.01Z" fill="#FFDDCA"/>
<path d="M974.286 953.794C973.802 959.596 979.603 961.772 985.162 962.256C990.721 962.739 998.939 961.289 998.939 961.289L994.347 941.705C994.588 941.705 975.011 945.573 974.286 953.794Z" fill="#FFDDCA"/>
<path d="M1029.39 970.477C1041.96 967.575 1054.29 963.707 1063.96 960.564C1080.87 955.245 1131.87 942.672 1132.84 943.881L1130.18 932.034C1130.18 932.034 1076.04 947.508 1068.31 951.86C1060.57 956.212 1027.22 970.235 1029.39 970.477Z" fill="#F9B587"/>
<path d="M1067.1 1024.64C1058.15 1031.16 1038.34 1043.49 1037.85 1043.74C1049.94 1038.42 1062.75 1032.37 1077.73 1024.39C1093.93 1015.69 1131.87 1000.46 1151.69 995.138L1149.52 986.676C1149.52 986.676 1112.54 1001.91 1101.42 1005.53C1090.78 1009.4 1076.28 1018.11 1067.1 1024.64Z" fill="#F9B587"/>
<path d="M1066.86 1104.66C1065.89 1105.39 1065.41 1105.63 1065.41 1105.63C1078.94 1098.86 1093.44 1091.37 1107.46 1083.15C1121.24 1074.93 1173.93 1048.81 1173.93 1049.05L1169.33 1040.83C1169.33 1040.83 1113.99 1070.09 1101.42 1080.24C1090.54 1088.95 1072.17 1101.04 1066.86 1104.66Z" fill="#F9B587"/>
<path d="M1448.25 711.047C1448.25 711.047 1475.08 780.438 1555.81 841.125C1555.81 841.125 1449.46 896.492 1418.28 941.463C1418.28 941.705 1385.89 775.119 1448.25 711.047Z" fill="#EAB794"/>
<path d="M1432.06 759.403C1432.06 766.656 1426.02 772.701 1418.76 772.701C1411.51 772.701 1405.47 766.656 1405.47 759.403C1405.47 752.149 1411.51 746.105 1418.76 746.105C1426.26 746.105 1432.06 751.908 1432.06 759.403Z" fill="#77C969"/>
<path d="M1451.15 784.065C1451.15 791.318 1445.11 797.363 1437.86 797.363C1430.61 797.363 1424.57 791.318 1424.57 784.065C1424.57 776.812 1430.61 770.767 1437.86 770.767C1445.11 771.009 1451.15 776.812 1451.15 784.065Z" fill="#77C969"/>
<path d="M1476.29 809.21C1476.29 816.463 1470.25 822.508 1463 822.508C1455.74 822.508 1449.7 816.463 1449.7 809.21C1449.7 801.957 1455.74 795.912 1463 795.912C1470.25 796.154 1476.29 801.957 1476.29 809.21Z" fill="#77C969"/>
<path d="M1499.73 832.904C1499.73 840.157 1493.69 846.202 1486.44 846.202C1479.19 846.202 1473.15 840.157 1473.15 832.904C1473.15 825.65 1479.19 819.606 1486.44 819.606C1493.69 819.606 1499.73 825.65 1499.73 832.904Z" fill="#77C969"/>
<path d="M1523.18 856.357C1523.18 863.61 1517.13 869.655 1509.88 869.655C1502.63 869.655 1496.59 863.61 1496.59 856.357C1496.59 849.104 1502.63 843.059 1509.88 843.059C1517.13 843.059 1523.18 848.862 1523.18 856.357Z" fill="#77C969"/>
<path d="M1940.83 223.378C1940.83 223.378 1454.54 602.246 1437.38 649.635C1420.21 697.023 1527.53 876.182 1625.9 856.598C1724.27 837.014 2204.52 470.718 2204.52 470.718C2204.52 470.718 2100.59 313.803 1940.83 223.378Z" fill="#4FA5FE"/>
<path d="M1785.18 1038.17C1777.2 1025.6 1722.09 945.814 1696.72 908.338C1677.14 879.566 1641.37 832.178 1639.43 829.518C1620.1 801.472 1597.86 788.174 1585.78 769.073C1573.45 749.973 1564.75 740.543 1555.81 750.215C1543 763.754 1550.01 786.965 1560.4 808.483C1560.16 806.307 1581.43 835.563 1587.47 842.091C1593.51 848.619 1620.58 897.942 1620.58 897.942L1609.46 903.261C1595.93 887.062 1579.73 867.961 1564.02 849.102C1536.23 815.495 1496.11 765.688 1488.86 758.193C1480.64 749.489 1470 750.215 1465.41 758.435C1455.26 775.843 1460.09 793.493 1473.63 810.659C1479.43 818.155 1484.99 825.65 1491.03 833.628C1491.27 833.87 1507.95 850.311 1516.17 857.806C1524.63 865.302 1536.23 877.39 1542.51 887.062C1548.8 896.733 1571.76 929.615 1571.76 929.615L1564.02 933.725C1563.54 933.967 1530.91 903.503 1511.82 882.951C1481.12 850.069 1433.27 796.878 1424.81 789.866C1415.62 781.888 1405.96 780.921 1401.36 789.625C1391.45 808 1397.01 827.826 1412.24 844.75C1419.49 852.971 1427.71 863.125 1436.89 874.247C1436.89 874.247 1437.38 874.731 1438.34 875.456C1442.93 880.05 1458.89 895.04 1469.76 903.503C1482.57 913.416 1523.66 960.804 1523.66 960.804L1516.65 967.091C1491.03 944.847 1431.09 890.93 1420.22 881.259C1397.25 860.224 1375.5 841.365 1366.32 851.278C1357.13 861.191 1359.07 877.874 1374.78 896.733C1390.24 915.833 1398.46 930.34 1424.81 958.628C1446.08 981.356 1447.77 983.048 1470.73 1008.92C1482.09 1021.73 1503.36 1037.93 1513.51 1051.71C1516.65 1056.07 1533.33 1075.17 1544.45 1085.8C1555.56 1096.44 1558.71 1109.5 1553.39 1116.27C1548.07 1122.8 1520.76 1118.93 1512.54 1114.58C1504.33 1110.22 1487.16 1103.7 1486.68 1103.45C1472.18 1101.04 1457.68 1100.31 1445.35 1107.32C1415.86 1123.76 1434.72 1134.4 1462.27 1151.08C1503.6 1176.23 1591.09 1187.11 1627.35 1194.85C1663.6 1202.83 2266.39 1738.61 2333.34 1793.73C2333.34 1793.73 2383.62 1677.68 2419.39 1575.41C2443.56 1506.02 2458.78 1378.6 2458.78 1378.6C2390.62 1327.58 1803.54 1067.67 1785.18 1038.17Z" fill="#DBA371"/>
<path d="M1513.27 1050.99C1522.21 1063.56 1529.7 1074.2 1532.85 1078.31C1540.82 1088.71 1555.32 1107.32 1542.51 1110.22C1527.04 1113.61 1506.74 1106.36 1486.68 1102.73C1487.16 1102.97 1504.33 1109.74 1512.54 1113.85C1520.76 1118.2 1548.07 1122.07 1553.39 1115.54C1558.71 1109.02 1555.32 1095.96 1544.45 1085.08C1533.09 1074.44 1516.41 1055.34 1513.27 1050.99Z" fill="#C18656"/>
<path d="M1435.68 1128.36C1432.78 1141.9 1456.71 1144.56 1456.71 1144.56L1461.79 1115.54C1461.79 1115.78 1439.07 1113.13 1435.68 1128.36Z" fill="#EDB98E"/>
<path d="M1371.39 852.245C1366.08 855.63 1366.32 863.85 1369.94 869.17C1373.33 874.489 1378.89 879.324 1378.89 879.324L1394.6 863.125C1394.6 863.125 1379.13 847.168 1371.39 852.245Z" fill="#EDB98E"/>
<path d="M1410.79 787.449C1404.75 789.383 1404.75 796.395 1406.68 802.439C1408.61 808.484 1413.69 816.221 1413.69 816.221L1432.06 803.165C1432.06 803.165 1419.49 784.548 1410.79 787.449Z" fill="#EDB98E"/>
<path d="M1473.63 755.534C1467.59 757.468 1467.59 764.479 1469.52 770.524C1471.45 776.568 1476.53 784.305 1476.53 784.305L1494.9 771.249C1495.14 771.249 1482.57 752.632 1473.63 755.534Z" fill="#EDB98E"/>
<path d="M1564.02 750.457C1558.47 751.182 1557.5 757.468 1558.22 763.029C1558.95 768.59 1562.33 776.327 1562.33 776.327L1580.46 767.623C1580.46 767.623 1572.24 749.248 1564.02 750.457Z" fill="#EDB98E"/>
<path d="M1560.16 808C1565.72 819.606 1572.48 830.727 1577.56 839.431C1586.5 854.664 1610.43 901.569 1609.22 902.778L1620.34 897.459C1620.34 897.459 1593.03 848.136 1587.23 841.607C1581.18 835.321 1560.16 805.824 1560.16 808Z" fill="#C18656"/>
<path d="M1516.17 857.081C1507.95 849.827 1491.27 833.386 1491.03 832.903C1499.01 843.299 1507.71 854.663 1518.83 867.477C1530.91 881.259 1554.36 914.866 1564.02 932.758L1571.76 928.647C1571.76 928.647 1548.8 896.007 1542.51 886.094C1536.23 876.665 1524.39 864.576 1516.17 857.081Z" fill="#C18656"/>
<path d="M1438.1 874.732C1437.13 874.007 1436.89 873.523 1436.65 873.523C1446.32 885.128 1456.71 897.701 1468.07 909.306C1479.19 920.912 1516.41 966.366 1516.41 966.366L1523.42 960.08C1523.42 960.08 1482.57 912.691 1469.52 902.778C1458.64 894.316 1442.69 879.326 1438.1 874.732Z" fill="#C18656"/>
<path d="M1515.2 964.431C1513.51 964.431 1511.82 963.463 1511.09 961.771C1510.13 959.595 1511.09 956.935 1513.27 955.727C1523.18 951.374 1550.25 936.868 1556.05 924.295C1557.02 922.119 1559.67 920.91 1562.09 922.119C1564.27 923.086 1565.47 925.746 1564.27 928.164C1556.05 946.055 1521 962.255 1517.14 963.947C1516.41 964.431 1515.93 964.431 1515.2 964.431Z" fill="#FFB808"/>
<path d="M1973.46 1262.79C1937.2 1364.82 1917.63 1432.03 1936.72 1448.47C1986.99 1491.03 1958.96 1473.13 1966.69 1481.84C1966.69 1481.84 2024.46 1423.57 2073.52 1366.03C2112.67 1320.09 2168.75 1231.36 2168.75 1231.36C2164.64 1227 2059.5 1182.76 2003.19 1148.18C2003.19 1148.18 1999.8 1188.56 1973.46 1262.79Z" fill="#CE915F"/>
<path d="M1924.63 1469.03L2171.65 1216.37L2466.76 1358.77C2466.76 1358.77 2451.05 1641.66 2314.49 1828.07L1924.63 1469.03Z" fill="#28D7D9"/>
<path d="M1025.28 1701.86C1026.49 1697.75 1030.36 1694.61 1035.44 1694.36C1042.2 1693.64 1048.73 1698.23 1049.94 1704.28C1055.25 1731.36 1075.31 1806.31 1105.29 1829.76C1110.6 1833.87 1111.57 1841.12 1107.22 1845.72C1102.87 1850.31 1094.89 1850.55 1089.57 1846.44C1046.79 1813.32 1027.22 1717.57 1025.04 1706.94C1024.8 1704.76 1025.04 1703.31 1025.28 1701.86Z" fill="#FFB808"/>
<path d="M970.902 1728.94C972.111 1725.07 975.978 1722.17 981.295 1721.68C988.304 1721.2 995.313 1725.79 996.764 1731.84C1002.81 1758.19 1025.53 1831.45 1057.19 1854.66C1062.99 1858.77 1063.96 1865.78 1059.6 1870.14C1055.25 1874.49 1047.04 1874.49 1041.24 1870.38C996.038 1837.25 973.319 1744.17 970.902 1733.53C970.419 1731.84 970.419 1730.39 970.902 1728.94Z" fill="#FFB808"/>
<g opacity="0.4">
<g opacity="0.4">
<g opacity="0.4">
<path opacity="0.4" d="M86.529 1699.57L80.736 1691.99C80.9677 1691.75 84.6753 1688.57 92.0904 1682.94L97.4201 1690.77C90.2366 1696.4 86.529 1699.57 86.529 1699.57Z" fill="white"/>
</g>
<g opacity="0.4">
<path opacity="0.4" d="M845.653 1740.18C838.933 1733.33 832.213 1726.72 825.493 1720.61L831.75 1713.27C838.47 1719.63 845.421 1726.48 852.141 1733.08L845.653 1740.18ZM804.87 1701.53C797.918 1695.42 790.735 1689.3 783.551 1683.43L789.113 1675.61C796.296 1681.48 803.711 1687.59 810.895 1693.95L804.87 1701.53ZM119.897 1674.63L114.799 1666.31C122.446 1661.18 130.325 1655.8 138.435 1650.9L143.069 1659.22C135.191 1664.36 127.312 1669.49 119.897 1674.63ZM761.538 1666.56C754.123 1660.93 746.476 1655.55 738.829 1650.42L743.695 1642.1C751.342 1647.24 759.221 1652.86 766.867 1658.49L761.538 1666.56ZM166.937 1645.28L162.534 1636.72C170.644 1632.07 178.986 1627.67 187.097 1623.27L191.268 1632.07C183.157 1636.23 175.047 1640.63 166.937 1645.28ZM715.425 1635.5C707.546 1630.6 699.436 1626.2 691.326 1621.8L695.497 1612.99C703.607 1617.4 711.949 1622.04 719.828 1626.94L715.425 1635.5ZM216.062 1619.6L212.355 1610.55C220.928 1606.63 229.502 1602.72 237.844 1599.3L241.32 1608.35C232.978 1612.02 224.404 1615.68 216.062 1619.6ZM666.763 1609.33C658.421 1605.41 650.079 1601.74 641.505 1598.32L644.749 1589.27C653.323 1592.69 661.897 1596.61 670.471 1600.52L666.763 1609.33ZM267.041 1598.32L264.029 1589.03C272.834 1585.85 281.64 1582.67 290.445 1579.98L293.226 1589.27C284.42 1592.2 275.615 1595.14 267.041 1598.32ZM615.784 1588.54C607.21 1585.6 598.405 1582.67 589.599 1580.22L591.917 1570.68C600.722 1573.13 609.759 1576.06 618.565 1579L615.784 1588.54ZM319.411 1581.44L317.093 1571.9C326.131 1569.46 335.168 1567.26 344.205 1565.3L346.059 1574.84C337.253 1576.8 328.216 1579.24 319.411 1581.44ZM562.951 1573.62C554.146 1571.66 545.109 1569.95 536.071 1568.48L537.462 1558.7C546.499 1560.16 555.768 1561.88 564.805 1563.83L562.951 1573.62ZM372.939 1569.7L371.548 1560.16C380.817 1558.7 389.854 1557.23 399.123 1556.25L400.05 1566.03C391.013 1566.77 381.976 1568.24 372.939 1569.7ZM508.96 1564.81C499.923 1563.83 490.886 1563.1 481.617 1562.85L482.08 1553.07C491.349 1553.56 500.618 1554.29 509.887 1555.27L508.96 1564.81ZM427.162 1563.34L426.698 1553.56C435.967 1553.07 445.236 1552.58 454.505 1552.58V1562.37C445.468 1562.37 436.431 1562.85 427.162 1563.34Z" fill="white"/>
</g>
<g opacity="0.4">
<path opacity="0.4" d="M874.85 1771.24C871.606 1767.57 868.594 1764.14 865.35 1760.72L872.07 1753.87C875.314 1757.29 878.558 1760.96 881.802 1764.63L874.85 1771.24Z" fill="white"/>
</g>
</g>
<g opacity="0.4">
<g opacity="0.4">
<path opacity="0.4" d="M138.667 1821.38L132.179 1814.53C132.41 1814.28 135.886 1810.62 142.838 1804.5L148.863 1811.84C142.143 1817.71 138.667 1821.38 138.667 1821.38Z" fill="white"/>
</g>
<g opacity="0.4">
<path opacity="0.4" d="M170.181 1793.98L164.62 1786.16C172.035 1780.53 179.682 1774.66 187.56 1769.28L192.658 1777.6C185.011 1782.73 177.364 1788.36 170.181 1793.98ZM708.705 1792.52C701.058 1787.14 693.18 1782 685.301 1777.11L689.935 1768.79C697.814 1773.68 705.693 1779.06 713.571 1784.45L708.705 1792.52ZM661.434 1763.17C653.323 1758.52 644.981 1754.12 636.871 1750.2L640.81 1741.4C649.152 1745.56 657.494 1749.96 665.605 1754.61L661.434 1763.17ZM216.062 1762.43L211.428 1753.87C219.538 1748.98 227.88 1744.33 236.222 1739.93L240.393 1748.74C232.283 1753.14 224.172 1757.54 216.062 1762.43ZM611.845 1738.22C603.271 1734.55 594.697 1730.88 586.355 1727.7L589.368 1718.41C597.942 1721.59 606.747 1725.26 615.321 1728.93L611.845 1738.22ZM265.187 1736.75L261.712 1727.7C270.285 1723.79 279.091 1720.36 287.665 1716.94L290.677 1726.23C282.335 1729.41 273.761 1732.84 265.187 1736.75ZM560.171 1718.9C551.365 1716.21 542.328 1713.76 533.754 1711.56L535.84 1702.02C544.877 1704.22 553.914 1706.67 562.951 1709.6L560.171 1718.9ZM316.862 1717.19L314.313 1707.89C323.35 1705.2 332.387 1702.75 341.424 1700.55L343.51 1710.09C334.704 1712.29 325.667 1714.74 316.862 1717.19ZM506.643 1705.93C497.606 1704.22 488.568 1703 479.531 1702.02L480.458 1692.24C489.727 1693.22 498.996 1694.68 508.265 1696.15L506.643 1705.93ZM370.39 1704.71L368.999 1694.93C378.268 1693.46 387.537 1692.24 396.806 1691.26L397.733 1701.04C388.464 1702.02 379.427 1703.24 370.39 1704.71ZM452.188 1699.82C443.151 1699.33 433.882 1699.33 424.845 1699.58L424.613 1689.79C433.882 1689.55 443.382 1689.55 452.651 1690.04L452.188 1699.82Z" fill="white"/>
</g>
<g opacity="0.4">
<path opacity="0.4" d="M742.768 1817.46C739.061 1814.53 735.353 1811.84 731.646 1808.9L736.975 1800.83C740.683 1803.77 744.622 1806.46 748.33 1809.39L742.768 1817.46Z" fill="white"/>
</g>
</g>
<g opacity="0.4">
<path opacity="0.4" d="M1202.04 2065.47L1201.58 2055.69C1210.38 2055.2 1219.65 2054.22 1228.69 2052.75L1230.08 2062.53C1220.58 2064 1211.08 2064.98 1202.04 2065.47ZM1173.77 2065.22C1164.27 2064.74 1154.77 2063.51 1145.73 2061.56L1147.36 2052.02C1156.16 2053.73 1165.2 2054.95 1174.47 2055.44L1173.77 2065.22ZM1257.89 2056.91L1255.8 2047.37C1264.38 2045.17 1273.41 2042.72 1282.22 2039.79L1285 2049.08C1275.73 2052.02 1266.69 2054.71 1257.89 2056.91ZM1118.16 2054.46C1109.12 2051.28 1100.32 2047.61 1091.74 2043.46L1095.68 2034.65C1103.79 2038.81 1112.37 2042.23 1120.94 2045.17L1118.16 2054.46ZM1311.42 2039.3L1308.17 2030.25C1312.34 2028.54 1316.51 2026.83 1320.69 2024.87L1324.16 2033.92C1319.99 2035.87 1315.82 2037.59 1311.42 2039.3ZM1066.95 2028.54C1059.07 2023.16 1051.42 2017.04 1044.24 2010.44L1050.26 2003.1C1057.22 2009.46 1064.4 2015.33 1072.05 2020.47L1066.95 2028.54ZM1024.08 1989.65C1017.82 1982.31 1011.8 1974.48 1006.24 1966.41L1013.65 1960.79C1018.98 1968.61 1024.78 1976.2 1030.8 1983.05L1024.08 1989.65ZM990.712 1941.22C982.138 1925.32 978.43 1914.56 978.199 1914.07L987.004 1910.65C987.004 1910.65 990.712 1921.17 998.822 1936.33L990.712 1941.22Z" fill="white"/>
</g>
<g opacity="0.4">
<path opacity="0.4" d="M1176.32 2194.36C1172.61 2194.36 1169.14 2194.36 1165.43 2194.12L1165.89 2184.34C1174.93 2184.83 1183.97 2184.58 1193.24 2184.09L1193.93 2193.87C1188.14 2194.12 1182.11 2194.36 1176.32 2194.36ZM1137.39 2191.18C1128.12 2189.72 1118.85 2187.52 1109.82 2184.83L1112.37 2175.29C1121.17 2177.73 1129.98 2179.93 1139.01 2181.4L1137.39 2191.18ZM1221.97 2190.21L1220.35 2180.67C1229.15 2179.2 1238.19 2177 1247 2174.55L1249.31 2184.09C1240.28 2186.54 1231.01 2188.74 1221.97 2190.21ZM1082.94 2175.53C1074.36 2171.86 1065.56 2167.7 1057.22 2163.06L1061.62 2154.5C1069.73 2158.9 1078.07 2163.06 1086.41 2166.48L1082.94 2175.53ZM1276.43 2175.29L1273.41 2165.99C1279.67 2163.55 1286.16 2161.1 1292.41 2158.41L1295.89 2167.46C1289.4 2170.4 1282.91 2172.84 1276.43 2175.29ZM1032.89 2147.89C1025.24 2142.51 1017.59 2136.64 1010.18 2130.28L1015.97 2122.7C1023.15 2128.82 1030.57 2134.44 1038.21 2139.82L1032.89 2147.89ZM988.858 2110.72C982.138 2104.11 975.418 2097.02 969.161 2089.44L976.113 2082.83C982.37 2090.17 988.858 2097.02 995.346 2103.62L988.858 2110.72ZM950.855 2066.94C945.062 2059.36 939.501 2051.28 934.171 2042.97L941.818 2037.34C947.148 2045.41 952.477 2053.24 958.27 2060.58L950.855 2066.94ZM918.878 2018.02C909.84 2002.12 905.438 1992.1 905.206 1991.61L913.548 1987.45C913.548 1987.45 917.951 1997.72 926.756 2012.88L918.878 2018.02Z" fill="white"/>
</g>
<g opacity="0.4">
<path opacity="0.4" d="M1553.57 1916.27L1548.01 1908.45C1548.01 1908.45 1556.12 1901.84 1569.79 1890.1L1575.58 1897.69C1561.68 1909.67 1553.57 1916.27 1553.57 1916.27ZM1596.9 1878.61L1590.87 1871.27C1597.83 1864.91 1604.78 1858.55 1611.73 1851.95L1617.99 1859.29C1611.03 1865.65 1603.85 1872.25 1596.9 1878.61ZM1638.61 1839.48L1632.35 1832.38C1639.07 1825.78 1646.02 1819.18 1652.74 1812.33L1659.23 1819.42C1652.28 1826.02 1645.56 1832.87 1638.61 1839.48ZM1679.39 1798.88L1672.9 1791.78C1679.39 1784.93 1686.11 1778.09 1692.6 1770.99L1699.09 1777.84C1692.6 1784.93 1685.88 1792.03 1679.39 1798.88ZM1718.55 1756.81L1711.83 1749.96C1718.32 1742.87 1724.58 1735.77 1730.83 1728.68L1737.55 1735.28C1731.53 1742.38 1725.04 1749.71 1718.55 1756.81ZM1756.32 1713.52L1749.37 1706.91C1755.63 1699.58 1761.65 1692.24 1767.68 1684.9L1774.63 1691.26C1768.84 1698.6 1762.58 1706.18 1756.32 1713.52ZM1792.7 1668.51L1785.52 1662.4C1791.31 1654.82 1797.11 1646.99 1802.67 1639.41L1810.08 1645.52C1804.29 1653.11 1798.5 1660.93 1792.7 1668.51ZM1826.77 1622.04L1819.35 1616.17C1824.91 1608.35 1830.24 1600.28 1835.57 1592.45L1843.22 1598.07C1837.89 1605.9 1832.33 1613.97 1826.77 1622.04ZM1858.75 1573.37L1850.87 1567.99C1855.97 1559.68 1860.83 1551.36 1865.7 1543.29L1873.58 1548.42C1868.94 1556.74 1863.84 1565.06 1858.75 1573.37ZM1887.71 1522.99L1879.6 1518.34C1884.24 1509.78 1888.64 1500.98 1892.58 1492.66L1900.92 1497.06C1896.75 1505.38 1892.35 1514.18 1887.71 1522.99ZM1912.97 1470.16L1904.63 1466.24C1908.57 1457.2 1912.04 1448.15 1915.29 1439.34L1923.86 1443.01C1920.62 1451.81 1916.91 1461.11 1912.97 1470.16ZM1933.59 1415.13L1924.79 1411.95C1927.8 1402.65 1930.35 1393.36 1932.67 1384.07L1941.7 1386.51C1939.15 1395.81 1936.37 1405.59 1933.59 1415.13ZM1947.5 1357.65L1938.46 1355.94C1940.08 1346.4 1941.47 1336.62 1942.4 1327.32L1951.67 1328.3C1950.74 1337.84 1949.35 1347.87 1947.5 1357.65ZM1953.29 1298.46L1944.02 1298.22C1944.02 1296.51 1944.02 1294.55 1944.02 1292.84C1944.02 1285.01 1943.79 1277.18 1943.09 1269.36L1952.36 1268.62C1953.06 1276.45 1953.29 1284.77 1953.29 1292.84C1953.52 1294.79 1953.52 1296.75 1953.29 1298.46ZM1939.85 1240.99C1938.23 1231.45 1936.14 1222.15 1933.59 1212.86L1942.4 1210.17C1944.95 1219.71 1947.26 1229.49 1948.89 1239.27L1939.85 1240.99ZM1924.56 1185.71C1921.77 1178.86 1918.99 1172.01 1915.75 1165.41L1912.97 1159.54L1921.31 1155.14L1924.09 1161.01C1927.34 1167.86 1930.58 1174.95 1933.36 1182.04L1924.56 1185.71ZM1899.99 1133.37L1887.48 1107.2L1895.82 1102.8L1908.33 1128.97L1899.99 1133.37ZM1874.97 1081.03L1862.45 1054.86L1870.8 1050.46L1883.31 1076.63L1874.97 1081.03ZM1849.71 1028.93L1837.2 1002.76L1845.54 998.361L1858.05 1024.53L1849.71 1028.93ZM1824.45 976.593L1811.94 950.423L1820.28 946.021L1832.79 972.191L1824.45 976.593ZM1799.42 924.008C1795.02 914.714 1790.85 906.154 1786.91 897.838L1795.25 893.436C1799.19 901.751 1803.36 910.312 1807.77 919.606L1799.42 924.008ZM1774.63 871.668C1770 862.129 1766.06 853.324 1762.12 845.498L1770.46 841.095C1774.17 849.166 1778.34 857.727 1782.97 867.265L1774.63 871.668ZM1749.84 819.083C1744.74 808.321 1740.8 799.761 1737.55 792.668L1745.9 788.266C1749.14 795.114 1753.08 803.919 1758.18 814.436L1749.84 819.083Z" fill="white"/>
</g>
<g opacity="0.4">
<path opacity="0.4" d="M1560.29 2094.09L1556.12 2085.28C1556.12 2085.28 1565.15 2080.63 1580.45 2071.34L1585.08 2079.9C1569.56 2089.19 1560.75 2093.84 1560.29 2094.09ZM1609.41 2064.98L1604.55 2056.66C1612.42 2051.77 1620.3 2046.39 1628.18 2041.01L1633.28 2049.33C1625.17 2054.46 1617.29 2059.84 1609.41 2064.98ZM1656.45 2032.94L1651.35 2024.87C1659 2019.49 1666.65 2013.86 1674.06 2008.24L1679.39 2016.31C1671.98 2021.69 1664.1 2027.31 1656.45 2032.94ZM1702.1 1998.7L1696.54 1990.87C1703.95 1985 1711.37 1979.13 1718.55 1973.02L1724.35 1980.6C1716.93 1986.71 1709.52 1992.83 1702.1 1998.7ZM1745.9 1962.01L1740.1 1954.43C1747.29 1948.32 1754.47 1941.96 1761.19 1935.6L1767.21 1942.93C1760.26 1949.54 1753.08 1955.9 1745.9 1962.01ZM1788.3 1923.61L1782.05 1916.27C1788.77 1909.67 1795.72 1903.07 1802.44 1896.46L1808.93 1903.56C1801.97 1910.16 1795.02 1917.01 1788.3 1923.61ZM1828.62 1883.01L1822.13 1876.16C1828.62 1869.32 1835.11 1862.22 1841.6 1855.13L1848.32 1861.98C1841.83 1868.83 1835.34 1875.92 1828.62 1883.01ZM1867.32 1840.21L1860.37 1833.61C1866.62 1826.27 1872.65 1818.93 1878.67 1811.59L1885.63 1817.95C1879.83 1825.54 1873.58 1832.87 1867.32 1840.21ZM1903.7 1795.45L1896.52 1789.34C1902.31 1781.76 1908.1 1774.17 1913.66 1766.35L1921.08 1772.22C1915.52 1780.29 1909.49 1787.87 1903.7 1795.45ZM1937.76 1748.98L1930.35 1743.11C1935.91 1735.28 1941.24 1727.21 1946.34 1719.39L1953.98 1725.01C1948.89 1732.84 1943.32 1740.91 1937.76 1748.98ZM1969.51 1700.31L1961.63 1694.93C1966.73 1686.86 1971.59 1678.54 1976.23 1670.23L1984.11 1675.36C1979.71 1683.68 1974.61 1691.99 1969.51 1700.31ZM1998.47 1649.93L1990.36 1645.03C1995 1636.72 1999.4 1627.91 2003.57 1619.35L2011.68 1624C2007.74 1632.56 2003.11 1641.37 1998.47 1649.93ZM2024.66 1597.83L2016.32 1593.43C2020.26 1584.62 2024.43 1575.82 2028.14 1567.01L2036.48 1570.93C2032.77 1579.98 2028.83 1589.03 2024.66 1597.83ZM2047.6 1544.02L2039.03 1540.35C2042.5 1531.3 2045.98 1522.25 2049.22 1513.2L2057.8 1516.63C2054.78 1525.68 2051.31 1534.97 2047.6 1544.02ZM2067.53 1488.75L2058.72 1485.57C2061.73 1476.27 2064.52 1466.98 2067.3 1457.93L2076.1 1460.86C2073.32 1470.16 2070.54 1479.45 2067.53 1488.75ZM2083.98 1432.49L2074.94 1429.8C2077.26 1420.51 2079.58 1410.97 2081.89 1401.43L2090.93 1403.63C2088.61 1413.42 2086.3 1422.95 2083.98 1432.49ZM2096.96 1375.02L2087.92 1373.06C2089.77 1363.52 2091.4 1353.98 2093.02 1344.44L2102.05 1346.16C2100.43 1355.69 2098.81 1365.48 2096.96 1375.02ZM2106.23 1317.05L2096.96 1315.58C2098.12 1306.04 2099.27 1296.26 2100.43 1286.72L2109.7 1287.7C2108.77 1297.48 2107.62 1307.27 2106.23 1317.05ZM2112.25 1258.35L2102.98 1257.62C2103.21 1253.46 2103.68 1249.3 2103.91 1245.14C2104.14 1239.76 2104.37 1234.14 2104.37 1228.76H2113.64C2113.64 1234.38 2113.41 1240.25 2113.18 1245.88C2112.95 1250.04 2112.71 1254.19 2112.25 1258.35ZM2103.21 1199.9C2102.52 1190.6 2101.13 1180.82 2099.51 1171.28L2108.54 1169.57C2110.16 1179.6 2111.32 1189.38 2112.25 1199.16L2103.21 1199.9ZM2093.94 1142.66C2091.86 1133.61 2089.54 1124.08 2086.76 1114.54L2095.57 1111.85C2098.35 1121.39 2100.66 1131.17 2102.98 1140.46L2093.94 1142.66ZM2078.19 1086.9C2075.17 1078.09 2071.93 1068.8 2068.45 1059.51L2077.03 1055.84C2080.5 1065.13 2083.98 1074.43 2086.99 1083.48L2078.19 1086.9ZM2057.8 1032.6C2054.09 1023.8 2050.15 1014.99 2046.21 1006.19L2054.55 1002.03C2058.72 1011.08 2062.66 1020.13 2066.37 1028.93L2057.8 1032.6ZM2033.93 980.018C2029.76 971.457 2025.35 962.897 2020.95 954.092L2029.06 949.445C2033.7 958.25 2038.1 966.81 2042.27 975.615L2033.93 980.018ZM2007.05 928.655C2002.41 920.34 1997.78 912.024 1992.91 903.464L2000.79 898.327C2005.66 906.888 2010.52 915.448 2015.16 923.764L2007.05 928.655ZM1978.31 878.516C1973.45 870.445 1968.35 862.129 1963.25 853.814L1970.9 848.433C1976 856.749 1981.1 865.064 1986.19 873.136L1978.31 878.516ZM1947.73 829.6C1942.63 821.529 1937.07 813.458 1931.74 805.631L1939.39 800.006C1944.71 808.077 1950.28 816.148 1955.37 824.219L1947.73 829.6ZM1915.52 781.907C1909.96 774.08 1904.39 766.253 1898.83 758.427L1906.25 752.557C1911.81 760.383 1917.6 768.21 1922.93 776.281L1915.52 781.907ZM1881.69 735.192C1875.89 727.365 1870.1 719.783 1864.31 712.201L1871.49 706.086C1877.28 713.424 1883.08 721.251 1889.1 729.077L1881.69 735.192ZM1846.46 689.699C1845.54 688.721 1845.07 688.232 1845.07 687.987L1848.55 684.808L1846.93 680.161C1849.94 678.938 1851.56 680.895 1853.42 683.34L1849.24 687.009L1850.17 689.21L1849.24 687.009L1846.46 689.699Z" fill="white"/>
</g>
<g opacity="0.4">
<path opacity="0.4" d="M1579.98 462.973C1579.98 462.973 1576.51 451.478 1568.63 437.292L1576.74 432.4C1585.08 447.809 1588.79 459.549 1588.79 460.038L1579.98 462.973ZM1297.28 417.236C1288.24 417.236 1278.74 416.747 1269.24 416.013L1269.94 406.23C1279.21 406.964 1288.48 407.453 1297.51 407.453L1297.28 417.236ZM1325.32 416.502L1324.62 406.719C1333.89 405.985 1343.16 405.007 1351.74 403.295L1353.36 412.834C1344.55 414.546 1335.05 415.769 1325.32 416.502ZM1553.33 413.812C1547.31 406.23 1540.82 399.871 1534.1 394.246L1539.66 386.419C1547.08 392.289 1554.03 399.382 1560.52 407.453L1553.33 413.812ZM1241.2 412.834C1232.17 411.611 1222.67 409.899 1213.63 407.942L1215.48 398.403C1224.52 400.36 1233.79 401.828 1242.59 403.295L1241.2 412.834ZM1381.16 406.475L1378.62 397.181C1387.65 394.49 1396.23 391.066 1404.11 387.397L1408.04 396.202C1399.47 400.116 1390.43 403.54 1381.16 406.475ZM1186.05 401.338C1177.02 398.893 1167.98 396.447 1158.94 393.512L1161.72 384.218C1170.53 386.908 1179.57 389.599 1188.37 392.044L1186.05 401.338ZM1132.53 384.462C1123.72 381.038 1114.92 377.614 1106.34 373.945L1109.82 364.896C1118.16 368.565 1126.96 371.989 1135.54 375.413L1132.53 384.462ZM1432.84 384.218L1429.59 375.168C1439.1 371.499 1448.36 368.809 1457.17 367.097L1458.79 376.636C1450.45 378.103 1441.64 380.549 1432.84 384.218ZM1510.93 380.794C1502.82 377.614 1494.01 375.413 1485.21 374.924L1485.9 365.14C1495.64 365.874 1505.14 368.075 1514.17 371.744L1510.93 380.794ZM1080.62 361.716C1072.05 357.558 1063.7 352.911 1055.59 348.264L1060 339.704C1067.88 344.351 1076.22 348.753 1084.56 352.911L1080.62 361.716ZM1031.26 333.345C1023.15 327.964 1015.27 322.339 1007.86 316.713L1013.19 308.887C1020.37 314.512 1028.02 319.893 1035.9 325.029L1031.26 333.345ZM985.845 298.37C978.43 291.766 971.479 284.918 965.222 278.069L971.942 271.221C977.967 277.825 984.687 284.429 991.87 291.032L985.845 298.37ZM946.684 255.568C940.659 247.252 935.562 238.936 931.159 230.376L939.269 225.729C943.44 233.8 948.538 241.871 954.099 249.698L946.684 255.568Z" fill="white"/>
</g>
<g opacity="0.4">
<path opacity="0.4" d="M1675.45 382.015C1675.45 382.015 1670.59 371.743 1662.01 356.579L1669.89 351.443C1678.7 366.851 1683.56 377.124 1683.79 377.613L1675.45 382.015ZM1647.18 332.121C1641.85 324.05 1636.52 315.978 1630.96 308.641L1638.38 302.771C1643.94 310.353 1649.5 318.424 1654.83 326.74L1647.18 332.121ZM1613.35 286.14C1607.09 278.802 1600.61 271.709 1594.35 265.35L1600.61 258.257C1607.09 264.861 1613.81 271.954 1620.3 279.78L1613.35 286.14ZM1350.11 247.74C1346.17 247.74 1342.24 247.74 1338.06 247.496L1338.3 237.712C1347.8 237.957 1357.07 237.957 1365.64 237.468L1366.1 247.251C1361 247.496 1355.44 247.74 1350.11 247.74ZM1573.49 246.762C1565.85 240.647 1558.2 235.511 1550.79 231.109L1555.19 222.548C1563.07 227.195 1571.18 232.576 1579.06 238.935L1573.49 246.762ZM1310.03 245.294C1300.99 244.316 1291.72 242.849 1282.22 241.381L1283.84 231.842C1293.11 233.554 1302.38 234.777 1311.18 235.756L1310.03 245.294ZM1394.37 244.071L1392.98 234.533C1402.25 233.065 1411.29 230.864 1419.4 228.174L1422.18 237.468C1413.61 240.158 1404.11 242.359 1394.37 244.071ZM1254.64 235.756C1245.61 233.799 1236.57 231.353 1227.3 228.663L1229.62 219.124C1238.66 221.57 1247.69 224.016 1256.5 225.972L1254.64 235.756ZM1448.36 225.972L1444.43 217.168C1453.46 212.765 1462.5 209.341 1471.77 207.384L1473.62 216.923C1465.28 218.635 1456.71 221.815 1448.36 225.972ZM1200.42 220.347C1191.62 217.412 1182.58 214.233 1174 210.808L1177.25 201.514C1185.82 204.938 1194.63 207.873 1203.43 210.808L1200.42 220.347ZM1526.22 219.858C1517.42 216.923 1508.61 215.211 1500.04 214.722L1500.5 204.938C1509.77 205.428 1519.5 207.384 1528.77 210.564L1526.22 219.858ZM1147.82 200.291C1139.25 196.623 1130.44 192.709 1122.1 188.552L1126.04 179.747C1134.38 183.66 1142.95 187.573 1151.3 191.242L1147.82 200.291ZM1096.84 175.589C1088.5 171.186 1080.16 166.295 1072.28 161.648L1076.91 153.087C1084.79 157.734 1092.9 162.381 1101.24 167.028L1096.84 175.589ZM1048.18 146.484C1040.07 141.103 1032.19 135.477 1024.77 129.852L1030.1 121.781C1037.29 127.162 1045.17 132.787 1053.05 137.923L1048.18 146.484ZM1002.53 111.753C995.114 105.394 987.931 98.7902 981.443 92.1865L987.931 85.0936C994.419 91.4527 1001.37 97.8119 1008.55 104.171L1002.53 111.753ZM961.746 70.9079C955.258 63.0813 949.465 55.0101 944.367 47.1835L952.014 41.8027C956.88 49.3848 962.441 56.9668 968.698 64.5488L961.746 70.9079Z" fill="white"/>
</g>
</g>
</svg>
