<svg width="1022" height="1021" viewBox="0 0 1022 1021" fill="none" xmlns="http://www.w3.org/2000/svg">
<path d="M511.2 1020.7C792.865 1020.7 1021.2 792.365 1021.2 510.7C1021.2 229.035 792.865 0.700195 511.2 0.700195C229.535 0.700195 1.20001 229.035 1.20001 510.7C1.20001 792.365 229.535 1020.7 511.2 1020.7Z" fill="#01585E"/>
<path opacity="0.3" d="M236 221.1C251.9 221.1 251.9 236.7 267.8 236.7C283.7 236.7 283.7 221.1 299.6 221.1C315.5 221.1 315.5 236.7 331.4 236.7C347.3 236.7 347.3 221.1 363.2 221.1C379.1 221.1 379.1 236.7 395 236.7C410.9 236.7 410.9 221.1 426.8 221.1C442.7 221.1 442.7 236.7 458.6 236.7" stroke="#3C8260" stroke-width="2" stroke-miterlimit="10"/>
<path opacity="0.3" d="M236 264.5C251.9 264.5 251.9 280.1 267.8 280.1C283.7 280.1 283.7 264.5 299.6 264.5C315.5 264.5 315.5 280.1 331.4 280.1C347.3 280.1 347.3 264.5 363.2 264.5C379.1 264.5 379.1 280.1 395 280.1C410.9 280.1 410.9 264.5 426.8 264.5C442.7 264.5 442.7 280.1 458.6 280.1" stroke="#3C8260" stroke-width="2" stroke-miterlimit="10"/>
<path d="M670.2 675.7C673.7 668.8 679.6 653.6 686 640.7C688.7 635.1 696.4 614.1 704 597C709.9 583.8 716.4 573.2 716.9 572C722.6 559 727.6 549.6 731.6 541.1C735.7 532.6 737.1 527.5 731.7 526.4C724.2 524.8 717.5 532.3 712.2 540.7C712.9 540.2 707.2 554 706.2 557.5C705.2 561 693.8 581.3 693.8 581.3L689.5 578.6C692.2 570.3 695.5 560.5 698.7 550.8C704.5 533.7 713.2 508.8 714.3 504.6C715.6 499.8 713 496.3 709.1 496.4C700.7 496.6 695.6 502.2 692.5 510.7C691.2 514.4 689.7 517.9 688.2 521.8C688.2 522 686 531.4 685.2 535.9C684.4 540.5 682.7 547.2 680.6 551.5C678.5 555.8 672 571 672 571L668.9 569.2C668.7 569.1 672.3 551 675.4 539.8C680.3 521.8 688.5 493.4 689.3 489C690.1 484 688.4 480.4 684.3 480.7C675.7 481.2 669.9 487.5 667.2 496.5C665.9 500.8 664.1 506 662.2 511.5C662.2 511.5 662.1 511.8 662 512.3C661.4 514.9 659.6 523.8 659 529.5C658.3 536.2 650.6 560.9 650.6 560.9L646.9 559.8C649.1 545.9 655.1 513.1 656.2 507.2C658.6 494.6 660.5 482.8 655 481.7C649.5 480.6 644.1 485 640.8 494.6C637.5 504.2 636.1 513.4 631.8 528.9C628.4 541.3 628.2 542.3 624.1 556C622.1 562.8 619 570.6 616.3 577.2C615.5 579.3 612.4 589.3 611 595.5C609.6 601.7 605.8 605.7 602.3 605.3C598.8 604.9 594.3 594.4 594 590.6C593.7 586.8 592.4 579.3 592.3 579.1C590 573.4 587.1 568.2 581.9 565.4C569.7 558.6 565.3 568.5 570.2 580.9C575.6 594.5 579.7 622.8 584.8 637.2C589.9 651.7 604.4 658.6 606.9 664.1C608.4 667.4 544.6 951.2 539.8 986.7L670.2 997.3C673.1 962.4 665.8 706.8 666.2 702.1C667.8 687.6 666.6 682.6 670.2 675.7Z" fill="#F9C8A7"/>
<path d="M616.6 577C614.2 582.9 612 587.8 611.3 589.8C609.4 594.9 606 604 602.2 600.1C597.7 595.4 595.8 586.7 592.6 578.8C592.6 579 594 586.5 594.3 590.3C594.6 594.1 599.1 604.6 602.6 605C606.1 605.4 609.9 601.4 611.3 595.2C612.7 589.1 615.8 579.1 616.6 577Z" fill="#F9B587"/>
<path d="M572.5 566.5C567.1 568.4 571.4 577.4 571.4 577.4L582.7 572.9C582.7 572.9 578.6 564.3 572.5 566.5Z" fill="#FFDDCA"/>
<path d="M655.7 483.8C653.3 482.7 650.6 484.6 649.4 486.9C648.3 489.3 647.8 492.3 647.8 492.3L656.9 494.3C656.9 494.3 659.1 485.4 655.7 483.8Z" fill="#FFDDCA"/>
<path d="M687 483.6C685 481.9 682.5 483.4 680.8 485.4C679.1 487.4 677.5 490.9 677.5 490.9L686.1 494.5C686.2 494.5 690 486 687 483.6Z" fill="#FFDDCA"/>
<path d="M711.9 498.8C709.9 497.1 707.4 498.6 705.7 500.6C704 502.6 702.4 506.1 702.4 506.1L711 509.7C711.1 509.7 714.9 501.2 711.9 498.8Z" fill="#FFDDCA"/>
<path d="M733.4 529.5C731.9 527.7 729.5 528.7 727.7 530.2C725.9 531.7 723.9 534.6 723.9 534.6L730.9 539.1C731 539 735.6 532.1 733.4 529.5Z" fill="#FFDDCA"/>
<path d="M712.3 540.6C709.5 545.1 707 549.8 705 553.6C701.6 560.1 690.3 578.7 689.6 578.5L693.9 581.2C693.9 581.2 705.3 560.9 706.3 557.4C707.3 553.9 713 540.1 712.3 540.6Z" fill="#F9B587"/>
<path d="M685.5 535.8C686.3 531.3 688.5 521.9 688.5 521.7C686.5 526.8 684.4 532.3 682.4 539C680.2 546.3 673.5 561.8 669.2 569.1L672.3 570.9C672.3 570.9 678.8 555.7 680.9 551.4C682.9 547.1 684.7 540.3 685.5 535.8Z" fill="#F9B587"/>
<path d="M662.3 512.1C662.4 511.6 662.5 511.4 662.5 511.3C660.5 517.2 658.4 523.6 656.7 530.1C655 536.6 647.2 559.5 647.1 559.5L650.8 560.6C650.8 560.6 658.5 535.9 659.2 529.2C659.8 523.7 661.7 514.8 662.3 512.1Z" fill="#F9B587"/>
<path d="M606.6 685.9C605.6 684.8 605.4 683 606.3 681.2C607.5 678.9 610.3 677.5 612.5 678.3C622.1 681.5 650 688.5 663.4 682.9C665.8 681.9 668.3 682.9 668.8 685.1C669.3 687.3 667.8 690 665.4 691C646.1 699 611.9 688 608.1 686.7C607.5 686.6 607 686.3 606.6 685.9Z" fill="black"/>
<path d="M649.7 551.7C649.2 551.2 649.1 550.4 649.4 549.7C649.8 548.8 650.9 548.3 651.8 548.7C656 550.5 667.9 554.7 673.3 552.9C674.3 552.6 675.3 553.1 675.7 554.1C676 555.1 675.5 556.1 674.5 556.5C666.8 559.1 652 552.9 650.3 552.2C650.1 552.1 649.9 551.9 649.7 551.7Z" fill="black"/>
<path d="M532 929.2C532 929.2 633.2 975 687.9 963.4L689.3 988.8C689.3 988.8 610.5 1020.9 511.3 1020.7L532 929.2Z" fill="#D1A284"/>
<path d="M549.7 936.6C549.7 936.6 578.2 951 614.4 957.6C650.6 964.2 650 965.2 671.5 965.1L670 867.9C670.1 868.1 598.5 886.3 549.7 936.6Z" fill="#EAB794"/>
<path d="M668.9 812.3C668.9 812.3 637.7 795.9 627.9 759C627.9 759 624.3 837.8 670.1 868.1L668.9 812.3Z" fill="#D1A284"/>
<path d="M670.4 883.7C670.4 883.7 639.2 867.3 629.4 830.4C629.4 830.4 625.8 909.2 671.6 939.5L670.4 883.7Z" fill="#D1A284"/>
<path d="M473.5 752.2C481.1 750.6 496.6 745.8 510.7 742.7C516.8 741.4 537.9 734.2 556.1 729.5C570.1 725.9 582.4 724.4 583.7 724C597.4 720.3 607.9 718.4 617 716.3C626.2 714.2 631 712.1 628.5 707.3C625 700.5 615 699.9 605.2 701C606.1 701.2 591.7 705.4 588.3 706.8C584.9 708.2 561.9 711.9 561.9 711.9L561.4 706.9C569.6 703.9 579.3 700.3 588.9 696.8C605.8 690.7 630.8 681.9 634.8 680.2C639.3 678.2 640.5 674 638 671C632.6 664.6 625.1 664.1 616.5 666.9C612.8 668.1 609.1 669.2 605.2 670.5C605 670.6 596.3 674.7 592.3 676.9C588.2 679.1 581.9 682 577.2 683C572.5 684.1 556.6 688.5 556.6 688.5L556.1 684.9C556.1 684.7 572.5 676.2 583.1 671.6C600.2 664.2 627.6 652.9 631.5 650.7C635.9 648.2 637.6 644.6 634.9 641.6C629.2 635.2 620.6 634.6 611.9 638.1C607.7 639.8 602.5 641.6 597 643.6C597 643.6 596.7 643.7 596.3 643.9C593.9 645.1 585.8 649.2 581 652.2C575.3 655.8 551.2 665.2 551.2 665.2L549.7 661.6C561.9 654.7 591.3 638.9 596.6 636.1C608 630.1 618.4 624.3 615.8 619.3C613.2 614.3 606.5 612.8 596.9 616.2C587.3 619.6 579.2 624.2 564.5 630.6C552.7 635.7 551.8 636.1 538.5 641.5C531.9 644.2 523.9 646.7 517.1 648.6C514.9 649.2 505.2 653.1 499.5 655.9C493.8 658.7 488.3 658.2 486.4 655.2C484.6 652.2 489.9 642.1 492.7 639.5C495.5 636.9 500.5 631.2 500.7 631C503.7 625.7 505.9 620.1 505 614.4C502.7 600.6 492.2 603.3 485.6 614.9C478.3 627.6 458.8 648.5 450.7 661.5C442.6 674.5 446.2 690.1 443.5 695.5C441.9 698.7 233.6 793.4 202.8 811.8L219.7 907.6C248.8 888.1 446.8 768.2 450.8 765.5C462.7 757.8 465.9 753.7 473.5 752.2Z" fill="#9B633D"/>
<path d="M517.2 648.8C511.1 650.6 505.9 651.9 503.9 652.6C498.7 654.3 489.5 657.3 490.2 651.9C491 645.4 496.7 638.5 500.9 631.2C500.8 631.4 495.7 637.1 492.9 639.7C490.1 642.3 484.7 652.4 486.6 655.4C488.4 658.4 494 658.9 499.7 656.1C505.3 653.3 515.1 649.4 517.2 648.8Z" fill="#825230"/>
<path d="M497.9 607.8C493 604.8 488.7 613.7 488.7 613.7L499.3 619.7C499.2 619.7 503.4 611.2 497.9 607.8Z" fill="#EDB98E"/>
<path d="M614.4 621.2C613.8 618.6 610.6 617.7 608.1 618.3C605.5 618.9 602.9 620.4 602.9 620.4L607 628.8C607 628.7 615.3 624.9 614.4 621.2Z" fill="#EDB98E"/>
<path d="M634.1 645.6C634.2 643 631.4 642 628.8 641.9C626.2 641.8 622.4 642.7 622.4 642.7L625 651.7C625.1 651.7 634 649.4 634.1 645.6Z" fill="#EDB98E"/>
<path d="M637.8 674.5C637.9 671.9 635.1 670.9 632.5 670.8C629.9 670.7 626.1 671.6 626.1 671.6L628.7 680.6C628.7 680.7 637.7 678.4 637.8 674.5Z" fill="#EDB98E"/>
<path d="M627.2 710.5C627.7 708.2 625.4 706.9 623.1 706.5C620.8 706 617.4 706.3 617.4 706.3L618.3 714.6C618.2 714.5 626.5 713.8 627.2 710.5Z" fill="#EDB98E"/>
<path d="M605.3 700.9C600 701.5 594.8 702.5 590.6 703.3C583.4 704.7 561.8 707.4 561.5 706.8L562 711.8C562 711.8 585 708.1 588.4 706.7C591.8 705.3 606.1 701.2 605.3 700.9Z" fill="#825230"/>
<path d="M592.4 676.9C596.4 674.7 605.1 670.5 605.3 670.5C600.1 672.1 594.5 673.9 587.9 676.5C580.8 679.3 564.5 683.7 556.1 685L556.6 688.6C556.6 688.6 572.6 684.2 577.2 683.1C581.9 682 588.3 679.1 592.4 676.9Z" fill="#825230"/>
<path d="M596.4 644C596.8 643.8 597.1 643.7 597.1 643.7C591.2 645.8 584.9 648.2 578.8 650.9C572.7 653.6 549.9 661.8 549.9 661.7L551.4 665.3C551.4 665.3 575.5 655.9 581.2 652.3C585.9 649.3 594 645.2 596.4 644Z" fill="#825230"/>
<path d="M287.7 596.8C294.1 601.2 308.3 609.1 320.3 617.2C325.4 620.7 345.2 631.1 361.2 641C373.5 648.6 383.1 656.5 384.2 657.2C396.3 664.6 404.9 670.8 412.8 676C420.7 681.2 425.5 683.3 427.3 678.1C429.9 670.9 423.4 663.2 415.8 656.9C416.2 657.7 403.3 650.1 400 648.7C396.6 647.3 378.1 633.2 378.1 633.2L381.4 629.3C389.2 633.1 398.5 637.7 407.7 642.2C423.8 650.2 447.4 662.3 451.4 664C455.9 665.9 459.8 663.8 460.3 660C461.2 651.7 456.4 645.9 448.4 641.6C445 639.8 441.6 637.9 438 635.9C437.8 635.8 428.8 632.4 424.4 631C420 629.6 413.5 627 409.6 624.3C405.6 621.7 391.4 613.2 391.4 613.2L393.6 610.4C393.7 610.3 411.2 616.3 421.9 620.8C439.1 628.1 466.1 640.1 470.4 641.4C475.2 642.9 479 641.6 479.3 637.6C480 629 474.5 622.4 465.9 618.5C461.8 616.6 456.9 614.1 451.7 611.5C451.7 611.5 451.4 611.4 451 611.2C448.5 610.3 439.9 607.2 434.4 605.9C427.9 604.3 404.4 593.3 404.4 593.3L406 589.8C419.4 593.9 451.2 604.2 456.8 606.1C469 610.1 480.4 613.7 482.2 608.4C484 603.1 480.4 597.2 471.4 592.6C462.3 588 453.4 585.4 438.7 579.1C426.8 574.1 425.9 573.7 412.9 567.8C406.4 564.9 399.1 560.8 393 557.3C391.1 556.2 381.6 551.8 375.6 549.6C369.6 547.4 366.2 543 367.1 539.6C368 536.2 379 533.1 382.8 533.4C386.6 533.6 394.2 533.3 394.5 533.3C400.4 531.8 406 529.6 409.5 524.9C417.9 513.7 408.7 508 395.7 511.2C381.5 514.7 352.9 515 337.9 518.1C322.9 521.2 314.1 534.6 308.3 536.4C304.8 537.4 41.9 441.9 7.4 432.3C7.4 432.3 3.20001 462.5 1.50001 490.7C0.200006 513.2 2.9 548.7 2.9 548.7C37.1 556.3 258 588.9 262.6 590C276.2 592.9 281.3 592.4 287.7 596.8Z" fill="#DBA371"/>
<path d="M79.7 511.4C77.4 500 57.4 448.8 48.1 445.7C26.8 438.4 11.4 433.2 7.10001 432.1C7.10001 432.1 2.90002 462.3 1.20002 490.5C-0.0999817 513 2.60001 548.5 2.60001 548.5C4.90001 549 60.2 559 80.7 562.4C80.7 562.4 85.5 540.8 79.7 511.4Z" fill="#CE915F"/>
<path d="M392.7 557.1C387.2 553.9 382.7 551.1 380.7 550.1C375.9 547.5 367.3 542.9 371.7 539.7C377 535.9 385.9 535.2 394.1 533.1C393.9 533.1 386.2 533.4 382.4 533.2C378.6 533 367.6 536 366.7 539.4C365.8 542.8 369.2 547.2 375.2 549.4C381.3 551.6 390.8 556 392.7 557.1Z" fill="#C18656"/>
<path d="M409.1 514.8C407.9 509.2 398.4 512.2 398.4 512.2L401.3 524C401.3 524 410.4 521.2 409.1 514.8Z" fill="#EDB98E"/>
<path d="M479.8 608.4C481.2 606.2 479.8 603.2 477.6 601.8C475.4 600.4 472.5 599.5 472.5 599.5L469.2 608.2C469.2 608.2 477.7 611.6 479.8 608.4Z" fill="#EDB98E"/>
<path d="M475.7 639.5C477.7 637.7 476.5 635.1 474.7 633.1C473 631.1 469.7 629.1 469.7 629.1L465 637.2C465 637.2 472.9 642.1 475.7 639.5Z" fill="#EDB98E"/>
<path d="M457.3 662.1C459.3 660.3 458.1 657.7 456.3 655.7C454.6 653.7 451.3 651.7 451.3 651.7L446.6 659.8C446.6 659.8 454.5 664.7 457.3 662.1Z" fill="#EDB98E"/>
<path d="M424 679.2C426 677.9 425.3 675.4 424.1 673.4C422.9 671.4 420.3 669.1 420.3 669.1L414.9 675.5C414.9 675.6 421.1 681.1 424 679.2Z" fill="#EDB98E"/>
<path d="M415.8 656.8C411.7 653.4 407.4 650.3 403.9 647.8C397.9 643.5 381.1 629.8 381.3 629.2L378 633.1C378 633.1 396.6 647.2 399.9 648.6C403.3 650.1 416.2 657.6 415.8 656.8Z" fill="#C18656"/>
<path d="M424.2 630.9C428.6 632.3 437.6 635.7 437.8 635.8C433 633.2 427.9 630.4 421.5 627.4C414.6 624.2 400.1 615.5 393.4 610.3L391.2 613.1C391.2 613.1 405.4 621.6 409.4 624.2C413.4 626.9 419.8 629.5 424.2 630.9Z" fill="#C18656"/>
<path d="M450.8 611.1C451.3 611.3 451.5 611.4 451.5 611.4C445.9 608.6 439.8 605.7 433.6 603.1C427.4 600.6 405.7 589.7 405.8 589.7L404.2 593.2C404.2 593.2 427.6 604.2 434.2 605.8C439.7 607.2 448.3 610.2 450.8 611.1Z" fill="#C18656"/>
<path d="M416 382.8C419.1 389.9 424.2 405.4 429.8 418.7C432.2 424.4 438.6 445.8 445.3 463.4C450.4 476.9 456.3 487.8 456.8 489.1C461.7 502.4 466.2 512.1 469.7 520.8C473.3 529.5 474.4 534.7 469 535.5C461.4 536.6 455.2 528.8 450.4 520.1C451.1 520.7 446.2 506.5 445.4 503C444.6 499.4 434.4 478.5 434.4 478.5L430 481C432.2 489.4 434.9 499.4 437.6 509.2C442.4 526.6 449.7 552 450.6 556.3C451.6 561.1 448.8 564.5 444.9 564.2C436.6 563.5 431.8 557.7 429.2 549C428.1 545.3 426.8 541.6 425.6 537.7C425.6 537.5 423.9 528 423.4 523.5C422.9 518.9 421.5 512.1 419.7 507.6C417.9 503.2 412.3 487.6 412.3 487.6L409.1 489.2C408.9 489.3 411.5 507.6 413.9 518.9C417.8 537.2 424.4 566 424.8 570.4C425.3 575.4 423.4 578.9 419.3 578.4C410.7 577.4 405.3 570.8 403.2 561.6C402.1 557.2 400.6 552 399.1 546.3C399.1 546.3 399.1 546 399 545.5C398.6 542.8 397.2 533.8 397 528.2C396.7 521.5 390.4 496.4 390.4 496.4L386.6 497.3C388 511.3 392.1 544.4 392.8 550.3C394.4 563.1 395.7 574.9 390.2 575.7C384.7 576.5 379.5 571.8 376.8 562C374 552.2 373.1 543 369.8 527.3C367.1 514.7 366.9 513.7 363.7 499.8C362.1 492.9 359.5 484.9 357.2 478.2C356.5 476.1 354 465.9 353 459.6C352 453.3 348.4 449.1 344.9 449.3C341.4 449.5 336.3 459.7 335.8 463.5C335.3 467.3 333.5 474.7 333.5 474.9C330.9 480.4 327.7 485.5 322.4 488C309.8 494.1 306 484 311.6 471.9C317.7 458.6 323.5 430.6 329.4 416.5C335.3 402.4 350.2 396.3 353 391C354.7 387.8 351.6 342.8 348.8 307L412.3 273.4C413.2 308.4 414.2 351.7 414.4 356.4C414.4 370.7 412.9 375.7 416 382.8Z" fill="#9B633D"/>
<path d="M356.9 478.2C354.8 472.2 353 467.2 352.3 465.1C350.7 459.9 347.8 450.6 343.8 454.3C339 458.7 336.6 467.3 333 475C333 474.8 334.9 467.3 335.3 463.6C335.8 459.8 340.9 449.6 344.4 449.4C347.9 449.2 351.5 453.4 352.5 459.7C353.7 465.9 356.2 476.1 356.9 478.2Z" fill="#825230"/>
<path d="M312.2 486.1C306.9 483.9 311.7 475.1 311.7 475.1L322.7 480.3C322.8 480.3 318.2 488.7 312.2 486.1Z" fill="#EDB98E"/>
<path d="M390.5 573.5C388.1 574.5 385.4 572.5 384.4 570C383.4 567.6 383.1 564.6 383.1 564.6L392.3 563.1C392.3 563.1 394.1 572.1 390.5 573.5Z" fill="#EDB98E"/>
<path d="M421.8 575.5C419.7 577.1 417.3 575.4 415.7 573.3C414.1 571.2 412.7 567.6 412.7 567.6L421.5 564.5C421.6 564.5 424.9 573.2 421.8 575.5Z" fill="#EDB98E"/>
<path d="M447.5 561.8C445.4 563.4 443 561.7 441.4 559.6C439.8 557.5 438.4 553.9 438.4 553.9L447.2 550.8C447.3 550.8 450.6 559.5 447.5 561.8Z" fill="#EDB98E"/>
<path d="M470.7 532.3C469.1 534 466.8 532.9 465 531.3C463.3 529.7 461.5 526.7 461.5 526.7L468.8 522.6C468.9 522.7 473.1 529.9 470.7 532.3Z" fill="#EDB98E"/>
<path d="M450.3 520C447.7 515.4 445.5 510.5 443.8 506.6C440.8 499.9 430.5 480.7 429.9 480.8L434.3 478.3C434.3 478.3 444.6 499.2 445.3 502.8C446.1 506.4 451 520.6 450.3 520Z" fill="#825230"/>
<path d="M423.2 523.3C423.7 527.9 425.4 537.4 425.4 537.5C423.7 532.3 422 526.7 420.3 519.8C418.5 512.4 412.7 496.5 408.9 489L412.1 487.4C412.1 487.4 417.7 503 419.5 507.4C421.4 511.9 422.7 518.7 423.2 523.3Z" fill="#825230"/>
<path d="M398.7 545.6C398.8 546.1 398.8 546.4 398.8 546.4C397.1 540.4 395.4 533.9 394.1 527.3C392.8 520.7 386.3 497.4 386.2 497.4L390 496.5C390 496.5 396.3 521.6 396.6 528.3C397 533.9 398.3 542.9 398.7 545.6Z" fill="#825230"/>
<path d="M350.4 335C350.4 335 383.8 334.9 412.1 319.3C412.1 319.3 403.4 337.2 388 351.2C375 363 352.4 369.5 352.4 369.5L350.4 335Z" fill="#895633"/>
<path d="M354.1 824.5C354.1 824.5 336.1 787.3 320.2 754.5C320.2 754.5 340.4 761.6 357.7 773.2C374.8 784.7 386 804.4 386 804.4L354.1 824.5Z" fill="#895633"/>
<path d="M253.4 70.6C253.4 70.6 311.9 315.2 327.2 329.4C342.5 343.5 428 331 436.2 290.3C444.3 249.6 381.1 17.5 381.1 17.5C381.1 17.5 323.7 31.1 253.4 70.6Z" fill="#D1A284"/>
<path d="M302.5 100.8L268.7 82.2001L288.8 53.6001L321.1 67.0001L302.5 100.8Z" fill="#D35F4C"/>
<path d="M348.751 31.0284L330.169 64.8613L364.002 83.4434L382.584 49.6104L348.751 31.0284Z" fill="#D35F4C"/>
<path d="M331.961 92.7379L313.379 126.571L347.212 145.153L365.794 111.32L331.961 92.7379Z" fill="#D35F4C"/>
<path d="M316.055 150.708L297.473 184.541L331.305 203.123L349.888 169.29L316.055 150.708Z" fill="#D35F4C"/>
<path d="M377.493 133.417L358.911 167.25L392.744 185.832L411.326 151.999L377.493 133.417Z" fill="#D35F4C"/>
<path d="M338.294 254.395L319.712 288.228L353.545 306.81L372.127 272.977L338.294 254.395Z" fill="#D35F4C"/>
<path d="M399.64 237.051L381.057 270.884L414.89 289.466L433.472 255.633L399.64 237.051Z" fill="#D35F4C"/>
<path d="M360.751 195.04L342.169 228.873L376.002 247.455L394.584 213.622L360.751 195.04Z" fill="#D35F4C"/>
<path d="M556.2 684.4C556.4 683.7 557 683.2 557.7 683C558.7 682.8 559.7 683.5 559.8 684.5C560.5 689 563.3 701.3 567.7 704.9C568.5 705.6 568.6 706.7 568 707.5C567.3 708.3 566.2 708.4 565.4 707.8C559.1 702.6 556.5 686.9 556.2 685.1C556.1 684.9 556.1 684.6 556.2 684.4Z" fill="#FFB808"/>
<path d="M543.7 639C543.9 638.3 544.5 637.8 545.2 637.6C546.2 637.4 547.2 638.1 547.3 639.1C548 643.6 550.8 655.9 555.2 659.5C556 660.2 556.1 661.3 555.5 662.1C554.8 662.9 553.7 663 552.9 662.4C546.6 657.2 544 641.5 543.7 639.7C543.6 639.5 543.6 639.2 543.7 639Z" fill="#FFB808"/>
<path d="M551.5 633.2C551.7 632.5 552.3 632 553 631.8C554 631.6 555 632.3 555.1 633.3C555.8 637.8 558.6 650.1 563 653.7C563.8 654.4 563.9 655.5 563.3 656.3C562.6 657.1 561.5 657.2 560.7 656.6C554.4 651.4 551.8 635.7 551.5 633.9C551.4 633.8 551.4 633.5 551.5 633.2Z" fill="#FFB808"/>
<path d="M310 733.4L366.6 850.3L241.6 942.8C241.6 942.8 166 904.6 117 833.4L310 733.4Z" fill="#D1A284"/>
<path d="M551.4 335.6C544 338 529.2 344.6 515.5 349.4C509.6 351.4 489.4 361 471.9 367.8C458.4 373 446.4 375.9 445.1 376.4C432 381.6 421.7 384.8 412.9 387.9C404.1 391.1 399.5 393.7 402.5 398.2C406.7 404.6 416.7 404 426.4 401.8C425.5 401.7 439.3 395.9 442.5 394.1C445.7 392.3 468.1 385.9 468.1 385.9L469.2 390.8C461.5 394.8 452.2 399.5 443.1 404C427 412.1 403.2 423.6 399.4 425.8C395.1 428.3 394.5 432.6 397.3 435.3C403.4 441 410.9 440.7 419.1 436.8C422.6 435.1 426.2 433.6 429.9 431.9C430.1 431.8 438.2 426.7 442 424C445.8 421.3 451.8 417.8 456.3 416.2C460.8 414.6 476.2 408.4 476.2 408.4L477.1 411.9C477.1 412.1 461.8 422.4 451.8 428.2C435.7 437.5 409.8 451.9 406.2 454.5C402.1 457.5 400.8 461.2 403.9 463.9C410.4 469.6 418.9 469.2 427.2 464.7C431.2 462.5 436.1 460.2 441.3 457.5C441.3 457.5 441.5 457.3 441.9 457.1C444.2 455.6 451.7 450.6 456.1 447C461.3 442.7 484.2 430.7 484.2 430.7L486.1 434.1C474.8 442.4 447.4 461.5 442.5 464.9C431.9 472.2 422.3 479.2 425.4 483.8C428.5 488.4 435.4 489.2 444.5 484.7C453.7 480.2 461.1 474.7 475 466.7C486.2 460.3 487 459.7 499.6 452.8C505.8 449.4 513.5 446 520 443.2C522.1 442.3 531.3 437.4 536.6 433.9C542 430.5 547.5 430.3 549.7 433.1C551.9 435.9 547.7 446.5 545.2 449.4C542.7 452.3 538.4 458.6 538.3 458.8C535.9 464.4 534.4 470.2 536 475.8C539.9 489.2 550 485.3 555.2 473.1C561 459.7 577.9 436.6 584.5 422.8C591 408.9 585.6 393.8 587.7 388.1C588.9 384.7 651.5 339.6 680 317.8L643.7 255C617.1 277.8 576 316.4 572.4 319.4C561.5 328.8 558.8 333.2 551.4 335.6Z" fill="#F9C8A7"/>
<path d="M520 443.4C525.9 440.9 530.8 439 532.8 438.1C537.8 435.8 546.6 431.7 546.5 437.2C546.4 443.7 541.6 451.2 538.3 459C538.4 458.8 542.8 452.5 545.2 449.6C547.7 446.7 551.8 436.1 549.7 433.3C547.5 430.5 542 430.7 536.6 434.1C531.2 437.5 522 442.5 520 443.4Z" fill="#F9B587"/>
<path d="M543.9 481.9C549.1 484.3 552.4 474.9 552.4 474.9L541.2 470.2C541.2 470.2 538 479.1 543.9 481.9Z" fill="#FFDDCA"/>
<path d="M426.6 482.1C427.5 484.6 430.8 485.2 433.2 484.3C435.7 483.4 438.1 481.6 438.1 481.6L433.1 473.7C433.1 473.7 425.3 478.5 426.6 482.1Z" fill="#FFDDCA"/>
<path d="M404.2 460.1C404.4 462.7 407.3 463.4 409.9 463.1C412.5 462.9 416.1 461.5 416.1 461.5L412.5 452.9C412.5 453 403.8 456.3 404.2 460.1Z" fill="#FFDDCA"/>
<path d="M397.2 431.8C397.4 434.4 400.3 435.1 402.9 434.8C405.5 434.6 409.1 433.2 409.1 433.2L405.5 424.6C405.5 424.7 396.9 428 397.2 431.8Z" fill="#FFDDCA"/>
<path d="M403.6 394.9C403.4 397.3 405.8 398.2 408.1 398.4C410.4 398.6 413.8 398 413.8 398L411.9 389.9C412 389.9 403.9 391.5 403.6 394.9Z" fill="#FFDDCA"/>
<path d="M426.4 401.8C431.6 400.6 436.7 399 440.7 397.7C447.7 395.5 468.8 390.3 469.2 390.8L468.1 385.9C468.1 385.9 445.7 392.3 442.5 394.1C439.3 395.9 425.5 401.7 426.4 401.8Z" fill="#F9B587"/>
<path d="M442 424.2C438.3 426.9 430.1 432 429.9 432.1C434.9 429.9 440.2 427.4 446.4 424.1C453.1 420.5 468.8 414.2 477 412L476.1 408.5C476.1 408.5 460.8 414.8 456.2 416.3C451.8 417.9 445.8 421.5 442 424.2Z" fill="#F9B587"/>
<path d="M441.9 457.3C441.5 457.6 441.3 457.7 441.3 457.7C446.9 454.9 452.9 451.8 458.7 448.4C464.4 445 486.2 434.2 486.2 434.3L484.3 430.9C484.3 430.9 461.4 443 456.2 447.2C451.7 450.8 444.1 455.8 441.9 457.3Z" fill="#F9B587"/>
<path d="M599.7 294.5C599.7 294.5 610.8 323.2 644.2 348.3C644.2 348.3 600.2 371.2 587.3 389.8C587.3 389.9 573.9 321 599.7 294.5Z" fill="#EAB794"/>
<path d="M593 314.5C593 317.5 590.5 320 587.5 320C584.5 320 582 317.5 582 314.5C582 311.5 584.5 309 587.5 309C590.6 309 593 311.4 593 314.5Z" fill="#77C969"/>
<path d="M600.9 324.7C600.9 327.7 598.4 330.2 595.4 330.2C592.4 330.2 589.9 327.7 589.9 324.7C589.9 321.7 592.4 319.2 595.4 319.2C598.4 319.3 600.9 321.7 600.9 324.7Z" fill="#77C969"/>
<path d="M611.3 335.1C611.3 338.1 608.8 340.6 605.8 340.6C602.8 340.6 600.3 338.1 600.3 335.1C600.3 332.1 602.8 329.6 605.8 329.6C608.8 329.7 611.3 332.1 611.3 335.1Z" fill="#77C969"/>
<path d="M621 344.9C621 347.9 618.5 350.4 615.5 350.4C612.5 350.4 610 347.9 610 344.9C610 341.9 612.5 339.4 615.5 339.4C618.5 339.4 621 341.9 621 344.9Z" fill="#77C969"/>
<path d="M630.7 354.6C630.7 357.6 628.2 360.1 625.2 360.1C622.2 360.1 619.7 357.6 619.7 354.6C619.7 351.6 622.2 349.1 625.2 349.1C628.2 349.1 630.7 351.5 630.7 354.6Z" fill="#77C969"/>
<path d="M803.5 92.7998C803.5 92.7998 602.3 249.5 595.2 269.1C588.1 288.7 632.5 362.8 673.2 354.7C713.9 346.6 912.6 195.1 912.6 195.1C912.6 195.1 869.6 130.2 803.5 92.7998Z" fill="#D1A284"/>
<path d="M739.1 429.8C735.8 424.6 713 391.6 702.5 376.1C694.4 364.2 679.6 344.6 678.8 343.5C670.8 331.9 661.6 326.4 656.6 318.5C651.5 310.6 647.9 306.7 644.2 310.7C638.9 316.3 641.8 325.9 646.1 334.8C646 333.9 654.8 346 657.3 348.7C659.8 351.4 671 371.8 671 371.8L666.4 374C660.8 367.3 654.1 359.4 647.6 351.6C636.1 337.7 619.5 317.1 616.5 314C613.1 310.4 608.7 310.7 606.8 314.1C602.6 321.3 604.6 328.6 610.2 335.7C612.6 338.8 614.9 341.9 617.4 345.2C617.5 345.3 624.4 352.1 627.8 355.2C631.3 358.3 636.1 363.3 638.7 367.3C641.3 371.3 650.8 384.9 650.8 384.9L647.6 386.6C647.4 386.7 633.9 374.1 626 365.6C613.3 352 593.5 330 590 327.1C586.2 323.8 582.2 323.4 580.3 327C576.2 334.6 578.5 342.8 584.8 349.8C587.8 353.2 591.2 357.4 595 362C595 362 595.2 362.2 595.6 362.5C597.5 364.4 604.1 370.6 608.6 374.1C613.9 378.2 630.9 397.8 630.9 397.8L628 400.4C617.4 391.2 592.6 368.9 588.1 364.9C578.6 356.2 569.6 348.4 565.8 352.5C562 356.6 562.8 363.5 569.3 371.3C575.7 379.2 579.1 385.2 590 396.9C598.8 406.3 599.5 407 609 417.7C613.7 423 622.5 429.7 626.7 435.4C628 437.2 634.9 445.1 639.5 449.5C644.1 453.9 645.4 459.3 643.2 462.1C641 464.8 629.7 463.2 626.3 461.4C622.9 459.6 615.8 456.9 615.6 456.8C609.6 455.8 603.6 455.5 598.5 458.4C586.3 465.2 594.1 469.6 605.5 476.5C622.6 486.9 658.8 491.4 673.8 494.6C688.8 497.9 938.2 719.5 965.9 742.3C965.9 742.3 986.7 694.3 1001.5 652C1011.5 623.3 1017.8 570.6 1017.8 570.6C989.6 549.5 746.7 442 739.1 429.8Z" fill="#DBA371"/>
<path d="M626.6 435.1C630.3 440.3 633.4 444.7 634.7 446.4C638 450.7 644 458.4 638.7 459.6C632.3 461 623.9 458 615.6 456.5C615.8 456.6 622.9 459.4 626.3 461.1C629.7 462.9 641 464.5 643.2 461.8C645.4 459.1 644 453.7 639.5 449.2C634.8 444.8 627.9 436.9 626.6 435.1Z" fill="#C18656"/>
<path d="M594.5 467.1C593.3 472.7 603.2 473.8 603.2 473.8L605.3 461.8C605.3 461.9 595.9 460.8 594.5 467.1Z" fill="#EDB98E"/>
<path d="M567.9 352.9C565.7 354.3 565.8 357.7 567.3 359.9C568.7 362.1 571 364.1 571 364.1L577.5 357.4C577.5 357.4 571.1 350.8 567.9 352.9Z" fill="#EDB98E"/>
<path d="M584.2 326.1C581.7 326.9 581.7 329.8 582.5 332.3C583.3 334.8 585.4 338 585.4 338L593 332.6C593 332.6 587.8 324.9 584.2 326.1Z" fill="#EDB98E"/>
<path d="M610.2 312.9C607.7 313.7 607.7 316.6 608.5 319.1C609.3 321.6 611.4 324.8 611.4 324.8L619 319.4C619.1 319.4 613.9 311.7 610.2 312.9Z" fill="#EDB98E"/>
<path d="M647.6 310.8C645.3 311.1 644.9 313.7 645.2 316C645.5 318.3 646.9 321.5 646.9 321.5L654.4 317.9C654.4 317.9 651 310.3 647.6 310.8Z" fill="#EDB98E"/>
<path d="M646 334.6C648.3 339.4 651.1 344 653.2 347.6C656.9 353.9 666.8 373.3 666.3 373.8L670.9 371.6C670.9 371.6 659.6 351.2 657.2 348.5C654.7 345.9 646 333.7 646 334.6Z" fill="#C18656"/>
<path d="M627.8 354.9C624.4 351.9 617.5 345.1 617.4 344.9C620.7 349.2 624.3 353.9 628.9 359.2C633.9 364.9 643.6 378.8 647.6 386.2L650.8 384.5C650.8 384.5 641.3 371 638.7 366.9C636.1 363 631.2 358 627.8 354.9Z" fill="#C18656"/>
<path d="M595.5 362.2C595.1 361.9 595 361.7 594.9 361.7C598.9 366.5 603.2 371.7 607.9 376.5C612.5 381.3 627.9 400.1 627.9 400.1L630.8 397.5C630.8 397.5 613.9 377.9 608.5 373.8C604 370.3 597.4 364.1 595.5 362.2Z" fill="#C18656"/>
<path d="M627.4 399.3C626.7 399.3 626 398.9 625.7 398.2C625.3 397.3 625.7 396.2 626.6 395.7C630.7 393.9 641.9 387.9 644.3 382.7C644.7 381.8 645.8 381.3 646.8 381.8C647.7 382.2 648.2 383.3 647.7 384.3C644.3 391.7 629.8 398.4 628.2 399.1C627.9 399.3 627.7 399.3 627.4 399.3Z" fill="#FFB808"/>
<path d="M817 522.7C802 564.9 793.9 592.7 801.8 599.5C822.6 617.1 811 609.7 814.2 613.3C814.2 613.3 838.1 589.2 858.4 565.4C874.6 546.4 897.8 509.7 897.8 509.7C896.1 507.9 852.6 489.6 829.3 475.3C829.3 475.3 827.9 492 817 522.7Z" fill="#CE915F"/>
<path d="M796.8 608L899 503.5L1021.1 562.4C1021.1 562.4 1014.6 679.4 958.1 756.5L796.8 608Z" fill="#D1A284"/>
<path d="M424.7 704.3C425.2 702.6 426.8 701.3 428.9 701.2C431.7 700.9 434.4 702.8 434.9 705.3C437.1 716.5 445.4 747.5 457.8 757.2C460 758.9 460.4 761.9 458.6 763.8C456.8 765.7 453.5 765.8 451.3 764.1C433.6 750.4 425.5 710.8 424.6 706.4C424.5 705.5 424.6 704.9 424.7 704.3Z" fill="#FFB808"/>
<path d="M402.2 715.5C402.7 713.9 404.3 712.7 406.5 712.5C409.4 712.3 412.3 714.2 412.9 716.7C415.4 727.6 424.8 757.9 437.9 767.5C440.3 769.2 440.7 772.1 438.9 773.9C437.1 775.7 433.7 775.7 431.3 774C412.6 760.3 403.2 721.8 402.2 717.4C402 716.7 402 716.1 402.2 715.5Z" fill="#FFB808"/>
<g opacity="0.4">
<g opacity="0.4">
<g opacity="0.4">
<path opacity="0.4" d="M36.2968 703.355L33.9 700.219C33.9959 700.118 35.5298 698.803 38.5978 696.477L40.8029 699.714C37.8308 702.04 36.2968 703.355 36.2968 703.355Z" fill="white"/>
</g>
<g opacity="0.4">
<path opacity="0.4" d="M350.379 720.148C347.599 717.315 344.818 714.584 342.038 712.055L344.627 709.02C347.407 711.651 350.283 714.483 353.064 717.214L350.379 720.148ZM333.505 704.165C330.629 701.636 327.657 699.107 324.685 696.679L326.986 693.442C329.958 695.87 333.026 698.399 335.998 701.029L333.505 704.165ZM50.1026 693.037L47.9934 689.598C51.1573 687.474 54.417 685.248 57.7725 683.225L59.69 686.664C56.4303 688.789 53.1706 690.913 50.1026 693.037ZM315.577 689.699C312.509 687.372 309.345 685.147 306.181 683.023L308.195 679.583C311.359 681.708 314.618 684.034 317.782 686.361L315.577 689.699ZM69.565 680.898L67.7434 677.358C71.099 675.436 74.5504 673.615 77.906 671.794L79.6317 675.436C76.2762 677.155 72.9206 678.976 69.565 680.898ZM296.498 676.852C293.238 674.829 289.883 673.008 286.527 671.187L288.253 667.545C291.609 669.366 295.06 671.288 298.32 673.311L296.498 676.852ZM89.8902 670.277L88.3563 666.534C91.9036 664.915 95.4509 663.297 98.9024 661.88L100.34 665.623C96.889 667.141 93.3417 668.658 89.8902 670.277ZM276.365 666.028C272.913 664.409 269.462 662.892 265.914 661.476L267.257 657.733C270.804 659.149 274.351 660.768 277.899 662.386L276.365 666.028ZM110.982 661.476L109.736 657.632C113.379 656.317 117.023 655.002 120.666 653.889L121.816 657.733C118.173 658.947 114.53 660.161 110.982 661.476ZM255.272 657.429C251.725 656.215 248.082 655.002 244.439 653.99L245.397 650.045C249.041 651.056 252.78 652.27 256.423 653.484L255.272 657.429ZM132.65 654.496L131.691 650.551C135.43 649.539 139.169 648.629 142.908 647.819L143.675 651.765C140.032 652.574 136.293 653.585 132.65 654.496ZM233.413 651.259C229.77 650.449 226.031 649.741 222.292 649.134L222.867 645.088C226.606 645.695 230.441 646.403 234.18 647.212L233.413 651.259ZM154.797 649.64L154.222 645.695C158.056 645.088 161.796 644.481 165.63 644.076L166.014 648.123C162.275 648.426 158.536 649.033 154.797 649.64ZM211.075 647.617C207.336 647.212 203.596 646.909 199.762 646.808L199.953 642.761C203.788 642.964 207.623 643.267 211.458 643.672L211.075 647.617ZM177.231 647.01L177.039 642.964C180.874 642.761 184.709 642.559 188.544 642.559V646.605C184.805 646.605 181.066 646.808 177.231 647.01Z" fill="white"/>
</g>
<g opacity="0.4">
<path opacity="0.4" d="M362.459 732.994C361.117 731.477 359.871 730.061 358.528 728.644L361.309 725.812C362.651 727.228 363.993 728.746 365.335 730.263L362.459 732.994Z" fill="white"/>
</g>
</g>
<g opacity="0.4">
<g opacity="0.4">
<path opacity="0.4" d="M57.8684 753.733L55.184 750.9C55.2799 750.799 56.718 749.282 59.5942 746.753L62.0869 749.788C59.3065 752.216 57.8684 753.733 57.8684 753.733Z" fill="white"/>
</g>
<g opacity="0.4">
<path opacity="0.4" d="M70.9073 742.403L68.6063 739.166C71.6742 736.839 74.8381 734.411 78.0978 732.186L80.207 735.625C77.0432 737.75 73.8794 740.076 70.9073 742.403ZM293.718 741.796C290.554 739.57 287.294 737.446 284.035 735.423L285.952 731.983C289.212 734.007 292.471 736.232 295.731 738.458L293.718 741.796ZM274.16 729.657C270.804 727.735 267.353 725.914 263.997 724.295L265.627 720.654C269.078 722.373 272.53 724.194 275.885 726.116L274.16 729.657ZM89.8903 729.353L87.9728 725.813C91.3284 723.79 94.7798 721.868 98.2313 720.047L99.957 723.688C96.6014 725.509 93.2458 727.33 89.8903 729.353ZM253.643 719.339C250.095 717.821 246.548 716.304 243.096 714.989L244.343 711.145C247.89 712.46 251.533 713.977 255.081 715.495L253.643 719.339ZM110.215 718.732L108.777 714.989C112.325 713.37 115.968 711.954 119.515 710.538L120.762 714.382C117.31 715.697 113.763 717.113 110.215 718.732ZM232.263 711.347C228.62 710.234 224.88 709.223 221.333 708.312L222.196 704.367C225.935 705.278 229.674 706.289 233.413 707.503L232.263 711.347ZM131.595 710.639L130.541 706.795C134.28 705.682 138.019 704.671 141.758 703.76L142.621 707.705C138.978 708.616 135.239 709.627 131.595 710.639ZM210.116 705.986C206.377 705.277 202.638 704.772 198.899 704.367L199.282 700.321C203.117 700.725 206.952 701.332 210.787 701.939L210.116 705.986ZM153.742 705.48L153.167 701.433C157.002 700.826 160.837 700.321 164.672 699.916L165.055 703.962C161.22 704.367 157.481 704.873 153.742 705.48ZM187.586 703.457C183.847 703.254 180.012 703.254 176.273 703.355L176.177 699.309C180.012 699.208 183.942 699.208 187.777 699.41L187.586 703.457Z" fill="white"/>
</g>
<g opacity="0.4">
<path opacity="0.4" d="M307.811 752.114C306.277 750.9 304.743 749.787 303.209 748.574L305.414 745.235C306.948 746.449 308.578 747.562 310.112 748.776L307.811 752.114Z" fill="white"/>
</g>
</g>
<g opacity="0.4">
<path opacity="0.4" d="M497.833 854.689L497.641 850.643C501.284 850.441 505.119 850.036 508.858 849.429L509.434 853.476C505.503 854.082 501.572 854.487 497.833 854.689ZM486.136 854.588C482.205 854.386 478.275 853.88 474.536 853.071L475.207 849.126C478.85 849.834 482.589 850.34 486.424 850.542L486.136 854.588ZM520.938 851.149L520.076 847.204C523.623 846.293 527.362 845.282 531.005 844.068L532.156 847.912C528.321 849.126 524.582 850.238 520.938 851.149ZM463.127 850.137C459.387 848.822 455.744 847.305 452.197 845.585L453.827 841.943C457.182 843.663 460.73 845.079 464.277 846.293L463.127 850.137ZM543.085 843.865L541.743 840.123C543.469 839.414 545.194 838.706 546.92 837.897L548.358 841.64C546.633 842.449 544.907 843.157 543.085 843.865ZM441.938 839.414C438.679 837.189 435.515 834.66 432.543 831.929L435.036 828.894C437.912 831.524 440.884 833.952 444.048 836.076L441.938 839.414ZM424.202 823.33C421.613 820.295 419.121 817.058 416.82 813.72L419.888 811.393C422.093 814.63 424.489 817.766 426.982 820.599L424.202 823.33ZM410.396 803.301C406.849 796.725 405.315 792.274 405.219 792.072L408.862 790.656C408.862 790.656 410.396 795.006 413.752 801.277L410.396 803.301Z" fill="white"/>
</g>
<g opacity="0.4">
<path opacity="0.4" d="M487.191 908C485.657 908 484.219 908 482.685 907.899L482.877 903.853C486.616 904.055 490.355 903.954 494.19 903.752L494.477 907.798C492.08 907.899 489.588 908 487.191 908ZM471.084 906.685C467.249 906.078 463.414 905.168 459.675 904.055L460.73 900.11C464.373 901.122 468.016 902.032 471.755 902.639L471.084 906.685ZM506.078 906.281L505.407 902.335C509.05 901.729 512.789 900.818 516.432 899.807L517.391 903.752C513.652 904.763 509.817 905.674 506.078 906.281ZM448.554 900.211C445.006 898.694 441.363 896.974 437.912 895.052L439.733 891.511C443.089 893.332 446.54 895.052 449.992 896.468L448.554 900.211ZM528.608 900.11L527.362 896.266C529.951 895.254 532.635 894.243 535.224 893.13L536.662 896.873C533.977 898.087 531.293 899.098 528.608 900.11ZM427.845 888.78C424.681 886.555 421.517 884.127 418.449 881.497L420.846 878.361C423.818 880.89 426.886 883.216 430.05 885.442L427.845 888.78ZM409.629 873.404C406.849 870.673 404.068 867.739 401.48 864.603L404.356 861.872C406.945 864.907 409.629 867.739 412.314 870.47L409.629 873.404ZM393.906 855.297C391.509 852.161 389.208 848.822 387.003 845.383L390.167 843.056C392.372 846.395 394.577 849.632 396.974 852.666L393.906 855.297ZM380.675 835.065C376.936 828.489 375.115 824.342 375.019 824.14L378.47 822.42C378.47 822.42 380.292 826.669 383.935 832.94L380.675 835.065Z" fill="white"/>
</g>
<g opacity="0.4">
<path opacity="0.4" d="M643.273 792.983L640.972 789.745C640.972 789.745 644.328 787.014 649.985 782.159L652.381 785.294C646.629 790.251 643.273 792.983 643.273 792.983ZM661.202 777.404L658.709 774.369C661.585 771.739 664.461 769.109 667.338 766.378L669.926 769.412C667.05 772.043 664.078 774.774 661.202 777.404ZM678.459 761.219L675.87 758.285C678.651 755.554 681.527 752.822 684.307 749.99L686.992 752.924C684.116 755.655 681.335 758.487 678.459 761.219ZM695.333 744.426L692.648 741.493C695.333 738.66 698.113 735.828 700.798 732.894L703.482 735.727C700.798 738.66 698.017 741.594 695.333 744.426ZM711.535 727.027L708.755 724.194C711.44 721.261 714.028 718.327 716.617 715.394L719.397 718.125C716.904 721.059 714.22 724.093 711.535 727.027ZM727.163 709.122L724.287 706.39C726.875 703.356 729.368 700.321 731.861 697.286L734.737 699.916C732.34 702.951 729.751 706.087 727.163 709.122ZM742.215 690.509L739.243 687.98C741.64 684.844 744.037 681.607 746.338 678.471L749.406 681C747.009 684.136 744.612 687.373 742.215 690.509ZM756.309 671.288L753.241 668.861C755.541 665.623 757.747 662.285 759.952 659.048L763.116 661.375C760.91 664.612 758.61 667.95 756.309 671.288ZM769.539 651.158L766.279 648.932C768.389 645.493 770.402 642.053 772.415 638.715L775.675 640.84C773.758 644.279 771.648 647.718 769.539 651.158ZM781.523 630.319L778.168 628.397C780.085 624.856 781.907 621.215 783.537 617.775L786.988 619.596C785.262 623.036 783.441 626.677 781.523 630.319ZM791.974 608.469L788.522 606.85C790.152 603.107 791.59 599.364 792.932 595.723L796.48 597.24C795.137 600.882 793.603 604.726 791.974 608.469ZM800.506 585.708L796.863 584.393C798.109 580.549 799.164 576.705 800.123 572.861L803.862 573.872C802.807 577.716 801.657 581.763 800.506 585.708ZM806.259 561.936L802.52 561.227C803.191 557.282 803.766 553.236 804.15 549.392L807.984 549.796C807.601 553.742 807.026 557.889 806.259 561.936ZM808.656 537.455L804.821 537.354C804.821 536.646 804.821 535.837 804.821 535.128C804.821 531.891 804.725 528.654 804.437 525.417L808.272 525.114C808.56 528.351 808.656 531.79 808.656 535.128C808.751 535.938 808.751 536.747 808.656 537.455ZM803.095 513.683C802.424 509.738 801.561 505.893 800.506 502.049L804.15 500.937C805.204 504.882 806.163 508.928 806.834 512.975L803.095 513.683ZM796.767 490.821C795.617 487.988 794.466 485.156 793.124 482.425L791.974 479.997L795.425 478.176L796.575 480.604C797.918 483.436 799.26 486.37 800.41 489.303L796.767 490.821ZM786.605 469.173L781.427 458.349L784.879 456.528L790.056 467.352L786.605 469.173ZM776.25 447.525L771.073 436.701L774.525 434.88L779.702 445.704L776.25 447.525ZM765.8 425.978L760.623 415.154L764.074 413.333L769.251 424.157L765.8 425.978ZM755.35 404.33L750.173 393.506L753.624 391.685L758.801 402.509L755.35 404.33ZM744.995 382.581C743.174 378.737 741.448 375.196 739.818 371.757L743.27 369.936C744.9 373.375 746.625 376.916 748.447 380.76L744.995 382.581ZM734.737 360.933C732.819 356.988 731.19 353.346 729.56 350.109L733.011 348.288C734.545 351.626 736.271 355.167 738.188 359.112L734.737 360.933ZM724.478 339.184C722.369 334.733 720.739 331.192 719.397 328.258L722.849 326.438C724.191 329.27 725.821 332.912 727.93 337.262L724.478 339.184Z" fill="white"/>
</g>
<g opacity="0.4">
<path opacity="0.4" d="M646.054 866.525L644.328 862.883C644.328 862.883 648.067 860.961 654.395 857.117L656.312 860.658C649.889 864.502 646.245 866.424 646.054 866.525ZM666.379 854.487L664.366 851.048C667.625 849.025 670.885 846.799 674.145 844.574L676.254 848.013C672.898 850.137 669.639 852.363 666.379 854.487ZM685.841 841.235L683.732 837.897C686.896 835.672 690.06 833.345 693.128 831.018L695.333 834.357C692.265 836.582 689.005 838.909 685.841 841.235ZM704.728 827.073L702.427 823.836C705.495 821.408 708.563 818.98 711.535 816.451L713.932 819.587C710.864 822.116 707.796 824.645 704.728 827.073ZM722.848 811.899L720.452 808.763C723.424 806.234 726.396 803.604 729.176 800.974L731.669 804.009C728.793 806.74 725.821 809.37 722.848 811.899ZM740.393 796.017L737.805 792.983C740.585 790.251 743.461 787.52 746.242 784.789L748.926 787.722C746.05 790.454 743.174 793.286 740.393 796.017ZM757.075 779.225L754.391 776.393C757.075 773.56 759.76 770.626 762.444 767.693L765.225 770.525C762.54 773.358 759.856 776.291 757.075 779.225ZM773.086 761.522L770.21 758.791C772.799 755.756 775.291 752.721 777.784 749.687L780.66 752.317C778.264 755.453 775.675 758.487 773.086 761.522ZM788.138 743.01L785.166 740.481C787.563 737.345 789.96 734.209 792.261 730.972L795.329 733.4C793.028 736.738 790.535 739.874 788.138 743.01ZM802.232 723.79L799.164 721.362C801.465 718.125 803.67 714.787 805.779 711.55L808.943 713.876C806.834 717.113 804.533 720.452 802.232 723.79ZM815.367 703.659L812.107 701.434C814.216 698.095 816.229 694.656 818.147 691.217L821.407 693.341C819.585 696.78 817.476 700.22 815.367 703.659ZM827.351 682.821L823.995 680.797C825.913 677.358 827.734 673.716 829.46 670.176L832.816 672.098C831.186 675.638 829.268 679.28 827.351 682.821ZM838.185 661.274L834.733 659.453C836.363 655.811 838.089 652.169 839.623 648.528L843.074 650.146C841.54 653.889 839.91 657.632 838.185 661.274ZM847.676 639.019L844.129 637.501C845.567 633.758 847.005 630.016 848.347 626.273L851.894 627.689C850.648 631.432 849.21 635.276 847.676 639.019ZM855.921 616.157L852.278 614.842C853.524 610.998 854.675 607.154 855.825 603.411L859.469 604.625C858.318 608.469 857.168 612.313 855.921 616.157ZM862.728 592.89L858.989 591.777C859.948 587.933 860.907 583.988 861.865 580.043L865.604 580.953C864.646 585 863.687 588.945 862.728 592.89ZM868.097 569.118L864.358 568.309C865.125 564.363 865.796 560.418 866.467 556.473L870.206 557.181C869.535 561.126 868.864 565.173 868.097 569.118ZM871.932 545.143L868.097 544.536C868.577 540.591 869.056 536.545 869.535 532.599L873.37 533.004C872.987 537.05 872.507 541.097 871.932 545.143ZM874.425 520.865L870.59 520.562C870.686 518.842 870.877 517.122 870.973 515.402C871.069 513.177 871.165 510.85 871.165 508.625H875C875 510.951 874.904 513.379 874.808 515.706C874.712 517.426 874.617 519.145 874.425 520.865ZM870.686 496.688C870.398 492.844 869.823 488.798 869.152 484.852L872.891 484.144C873.562 488.292 874.041 492.338 874.425 496.385L870.686 496.688ZM866.851 473.017C865.988 469.274 865.029 465.329 863.879 461.384L867.522 460.271C868.672 464.216 869.631 468.262 870.59 472.106L866.851 473.017ZM860.331 449.953C859.085 446.311 857.743 442.467 856.305 438.623L859.852 437.105C861.29 440.949 862.728 444.794 863.975 448.536L860.331 449.953ZM851.894 427.495C850.36 423.854 848.731 420.212 847.101 416.57L850.552 414.85C852.278 418.593 853.908 422.336 855.442 425.978L851.894 427.495ZM842.02 405.746C840.294 402.206 838.472 398.665 836.651 395.023L840.006 393.101C841.924 396.743 843.745 400.284 845.471 403.925L842.02 405.746ZM830.898 384.503C828.981 381.063 827.063 377.624 825.05 374.083L828.31 371.959C830.323 375.5 832.336 379.04 834.254 382.48L830.898 384.503ZM819.01 363.765C816.996 360.427 814.887 356.988 812.778 353.548L815.942 351.323C818.051 354.762 820.16 358.201 822.269 361.54L819.01 363.765ZM806.354 343.533C804.245 340.195 801.944 336.857 799.739 333.62L802.903 331.293C805.108 334.631 807.409 337.97 809.518 341.308L806.354 343.533ZM793.028 323.807C790.727 320.57 788.426 317.333 786.125 314.096L789.193 311.668C791.494 314.905 793.891 318.143 796.096 321.481L793.028 323.807ZM779.03 304.486C776.634 301.249 774.237 298.113 771.84 294.977L774.812 292.448C777.209 295.483 779.606 298.72 782.098 301.957L779.03 304.486ZM764.458 285.67C764.074 285.266 763.882 285.064 763.882 284.962L765.321 283.647L764.649 281.725C765.896 281.219 766.567 282.029 767.334 283.04L765.608 284.558L765.992 285.468L765.608 284.558L764.458 285.67Z" fill="white"/>
</g>
<g opacity="0.4">
<path opacity="0.4" d="M654.203 191.896C654.203 191.896 652.765 187.142 649.505 181.274L652.861 179.251C656.312 185.624 657.846 190.48 657.846 190.682L654.203 191.896ZM537.237 172.979C533.498 172.979 529.567 172.777 525.636 172.474L525.924 168.427C529.759 168.731 533.594 168.933 537.333 168.933L537.237 172.979ZM548.838 172.676L548.55 168.63C552.385 168.326 556.22 167.921 559.767 167.213L560.438 171.159C556.795 171.867 552.864 172.372 548.838 172.676ZM643.177 171.563C640.685 168.427 638 165.797 635.22 163.47L637.521 160.233C640.589 162.661 643.465 165.595 646.149 168.933L643.177 171.563ZM514.036 171.159C510.296 170.653 506.366 169.945 502.627 169.135L503.394 165.19C507.133 165.999 510.968 166.606 514.611 167.213L514.036 171.159ZM571.943 168.528L570.889 164.684C574.628 163.572 578.175 162.155 581.435 160.638L583.065 164.28C579.517 165.898 575.778 167.315 571.943 168.528ZM491.218 166.404C487.479 165.393 483.739 164.381 480 163.167L481.151 159.323C484.794 160.436 488.533 161.548 492.176 162.56L491.218 166.404ZM469.071 159.424C465.428 158.008 461.784 156.592 458.237 155.074L459.675 151.331C463.127 152.849 466.77 154.265 470.317 155.681L469.071 159.424ZM593.323 159.323L591.981 155.58C595.912 154.063 599.747 152.95 603.39 152.242L604.061 156.187C600.609 156.794 596.966 157.806 593.323 159.323ZM625.633 157.907C622.277 156.592 618.634 155.681 614.991 155.479L615.278 151.433C619.305 151.736 623.236 152.646 626.975 154.164L625.633 157.907ZM447.595 150.016C444.048 148.297 440.596 146.375 437.241 144.453L439.062 140.912C442.322 142.834 445.773 144.655 449.225 146.375L447.595 150.016ZM427.174 138.282C423.818 136.056 420.559 133.73 417.491 131.403L419.696 128.166C422.668 130.493 425.832 132.718 429.091 134.843L427.174 138.282ZM408.383 123.816C405.315 121.085 402.439 118.252 399.85 115.42L402.63 112.588C405.123 115.319 407.903 118.05 410.875 120.781L408.383 123.816ZM392.18 106.113C389.687 102.674 387.578 99.2346 385.757 95.694L389.112 93.772C390.838 97.1102 392.947 100.448 395.248 103.686L392.18 106.113Z" fill="white"/>
</g>
<g opacity="0.4">
<path opacity="0.4" d="M693.703 158.412C693.703 158.412 691.69 154.164 688.142 147.892L691.402 145.767C695.045 152.14 697.058 156.389 697.154 156.591L693.703 158.412ZM682.006 137.776C679.801 134.438 677.596 131.099 675.295 128.065L678.363 125.637C680.664 128.773 682.965 132.111 685.17 135.55L682.006 137.776ZM668.009 118.758C665.42 115.723 662.736 112.79 660.147 110.159L662.736 107.226C665.42 109.957 668.2 112.891 670.885 116.128L668.009 118.758ZM559.096 102.876C557.466 102.876 555.836 102.876 554.111 102.775L554.207 98.7285C558.137 98.8297 561.972 98.8297 565.52 98.6273L565.711 102.674C563.602 102.775 561.301 102.876 559.096 102.876ZM651.518 102.471C648.355 99.9424 645.191 97.8181 642.123 95.9972L643.944 92.4567C647.204 94.3787 650.56 96.6042 653.819 99.2343L651.518 102.471ZM542.51 101.864C538.771 101.46 534.936 100.853 531.005 100.246L531.676 96.3007C535.511 97.0088 539.346 97.5146 542.989 97.9192L542.51 101.864ZM577.408 101.359L576.833 97.4134C580.668 96.8065 584.407 95.8961 587.762 94.7833L588.913 98.6273C585.366 99.7401 581.435 100.651 577.408 101.359ZM519.596 97.9192C515.857 97.11 512.118 96.0984 508.283 94.9856L509.242 91.0404C512.981 92.052 516.72 93.0636 520.363 93.8729L519.596 97.9192ZM599.747 93.8729L598.117 90.2312C601.856 88.4103 605.595 86.9941 609.43 86.1848L610.197 90.13C606.745 90.8381 603.198 92.1532 599.747 93.8729ZM497.162 91.5462C493.519 90.3323 489.779 89.0173 486.232 87.601L487.574 83.757C491.122 85.1732 494.765 86.3871 498.408 87.601L497.162 91.5462ZM631.96 91.3439C628.317 90.13 624.674 89.4219 621.126 89.2196L621.318 85.1732C625.153 85.3755 629.18 86.1848 633.015 87.4999L631.96 91.3439ZM475.398 83.2512C471.851 81.7338 468.208 80.1153 464.756 78.3956L466.386 74.7538C469.838 76.3724 473.385 77.9909 476.837 79.5083L475.398 83.2512ZM454.306 73.0341C450.855 71.2133 447.403 69.1901 444.144 67.2681L446.061 63.7275C449.321 65.6495 452.676 67.5716 456.128 69.4936L454.306 73.0341ZM434.173 60.9962C430.817 58.7707 427.557 56.4441 424.489 54.1174L426.695 50.7792C429.667 53.0047 432.926 55.3313 436.186 57.4557L434.173 60.9962ZM415.286 46.6317C412.218 44.0015 409.246 41.2702 406.561 38.5389L409.246 35.6053C411.93 38.2355 414.806 40.8656 417.778 43.4957L415.286 46.6317ZM398.412 29.7381C395.727 26.501 393.331 23.1628 391.221 19.9257L394.385 17.7002C396.399 20.8361 398.699 23.972 401.288 27.108L398.412 29.7381Z" fill="white"/>
</g>
</g>
</svg>
