<svg width="2858" height="2858" viewBox="0 0 2858 2858" fill="none" xmlns="http://www.w3.org/2000/svg">
<mask id="mask0_775_580" style="mask-type:alpha" maskUnits="userSpaceOnUse" x="0" y="0" width="2858" height="2858">
<circle cx="1429" cy="1429" r="1429" fill="#C4C4C4"/>
</mask>
<g mask="url(#mask0_775_580)">
<path d="M3132.33 -162.173H-274.332V2858H3132.33V-162.173Z" fill="#D1A284" fill-opacity="0.59"/>
<path opacity="0.31" d="M2757.83 1029.64C2955.13 1574.19 3002.76 2312.24 3002.76 2738.94H-120.013C-120.013 2358.55 -88.7536 1739.48 59.7201 1221.26C154.766 1237.31 278.756 1280.88 347.311 1378.89C463.778 1545.39 760.041 1877.41 1030.83 1944.2C1301.61 2011 2043.36 1810.62 2167.84 1633.47C2209.64 1573.99 2243.96 1502.71 2277.45 1433.21C2343.66 1295.74 2406.52 1165.21 2517.24 1146.57C2602.22 1132.26 2690.73 1079.97 2757.83 1029.64Z" fill="white"/>
<path d="M3017.32 2718.61H-150.586C-159.43 2718.61 -166.6 2728.15 -166.6 2739.91C-166.6 2751.67 -159.43 2761.2 -150.586 2761.2H3017.32C3026.16 2761.2 3033.33 2751.67 3033.33 2739.91C3033.33 2728.15 3026.16 2718.61 3017.32 2718.61Z" fill="#C4C7E9"/>
<path d="M246.102 2148.55C257.086 2110.43 256.255 1987.45 165.057 1800.63C73.8584 1613.81 54.8204 1507.43 56.6999 1477.6" stroke="#067B78" stroke-width="0.745717"/>
<path d="M46.5087 1447.53C45.7313 1424.83 49.4306 1419.17 54.2218 1418.88C59.0144 1418.59 63.0835 1423.78 63.8609 1446.48C64.6383 1469.18 59.3813 1487.94 56.5933 1488.1C53.804 1488.27 47.2862 1470.23 46.5087 1447.53Z" fill="#067B78"/>
<path d="M85.2268 1549.21C90.6745 1517.9 97.332 1512.07 103.94 1514.11C110.547 1516.14 114.603 1525.26 109.155 1556.57C103.707 1587.87 91.1724 1610.75 87.3261 1609.57C83.4812 1608.39 79.779 1580.51 85.2268 1549.21Z" fill="#067B78"/>
<path d="M123.582 1652.92C129.03 1621.62 135.687 1615.79 142.295 1617.82C148.903 1619.85 152.958 1628.98 147.51 1660.29C142.062 1691.59 129.527 1714.47 125.683 1713.28C121.836 1712.1 118.134 1684.22 123.582 1652.92Z" fill="#067B78"/>
<path d="M173.194 1768.93C178.642 1737.62 185.3 1731.79 191.908 1733.83C198.516 1735.86 202.57 1744.99 197.124 1776.29C191.676 1807.6 179.141 1830.48 175.295 1829.28C171.449 1828.1 167.747 1800.22 173.194 1768.93Z" fill="#067B78"/>
<path d="M222.807 1884.94C228.254 1853.64 234.913 1847.81 241.52 1849.84C248.128 1851.88 252.184 1861 246.736 1892.3C241.288 1923.61 228.754 1946.49 224.907 1945.29C221.062 1944.11 217.359 1916.23 222.807 1884.94Z" fill="#067B78"/>
<path d="M256.323 2020C266.271 1990.71 273.658 1986.72 279.838 1990.43C286.019 1994.15 288.653 2004.16 278.707 2033.43C268.759 2062.73 253.1 2081.89 249.502 2079.74C245.905 2077.57 246.375 2049.27 256.323 2020Z" fill="#067B78"/>
<path d="M51.8924 1568.98C30.7376 1553.46 23.0275 1556.15 19.7518 1564.05C16.4747 1571.94 18.871 1582.05 40.0273 1597.58C61.1821 1613.1 82.3588 1615.98 84.2659 1611.39C86.1731 1606.79 73.0487 1584.5 51.8924 1568.98Z" fill="#067B78"/>
<path d="M92.2321 1671.52C71.0758 1656 63.3671 1658.69 60.09 1666.59C56.8129 1674.48 59.2107 1684.59 80.3655 1700.11C101.522 1715.64 122.697 1718.52 124.604 1713.92C126.511 1709.33 113.387 1687.04 92.2321 1671.52Z" fill="#067B78"/>
<path d="M141.844 1787.53C120.69 1772 112.98 1774.69 109.702 1782.59C106.425 1790.49 108.823 1800.59 129.978 1816.12C151.134 1831.65 172.309 1834.53 174.217 1829.92C176.124 1825.34 162.999 1803.05 141.844 1787.53Z" fill="#067B78"/>
<path d="M191.456 1903.53C170.301 1888.01 162.591 1890.7 159.314 1898.6C156.039 1906.49 158.435 1916.6 179.591 1932.13C200.746 1947.65 221.921 1950.54 223.828 1945.95C225.735 1941.34 212.613 1919.06 191.456 1903.53Z" fill="#067B78"/>
<path d="M222.843 2030.09C204.38 2009.35 196.423 2009.99 192.048 2016.88C187.673 2023.78 188.537 2034.31 206.999 2055.04C225.462 2075.76 245.805 2084.1 248.351 2080.09C250.897 2076.07 241.306 2050.8 222.843 2030.09Z" fill="#067B78"/>
<path d="M2615.41 2148.55C2604.42 2110.43 2605.25 1987.45 2696.45 1800.63C2787.65 1613.81 2806.69 1507.43 2804.81 1477.6" stroke="#067B78" stroke-width="0.745717"/>
<path d="M2814.99 1447.53C2815.77 1424.83 2812.08 1419.17 2807.29 1418.88C2802.5 1418.59 2798.42 1423.78 2797.65 1446.48C2796.86 1469.18 2802.12 1487.94 2804.91 1488.1C2807.7 1488.27 2814.22 1470.23 2814.99 1447.53Z" fill="#067B78"/>
<path d="M2776.28 1549.21C2770.83 1517.9 2764.18 1512.07 2757.57 1514.11C2750.96 1516.14 2746.9 1525.26 2752.34 1556.57C2757.8 1587.87 2770.34 1610.75 2774.18 1609.57C2778.02 1608.39 2781.72 1580.51 2776.28 1549.21Z" fill="#067B78"/>
<path d="M2737.92 1652.92C2732.47 1621.62 2725.82 1615.79 2719.21 1617.82C2712.6 1619.85 2708.55 1628.98 2714 1660.29C2719.44 1691.59 2731.98 1714.47 2735.82 1713.28C2739.66 1712.1 2743.38 1684.22 2737.92 1652.92Z" fill="#067B78"/>
<path d="M2688.32 1768.93C2682.86 1737.62 2676.2 1731.79 2669.59 1733.83C2662.98 1735.86 2658.94 1744.99 2664.38 1776.29C2669.83 1807.6 2682.36 1830.48 2686.2 1829.28C2690.05 1828.1 2693.76 1800.22 2688.32 1768.93Z" fill="#067B78"/>
<path d="M2638.7 1884.94C2633.26 1853.64 2626.59 1847.81 2619.98 1849.84C2613.38 1851.88 2609.32 1861 2614.77 1892.3C2620.21 1923.61 2632.75 1946.49 2636.6 1945.29C2640.45 1944.11 2644.15 1916.23 2638.7 1884.94Z" fill="#067B78"/>
<path d="M2605.19 2020C2595.23 1990.71 2587.85 1986.72 2581.66 1990.43C2575.49 1994.15 2572.85 2004.16 2582.8 2033.43C2592.74 2062.73 2608.4 2081.89 2612 2079.74C2615.6 2077.57 2615.13 2049.27 2605.19 2020Z" fill="#067B78"/>
<path d="M2809.62 1568.98C2830.77 1553.46 2838.47 1556.15 2841.75 1564.05C2845.04 1571.94 2842.63 1582.05 2821.48 1597.58C2800.33 1613.1 2779.15 1615.98 2777.24 1611.39C2775.33 1606.79 2788.46 1584.5 2809.62 1568.98Z" fill="#067B78"/>
<path d="M2769.27 1671.52C2790.43 1656 2798.14 1658.69 2801.42 1666.59C2804.7 1674.48 2802.29 1684.59 2781.14 1700.11C2759.99 1715.64 2738.8 1718.52 2736.9 1713.92C2734.99 1709.33 2748.12 1687.04 2769.27 1671.52Z" fill="#067B78"/>
<path d="M2719.66 1787.53C2740.81 1772 2748.53 1774.69 2751.8 1782.59C2755.08 1790.49 2752.68 1800.59 2731.52 1816.12C2710.37 1831.65 2689.19 1834.53 2687.28 1829.92C2685.37 1825.34 2698.51 1803.05 2719.66 1787.53Z" fill="#067B78"/>
<path d="M2670.04 1903.53C2691.2 1888.01 2698.91 1890.7 2702.19 1898.6C2705.47 1906.49 2703.06 1916.6 2681.91 1932.13C2660.76 1947.65 2639.59 1950.54 2637.68 1945.95C2635.77 1941.34 2648.89 1919.06 2670.04 1903.53Z" fill="#067B78"/>
<path d="M2638.66 2030.09C2657.13 2009.35 2665.08 2009.99 2669.46 2016.88C2673.83 2023.78 2672.97 2034.31 2654.51 2055.04C2636.04 2075.76 2615.7 2084.1 2613.15 2080.09C2610.6 2076.07 2620.2 2050.8 2638.66 2030.09Z" fill="#067B78"/>
<path d="M665.583 2648.49C741.761 2592.94 722.408 2351.22 622.357 2108.6C522.306 1865.98 379.443 1714.33 303.265 1769.89C227.087 1825.44 246.44 2067.16 346.491 2309.78C446.542 2552.4 589.404 2704.05 665.583 2648.49Z" fill="#067B78"/>
<path d="M415.363 2041.76L422.613 1953.23M664.935 2646.96L623.425 2546.28L664.935 2646.96ZM384.616 1967.18L415.363 2041.76L384.616 1967.18ZM623.425 2546.28L667.346 2388.98L623.425 2546.28ZM623.425 2546.28L572.434 2422.65L623.425 2546.28ZM572.434 2422.65L451.689 2420.17L572.434 2422.65ZM572.434 2422.65L520.676 2297.12L572.434 2422.65ZM520.676 2297.12L572.042 2141.68L520.676 2297.12ZM520.676 2297.12L464.304 2160.44L520.676 2297.12ZM464.304 2160.44L356.49 2134.8L464.304 2160.44ZM464.304 2160.44L415.363 2041.76L464.304 2160.44Z" stroke="white" stroke-width="9.08037" stroke-linecap="round"/>
<path d="M2240.54 2108.59C2140.48 2351.21 2121.14 2592.92 2197.32 2648.49C2273.49 2704.03 2416.35 2552.38 2516.41 2309.78C2616.46 2067.16 2635.8 1825.43 2559.63 1769.88C2483.45 1714.33 2340.59 1865.97 2240.54 2108.59Z" fill="#067B78"/>
<path d="M2447.53 2041.76L2440.28 1953.23M2197.96 2646.96L2239.47 2546.28L2197.96 2646.96ZM2478.28 1967.18L2447.53 2041.76L2478.28 1967.18ZM2239.47 2546.28L2195.54 2388.98L2239.47 2546.28ZM2239.47 2546.28L2290.46 2422.65L2239.47 2546.28ZM2290.46 2422.65L2411.21 2420.17L2290.46 2422.65ZM2290.46 2422.65L2342.22 2297.12L2290.46 2422.65ZM2342.22 2297.12L2290.86 2141.68L2342.22 2297.12ZM2342.22 2297.12L2398.59 2160.44L2342.22 2297.12ZM2398.59 2160.44L2506.41 2134.8L2398.59 2160.44ZM2398.59 2160.44L2447.53 2041.76L2398.59 2160.44Z" stroke="white" stroke-width="9.08037" stroke-linecap="round"/>
<path fill-rule="evenodd" clip-rule="evenodd" d="M385.768 2689.18C463.951 2609.71 411.311 2343.43 268.193 2094.42C125.074 1845.43 -54.3259 1707.99 -132.509 1787.45C-198.069 1854.08 -140.197 2116.61 -45.5676 2325.62L48.3282 2323.33C52.0042 2323.26 52.5429 2330.34 48.9295 2331.23L-32.6645 2351.35C110.455 2600.36 307.585 2768.63 385.768 2689.18Z" fill="#21C3C5"/>
<path d="M27.8481 2066.48L24.622 1965.71M384.848 2687.61L325.47 2584.31L384.848 2687.61ZM-16.1357 1989.95L27.8481 2066.48L-16.1357 1989.95ZM325.47 2584.31L354.496 2398.2L325.47 2584.31ZM325.47 2584.31L252.531 2457.4L325.47 2584.31ZM252.531 2457.4L117.01 2481.99L252.531 2457.4ZM252.531 2457.4L178.493 2328.58L252.531 2457.4ZM178.493 2328.58L216.091 2142.86L178.493 2328.58ZM178.493 2328.58L97.8551 2188.28L178.493 2328.58ZM97.8551 2188.28L-26.1533 2184L97.8551 2188.28ZM97.8551 2188.28L27.8481 2066.48L97.8551 2188.28Z" stroke="#067B78" stroke-width="10.2848" stroke-linecap="round"/>
<path fill-rule="evenodd" clip-rule="evenodd" d="M2477.13 2689.18C2398.94 2609.71 2451.58 2343.43 2594.71 2094.42C2737.81 1845.43 2917.22 1707.99 2995.4 1787.45C3060.97 1854.08 3003.1 2116.61 2908.47 2325.62L2814.57 2323.33C2810.9 2323.26 2810.34 2330.34 2813.97 2331.23L2895.56 2351.35C2752.45 2600.36 2555.31 2768.63 2477.13 2689.18Z" fill="#21C3C5"/>
<path d="M2835.05 2066.48L2838.27 1965.71M2478.05 2687.61L2537.42 2584.31L2478.05 2687.61ZM2879.03 1989.95L2835.05 2066.48L2879.03 1989.95ZM2537.42 2584.31L2508.4 2398.2L2537.42 2584.31ZM2537.42 2584.31L2610.37 2457.4L2537.42 2584.31ZM2610.37 2457.4L2745.88 2481.99L2610.37 2457.4ZM2610.37 2457.4L2684.4 2328.58L2610.37 2457.4ZM2684.4 2328.58L2646.81 2142.86L2684.4 2328.58ZM2684.4 2328.58L2765.04 2188.28L2684.4 2328.58ZM2765.04 2188.28L2889.05 2184L2765.04 2188.28ZM2765.04 2188.28L2835.05 2066.48L2765.04 2188.28Z" stroke="#067B78" stroke-width="10.2848" stroke-linecap="round"/>
<path d="M109.366 2431.07C-32.8386 2472.27 -73.688 2639.93 -76.3376 2718.61H2980.93C2963.59 2528.22 2824.84 2360.18 2719.35 2336.85C2613.85 2313.54 2605.9 2360.18 2512.68 2360.18C2419.48 2360.18 2399.24 2321.32 2297.36 2253.31C2215.85 2198.93 2093.34 2275.98 2042.29 2321.32L967.799 2360.18C928.058 2360.82 837.301 2353.94 792.212 2321.32C735.849 2280.51 703.333 2333.94 594.946 2336.85C486.557 2339.77 489.448 2247.48 377.446 2253.31C265.445 2259.14 287.123 2379.6 109.366 2431.07Z" fill="#1BA39F"/>
<path d="M870.309 552.218H870.309C847.195 552.218 828.458 577.136 828.458 607.873V830.492C828.458 861.229 847.195 886.147 870.309 886.147C893.423 886.147 912.161 861.229 912.161 830.492V607.873C912.161 577.136 893.423 552.218 870.309 552.218Z" fill="white"/>
<path d="M995.863 719.18V719.18C995.863 688.443 977.125 663.525 954.012 663.525H786.607C763.493 663.525 744.755 688.443 744.755 719.18V719.18C744.755 749.918 763.493 774.835 786.607 774.835H954.012C977.125 774.835 995.863 749.918 995.863 719.18Z" fill="white"/>
<path d="M1110.19 351.36C1110.19 338.259 1102.2 327.638 1092.35 327.638C1082.5 327.638 1074.51 338.259 1074.51 351.36V446.245C1074.51 459.346 1082.5 469.967 1092.35 469.967C1102.2 469.967 1110.19 459.346 1110.19 446.245V351.36Z" fill="white"/>
<path d="M1128.03 422.523C1137.88 422.523 1145.86 411.903 1145.86 398.802C1145.86 385.701 1137.88 375.081 1128.03 375.081H1056.67C1046.82 375.081 1038.84 385.701 1038.84 398.802C1038.84 411.903 1046.82 422.523 1056.67 422.523H1128.03Z" fill="white"/>
<path d="M1453.49 2648.88C1896.21 2648.88 2255.1 2171.62 2255.1 1582.88C2255.1 994.141 1896.21 516.874 1453.49 516.874C1010.77 516.874 651.872 994.141 651.872 1582.88C651.872 2171.62 1010.77 2648.88 1453.49 2648.88Z" fill="#5ADAF1"/>
<path d="M1357.27 2503.1C1827.37 2503.1 2208.45 2077.09 2208.45 1551.58C2208.45 1289.25 2113.49 1051.72 1959.9 879.59C1827.88 785.482 1671.08 730.952 1502.89 730.952C1032.8 730.952 651.711 1156.96 651.711 1682.47C651.711 1944.81 746.674 2182.33 900.266 2354.47C1032.29 2448.58 1189.09 2503.1 1357.27 2503.1Z" fill="#74E9FF"/>
<path d="M2246.03 1727.7C2246.89 1728.07 2247.81 1727.32 2247.92 1726.12C2252.66 1679.27 2255.1 1631.45 2255.1 1582.88C2255.1 1336.42 2192.21 1109.49 2086.59 928.932C2086.33 928.475 2085.92 928.202 2085.48 928.189C2061.97 927.41 2037.4 929.131 2018.48 936.12C1995.26 944.697 1978.23 955.277 1962.78 964.864C1945.2 975.787 1929.69 985.421 1909.49 989.33C1871.55 996.667 1848.08 1024.19 1845.33 1045.29C1842.56 1066.39 1883.27 1082.9 1938.46 1072.81C1964.68 1072.81 1974.33 1120.52 1938.46 1119.6C1927.26 1119.31 1914.87 1117.78 1902.5 1116.24C1875.2 1112.86 1848.05 1109.5 1834.29 1119.6C1826.11 1125.6 1815.64 1139.41 1804.45 1154.14V1154.14C1788.27 1175.47 1770.61 1198.74 1756.33 1203.08C1732.19 1210.42 1706.66 1227.85 1702.52 1272.8C1698.39 1317.75 1711.49 1323.26 1722.53 1323.26C1725.82 1323.26 1730.65 1321.87 1735.98 1320.34C1748.53 1316.73 1763.9 1312.31 1768.75 1323.26C1770.5 1327.21 1771.85 1334.99 1773.45 1344.23C1778.17 1371.44 1785.08 1411.29 1810.84 1403.07C1827.49 1397.76 1842.85 1379.18 1856.55 1362.62C1871.21 1344.9 1883.96 1329.49 1894.3 1335.18C1905.31 1341.24 1919.43 1355.61 1932.44 1368.85C1943.1 1379.69 1953.01 1389.77 1959.84 1393.9C1975.01 1403.07 1992.95 1434.26 1972.95 1450.78C1961.95 1459.85 1951.17 1450.64 1938.76 1440.04C1928.59 1431.36 1917.33 1421.74 1903.97 1420.5C1885.93 1418.83 1881.66 1430.72 1876.74 1444.43C1873.58 1453.26 1870.15 1462.85 1862.58 1470.04C1843.26 1488.39 1852.23 1529.67 1882.58 1532.42C1912.94 1535.18 1912.94 1584.71 1873.61 1595.72C1857.82 1600.15 1845.81 1606.94 1835.06 1613.01C1819.09 1622.04 1805.95 1629.47 1787.37 1625.08C1775.18 1622.2 1769.06 1623.42 1764.64 1624.3C1757.83 1625.66 1755.12 1626.2 1740.46 1609.48C1737.7 1606.33 1734.83 1602.68 1731.76 1598.76L1731.74 1598.76C1708 1568.54 1671.92 1522.62 1574.21 1567.28C1535.22 1585.76 1522.44 1616.23 1512.22 1640.6C1506.7 1653.75 1501.92 1665.11 1494.19 1671.87C1472.11 1691.13 1445.2 1806.73 1494.19 1851.68C1503.7 1860.4 1512.93 1867.89 1521.66 1874.97L1521.68 1874.99C1557.94 1904.4 1585.9 1927.09 1591.46 2003.97C1595.61 2061.39 1588.52 2161.7 1582.21 2250.85C1578.03 2309.82 1574.21 2363.91 1574.21 2397.52C1574.21 2481.91 1638.36 2507.6 1712.87 2409.45C1726.98 2392.45 1734.52 2380.37 1741.38 2369.37C1752.31 2351.85 1761.54 2337.06 1792.9 2309.45C1818.29 2287.09 1825.59 2254.05 1832.81 2221.4C1840.09 2188.43 1847.26 2155.89 1872.91 2135.15C1881.24 2128.42 1889.61 2121.89 1897.75 2115.56C1939.53 2083.02 1975.49 2055 1970.88 2025.05C1968.36 2008.75 1949.78 2007.32 1927.89 2005.62C1901.77 2003.6 1870.93 2001.22 1857.05 1972.76C1839.3 1936.4 1853.58 1884.48 1864.17 1846.07C1868.79 1829.25 1872.71 1815.02 1872.91 1805.8C1873.21 1793.14 1875.52 1768.85 1878.23 1744.25C1879.17 1735.67 1887.59 1736.23 1887.85 1744.89C1889.16 1788.49 1889.34 1835 1885.33 1847.1C1884.4 1849.92 1883.34 1852.98 1882.22 1856.2V1856.21C1874.25 1879.1 1863.34 1910.46 1873.61 1930.58C1885.33 1953.5 1919.14 1982.87 1932.94 1972.76C1933.22 1972.57 1933.51 1972.36 1933.8 1972.14L1934.35 1971.74C1934.95 1971.29 1935.57 1970.83 1936.21 1970.36C1950.53 1959.77 1973.91 1942.5 1994.33 1942.5C2016.4 1942.5 2048.14 1939.75 2070.91 1923.24C2080.94 1915.96 2092.59 1910.81 2102.59 1906.4C2115.28 1900.8 2125.33 1896.37 2126.1 1890.21C2126.48 1887.15 2129.24 1880.72 2132.56 1873C2141.26 1852.79 2153.79 1823.65 2137.82 1822.31C2125.85 1821.33 2123.01 1815.46 2119.94 1809.15C2117.36 1803.81 2114.61 1798.15 2106.1 1794.8C2087.46 1787.47 2059.87 1759.93 2052.97 1684.71C2046.07 1609.48 2060.56 1581.96 2070.91 1595.72C2074.43 1600.42 2076.92 1607.99 2080.01 1617.39C2085.98 1635.56 2094.17 1660.53 2116.43 1684.71C2137.48 1707.56 2155.6 1708.36 2175.93 1709.25C2188.24 1709.79 2201.37 1710.36 2216.46 1715.9C2226.89 1719.72 2236.9 1723.78 2246.03 1727.7Z" fill="#1CC6C8"/>
<path d="M1156.46 2573.31C1157.1 2573.66 1157.84 2573.35 1158.21 2572.58C1161.82 2565.14 1165.5 2556.33 1169.2 2547.43C1177.74 2526.93 1186.43 2506.08 1194.78 2501.18C1197.19 2499.78 1199.75 2498.33 1202.38 2496.84H1202.4C1218.69 2487.63 1238.42 2476.47 1247.91 2459.9C1253.08 2450.9 1263.68 2448.71 1275.32 2446.31C1288.58 2443.56 1303.22 2440.54 1312.75 2426.87C1318.14 2419.17 1323.1 2409.04 1328.29 2398.43C1340.37 2373.75 1353.75 2346.41 1376.91 2340.64C1410.03 2332.4 1442.45 2300.28 1454.17 2279.18C1465.91 2258.07 1442.45 2241.56 1400.36 2232.4C1358.29 2223.22 1337.59 2193.86 1341.72 2167.25C1345.87 2140.65 1348.62 2063.6 1298.27 2043.41C1271.86 2032.82 1254.56 2032.08 1241.49 2031.52C1229.64 2031 1221.25 2030.65 1212.72 2023.23C1205.72 2017.14 1200.29 2008.66 1195.12 2000.58C1187.07 1988.02 1179.65 1976.44 1167.88 1976.44C1153.63 1977.66 1123.6 1988 1117.53 2019.56C1115.51 2030.03 1114.13 2042.11 1112.72 2054.42C1108.82 2088.5 1104.73 2124.31 1086.48 2132.39C1061.65 2143.4 1037.5 2181.93 1043.71 2203.03C1045.92 2210.54 1050.05 2222.24 1054.8 2235.69H1054.81C1063.4 2260.01 1074.01 2290.02 1078.89 2311.29C1086.48 2344.32 1096.14 2407.61 1096.14 2440.64C1096.14 2460.99 1107.93 2514.81 1120.69 2552.44C1120.84 2552.87 1121.09 2553.22 1121.41 2553.41C1132.95 2560.4 1144.64 2567.04 1156.46 2573.31Z" fill="#1CC6C8"/>
<path d="M897.051 817.094C896.523 816.811 895.921 816.974 895.514 817.502C745.255 1011.25 651.87 1282.56 651.87 1582.88C651.87 1658.44 657.784 1732.17 669.027 1803.3C669.085 1803.67 669.222 1804 669.422 1804.27C684.681 1824.58 699.355 1843.9 709.128 1856.25C735.46 1889.57 757.008 1887.88 771.546 1886.76C772.625 1886.68 773.664 1886.59 774.666 1886.53C779.921 1886.2 789.085 1895.9 801.592 1909.12C823.554 1932.35 855.832 1966.51 895.39 1976.44C921.882 1983.1 946.742 1999.26 967.503 2012.78C995.399 2030.92 1015.9 2044.26 1023.01 2023.23C1035.43 1986.52 990.59 1958.08 974.034 1951.68C968.185 1949.39 964.919 1942.77 961.102 1935.05C954.117 1920.89 945.287 1902.99 915.396 1901.2C876.61 1898.9 855.311 1874.62 840.902 1858.21C838.142 1855.05 835.632 1852.2 833.303 1849.84C825.159 1841.59 825.954 1824.05 826.74 1806.71C827.353 1793.19 827.96 1779.78 824.335 1770.94C816.057 1750.76 793.982 1728.74 774.666 1732.41C755.35 1736.08 758.799 1695.72 766.387 1667.28C773.184 1641.8 790.498 1642.83 876.828 1647.93H876.832L876.847 1647.93C886.892 1648.53 897.871 1649.18 909.877 1649.85C1025.08 1656.27 1040.95 1598.47 1044.4 1579.21C1045.48 1573.19 1047.49 1568.43 1049.66 1563.33C1054.42 1552.09 1059.88 1539.2 1057.51 1507.65C1054.06 1461.78 1061.65 1446.19 1096.14 1415C1120.01 1393.4 1133.31 1361.27 1145.18 1332.58C1150.47 1319.82 1155.46 1307.74 1160.99 1297.57C1168.95 1282.9 1183.85 1276.19 1198.57 1269.58C1216.99 1261.29 1235.11 1253.14 1238.94 1229.68C1245.84 1187.48 1229.29 1143.45 1210.65 1110.42C1192.03 1077.4 1203.75 1045.29 1219.62 1008.59C1235.49 971.895 1208.59 962.722 1173.4 975.566C1138.22 988.409 1076.82 983.823 1061.65 956.301C1046.47 928.778 1022.32 916.852 1000.25 910.431C995.881 909.161 992.026 908.535 988.433 907.955C973.868 905.596 963.609 903.935 940.921 862.727C927.596 838.525 911.066 824.588 897.051 817.094Z" fill="#1CC6C8"/>
<path d="M1256.19 738.88C1237.79 733.376 1196.17 724.019 1176.85 730.623C1152.71 738.88 1149.95 756.31 1153.4 773.742C1156.85 791.172 1156.16 804.933 1142.36 823.28C1128.56 841.628 1119.59 886.58 1182.37 896.671C1245.14 906.763 1323.79 898.506 1338.97 870.066C1353.65 842.579 1356.06 839.946 1363.06 832.343L1363.81 831.536C1371.39 823.28 1405.2 779.246 1256.19 738.88Z" fill="#1CC6C8"/>
<path d="M1050.61 832.454C1039.57 814.106 1039.57 794.666 1050.61 783.833C1079.58 755.393 1088.55 793.007 1089.93 807.684C1091.31 822.363 1064.41 855.389 1050.61 832.454Z" fill="#1CC6C8"/>
<path d="M1432.1 915.019C1407.82 901.076 1415.08 870.678 1421.75 857.223C1435.55 834.893 1458.73 840.99 1477.68 845.977C1480.54 846.726 1483.29 847.45 1485.91 848.05C1502.11 851.766 1511.53 851.268 1545.31 849.481H1545.32H1545.34C1553.26 849.063 1562.52 848.573 1573.52 848.05C1607.7 846.426 1612.6 851.826 1618.23 858.034C1622.15 862.35 1626.41 867.058 1641.13 870.067C1677 877.406 1685.97 895.754 1679.07 906.764C1677.22 909.708 1674.54 913.18 1671.56 917.036C1663.39 927.591 1653 941.029 1651.48 954.467C1650 967.529 1624.05 981.523 1585.33 1002.4C1569.65 1010.85 1551.9 1020.43 1532.82 1031.53C1466.59 1070.06 1473.49 1011.34 1478.32 980.154C1483.14 948.963 1462.46 932.451 1432.1 915.019Z" fill="#1CC6C8"/>
<path d="M1276.28 1001.16C1276.22 1001.22 1276.17 1001.28 1276.11 1001.35C1271.04 1007.86 1261.58 1025.57 1263.78 1045.29C1266.53 1070.06 1281.71 1081.07 1308.62 1081.07C1335.52 1081.07 1352.07 1092.99 1352.77 1104C1353.46 1115.01 1349.32 1135.19 1312.75 1148.95C1276.2 1162.71 1275.5 1205.83 1308.62 1211.34C1341.72 1216.84 1432.1 1199.41 1437.62 1143.45C1440.95 1109.6 1429.9 1102.94 1418.82 1096.26C1411.57 1091.89 1404.32 1087.52 1401.06 1075.56C1392.78 1045.3 1356.24 927.039 1276.28 1001.16Z" fill="#1CC6C8"/>
<path d="M1006.46 1834.24C986.038 1821.77 978.173 1795.4 976.793 1783.79C974.822 1775.04 980.986 1775.66 987.95 1776.35C991.204 1776.68 994.633 1777.03 997.489 1776.45C1003.49 1775.23 1033.24 1796.97 1055.38 1813.16C1066.36 1821.17 1075.46 1827.83 1078.89 1829.65C1080.03 1830.25 1081.23 1830.87 1082.48 1831.49H1082.49H1082.49H1082.5C1092.57 1836.53 1104.73 1842.59 1096.14 1858.09C1086.48 1875.54 1031.98 1849.84 1006.46 1834.24Z" fill="#1CC6C8"/>
<path d="M1043.71 1915.88C1043.94 1923.84 1047.85 1941.57 1061.65 1948.91C1078.89 1958.09 1117.53 1966.36 1122.35 1951.68C1127.18 1936.99 1097.52 1912.22 1086.48 1915.88C1082.21 1917.32 1074.85 1914.9 1067.42 1912.44C1055.64 1908.57 1043.71 1904.64 1043.71 1915.88Z" fill="#1CC6C8"/>
<path fill-rule="evenodd" clip-rule="evenodd" d="M2099.81 1662.84C2111.7 1589.81 2117.96 1514 2117.96 1436.23C2117.96 1254.78 2083.87 1083.92 2023.74 934.351C2021.95 934.899 2020.19 935.488 2018.48 936.119C1995.26 944.695 1978.23 955.276 1962.78 964.863C1945.2 975.786 1929.69 985.419 1909.48 989.328C1871.55 996.666 1848.08 1024.19 1845.33 1045.29C1842.56 1066.39 1883.27 1082.9 1938.46 1072.81C1964.68 1072.81 1974.33 1120.51 1938.46 1119.6C1927.26 1119.31 1914.87 1117.77 1902.5 1116.24C1875.2 1112.86 1848.05 1109.5 1834.29 1119.6C1826.11 1125.59 1815.64 1139.4 1804.46 1154.13V1154.14L1804.45 1154.14V1154.14C1788.27 1175.47 1770.61 1198.74 1756.33 1203.08C1732.19 1210.42 1706.66 1227.85 1702.52 1272.8C1698.39 1317.75 1711.49 1323.26 1722.53 1323.26C1725.82 1323.26 1730.65 1321.87 1735.98 1320.34V1320.34C1748.53 1316.73 1763.9 1312.31 1768.75 1323.26C1770.5 1327.21 1771.85 1334.99 1773.45 1344.23C1778.17 1371.44 1785.08 1411.29 1810.84 1403.07C1827.49 1397.75 1842.85 1379.17 1856.55 1362.62C1871.21 1344.9 1883.96 1329.49 1894.3 1335.18C1905.31 1341.23 1919.43 1355.61 1932.44 1368.84C1943.1 1379.69 1953.01 1389.77 1959.84 1393.9C1975.01 1403.07 1992.95 1434.26 1972.94 1450.77C1961.95 1459.85 1951.17 1450.64 1938.76 1440.04C1928.59 1431.36 1917.33 1421.74 1903.97 1420.5C1885.93 1418.83 1881.66 1430.72 1876.74 1444.43C1873.58 1453.26 1870.15 1462.85 1862.58 1470.04C1843.26 1488.39 1852.23 1529.67 1882.58 1532.42C1912.94 1535.17 1912.94 1584.71 1873.61 1595.72C1857.82 1600.14 1845.81 1606.94 1835.06 1613C1819.09 1622.04 1805.95 1629.47 1787.37 1625.08C1775.18 1622.2 1769.05 1623.42 1764.64 1624.3C1757.83 1625.66 1755.12 1626.19 1740.46 1609.48C1737.7 1606.33 1734.83 1602.68 1731.76 1598.77V1598.76V1598.76L1731.74 1598.75C1708 1568.54 1671.92 1522.62 1574.21 1567.28C1535.22 1585.76 1522.44 1616.23 1512.22 1640.6C1506.7 1653.74 1501.92 1665.11 1494.19 1671.86C1472.11 1691.13 1445.2 1806.73 1494.19 1851.68C1503.7 1860.39 1512.93 1867.89 1521.66 1874.97L1521.68 1874.99C1557.94 1904.4 1585.9 1927.09 1591.46 2003.97C1595.61 2061.39 1588.52 2161.7 1582.21 2250.85C1578.03 2309.82 1574.21 2363.91 1574.21 2397.52C1574.21 2415.2 1577.03 2430.3 1582.17 2442.24C1670.01 2401.18 1750.87 2340.35 1821.7 2263.76C1826.44 2250.19 1829.63 2235.77 1832.81 2221.4C1840.08 2188.43 1847.26 2155.89 1872.91 2135.15C1881.24 2128.42 1889.61 2121.89 1897.75 2115.56C1939.53 2083.02 1975.49 2055 1970.88 2025.05C1968.36 2008.75 1949.78 2007.32 1927.89 2005.61C1901.77 2003.6 1870.93 2001.22 1857.05 1972.76C1839.3 1936.4 1853.58 1884.48 1864.16 1846.07C1868.79 1829.24 1872.71 1815.01 1872.91 1805.8C1873.21 1793.14 1875.52 1768.85 1878.23 1744.24C1879.17 1735.67 1887.59 1736.23 1887.85 1744.89C1889.16 1788.49 1889.34 1834.99 1885.33 1847.09C1884.4 1849.92 1883.34 1852.98 1882.22 1856.19V1856.21C1874.25 1879.1 1863.33 1910.46 1873.61 1930.57C1885.33 1953.5 1919.14 1982.87 1932.94 1972.76L1933.19 1972.59L1933.54 1972.33L1933.8 1972.14L1934.35 1971.73C1934.95 1971.29 1935.57 1970.82 1936.21 1970.36C1950.52 1959.77 1973.91 1942.5 1994.33 1942.5C2002.73 1942.5 2012.53 1942.09 2022.71 1940.7C2044.69 1886.36 2063.24 1829.21 2077.95 1769.74C2066.67 1752.63 2056.74 1725.78 2052.97 1684.71C2046.07 1609.48 2060.56 1581.96 2070.91 1595.72C2074.43 1600.42 2076.92 1607.99 2080.01 1617.39C2084.17 1630.08 2089.43 1646.1 2099.81 1662.84ZM1209.42 2492.83C1224.02 2484.39 1239.74 2474.15 1247.91 2459.9C1253.08 2450.9 1263.67 2448.71 1275.32 2446.31C1288.58 2443.56 1303.22 2440.54 1312.75 2426.87C1318.14 2419.17 1323.1 2409.04 1328.28 2398.43C1340.37 2373.75 1353.75 2346.41 1376.91 2340.64C1410.03 2332.39 1442.45 2300.28 1454.17 2279.17C1465.91 2258.07 1442.45 2241.56 1400.36 2232.4C1358.29 2223.22 1337.59 2193.85 1341.72 2167.25C1345.87 2140.65 1348.62 2063.6 1298.27 2043.41C1271.86 2032.82 1254.56 2032.08 1241.49 2031.52C1229.64 2031 1221.25 2030.65 1212.72 2023.23C1205.72 2017.13 1200.29 2008.65 1195.12 2000.58C1187.07 1988.02 1179.65 1976.44 1167.88 1976.44C1153.63 1977.66 1123.6 1988 1117.52 2019.55C1115.51 2030.03 1114.13 2042.11 1112.72 2054.42C1108.82 2088.5 1104.72 2124.31 1086.48 2132.38C1061.65 2143.4 1037.5 2181.93 1043.71 2203.03C1045.92 2210.54 1050.05 2222.23 1054.8 2235.69H1054.81C1063.4 2260.01 1074 2290.01 1078.89 2311.29C1086.48 2344.32 1096.14 2407.61 1096.14 2440.64C1096.14 2445.92 1096.93 2453.43 1098.33 2462.34C1134.39 2475.87 1171.48 2486.11 1209.42 2492.83ZM1256.19 738.88C1237.79 733.376 1196.17 724.019 1176.85 730.623C1152.71 738.88 1149.95 756.31 1153.4 773.742C1156.85 791.172 1156.16 804.933 1142.36 823.28C1128.56 841.628 1119.59 886.58 1182.37 896.671C1245.14 906.763 1323.79 898.506 1338.97 870.066C1353.65 842.579 1356.06 839.946 1363.06 832.343L1363.81 831.536C1371.39 823.28 1405.2 779.246 1256.19 738.88ZM895.513 817.503C895.921 816.975 896.522 816.812 897.05 817.095C911.066 824.589 927.595 838.527 940.921 862.729C963.609 903.937 973.868 905.598 988.432 907.956C992.025 908.537 995.88 909.162 1000.25 910.432C1022.32 916.854 1046.47 928.779 1061.65 956.302C1076.82 983.824 1138.22 988.41 1173.4 975.567C1208.59 962.723 1235.49 971.896 1219.62 1008.59C1203.75 1045.29 1192.03 1077.4 1210.65 1110.42C1229.29 1143.45 1245.84 1187.48 1238.94 1229.68C1235.11 1253.14 1216.99 1261.29 1198.57 1269.58C1183.85 1276.2 1168.95 1282.9 1160.99 1297.57C1155.46 1307.74 1150.47 1319.82 1145.18 1332.58C1133.31 1361.27 1120.01 1393.41 1096.14 1415C1061.65 1446.19 1054.06 1461.78 1057.51 1507.65C1059.88 1539.2 1054.42 1552.09 1049.66 1563.33C1047.49 1568.43 1045.48 1573.19 1044.4 1579.21C1040.95 1598.47 1025.08 1656.27 909.876 1649.85C897.87 1649.18 886.892 1648.53 876.846 1647.94L876.832 1647.93H876.827C790.498 1642.83 773.183 1641.8 766.386 1667.28C758.798 1695.72 755.349 1736.08 774.665 1732.41C793.981 1728.74 816.056 1750.76 824.334 1770.94C827.959 1779.78 827.352 1793.2 826.739 1806.71C825.953 1824.06 825.158 1841.6 833.302 1849.84C835.632 1852.21 838.141 1855.05 840.902 1858.21C855.31 1874.62 876.609 1898.9 915.395 1901.21C945.287 1902.99 954.116 1920.89 961.102 1935.05C964.919 1942.77 968.184 1949.39 974.034 1951.68C990.59 1958.09 1035.43 1986.53 1023.01 2023.23C1015.89 2044.26 995.398 2030.92 967.503 2012.78C946.741 1999.26 921.881 1983.1 895.389 1976.44C855.831 1966.51 823.554 1932.36 801.591 1909.12C789.084 1895.9 779.921 1886.2 774.665 1886.53C773.664 1886.59 772.624 1886.69 771.545 1886.76C757.007 1887.89 735.46 1889.57 709.128 1856.25C699.355 1843.9 684.68 1824.58 669.421 1804.27C669.222 1804 669.085 1803.67 669.027 1803.3C657.783 1732.17 651.87 1658.45 651.87 1582.88C651.87 1282.56 745.254 1011.26 895.513 817.503ZM1050.61 783.832C1039.57 794.666 1039.57 814.106 1050.61 832.453C1064.4 855.389 1091.31 822.363 1089.93 807.684C1088.55 793.007 1079.58 755.392 1050.61 783.832ZM1432.1 915.018C1407.82 901.075 1415.08 870.678 1421.75 857.223C1435.55 834.893 1458.73 840.989 1477.68 845.976C1480.54 846.726 1483.29 847.45 1485.91 848.05C1502.11 851.765 1511.53 851.267 1545.31 849.481H1545.32H1545.34C1553.26 849.062 1562.51 848.573 1573.52 848.05C1607.7 846.425 1612.6 851.825 1618.23 858.034C1622.15 862.349 1626.41 867.058 1641.13 870.066C1677 877.406 1685.97 895.753 1679.07 906.763C1677.22 909.708 1674.54 913.179 1671.56 917.036C1663.39 927.591 1652.99 941.029 1651.48 954.466C1650 967.529 1624.05 981.522 1585.33 1002.4C1569.65 1010.85 1551.9 1020.43 1532.82 1031.53C1466.59 1070.06 1473.49 1011.34 1478.32 980.153C1483.14 948.962 1462.45 932.45 1432.1 915.018ZM1276.11 1001.35C1276.17 1001.28 1276.22 1001.22 1276.28 1001.16C1356.24 927.039 1392.78 1045.3 1401.06 1075.56C1404.32 1087.52 1411.57 1091.89 1418.82 1096.26C1429.9 1102.94 1440.95 1109.6 1437.62 1143.45C1432.1 1199.41 1341.72 1216.84 1308.62 1211.34C1275.5 1205.83 1276.19 1162.71 1312.75 1148.95C1349.32 1135.19 1353.46 1115.01 1352.77 1104C1352.07 1092.99 1335.52 1081.07 1308.62 1081.07C1281.71 1081.07 1266.53 1070.06 1263.78 1045.29C1261.58 1025.57 1271.04 1007.86 1276.11 1001.35ZM1006.46 1834.24C986.037 1821.77 978.173 1795.4 976.793 1783.79C974.821 1775.04 980.985 1775.66 987.95 1776.35C991.204 1776.68 994.632 1777.03 997.489 1776.45C1003.49 1775.23 1033.24 1796.97 1055.38 1813.16H1055.38H1055.39L1055.4 1813.18C1066.37 1821.19 1075.47 1827.83 1078.89 1829.65C1080.03 1830.25 1081.23 1830.87 1082.47 1831.49H1082.49H1082.49H1082.5C1092.57 1836.52 1104.73 1842.58 1096.14 1858.09C1086.48 1875.53 1031.98 1849.84 1006.46 1834.24ZM1061.65 1948.91C1047.85 1941.57 1043.94 1923.84 1043.71 1915.88C1043.71 1904.63 1055.64 1908.56 1067.42 1912.43C1074.84 1914.89 1082.21 1917.31 1086.48 1915.88C1097.52 1912.22 1127.18 1936.98 1122.35 1951.68C1117.52 1966.35 1078.89 1958.09 1061.65 1948.91Z" fill="#28D7D9"/>
<path d="M1044.8 900.151L1044.8 900.151C1003.31 864.093 947.688 879.594 920.573 934.773L728.811 1325.01C701.696 1380.19 713.353 1454.16 754.847 1490.21C796.341 1526.27 851.959 1510.77 879.074 1455.59L1070.84 1065.35C1097.95 1010.17 1086.29 936.209 1044.8 900.151Z" fill="#FDC63F"/>
<path d="M1018.85 1171.14L868.591 1040.56L780.796 1219.23L931.058 1349.8L1018.85 1171.14Z" fill="#E9B233"/>
<path d="M979.628 1173.96L882.4 1089.46C878.494 1086.07 873.26 1087.53 870.708 1092.72L817.569 1200.86C815.017 1206.06 816.114 1213.02 820.019 1216.41L917.248 1300.9C921.153 1304.29 926.388 1302.84 928.94 1297.64L982.079 1189.5C984.631 1184.31 983.534 1177.35 979.628 1173.96Z" fill="#FDE3A2"/>
<path d="M2753.09 2666.96V2358.16H2689.03V2666.96H2753.09Z" fill="#4FA5FE"/>
<path d="M2773.1 2666.96C2784.16 2666.96 2793.12 2678.87 2793.12 2693.58C2793.12 2708.28 2784.16 2720.2 2773.1 2720.2L2673.01 2720.2C2661.96 2720.2 2653 2708.28 2653 2693.58C2653 2678.87 2661.96 2666.96 2673.02 2666.96L2773.1 2666.96Z" fill="#0353A7"/>
<path d="M2797.13 1719.28V1703.31C2797.13 1688.61 2788.16 1676.69 2777.11 1676.69H2657C2645.95 1676.69 2636.98 1688.61 2636.98 1703.31V1719.28H2797.13Z" fill="#0353A7"/>
<path d="M2753.09 1676.69V1660.72C2753.09 1646.02 2744.12 1634.1 2733.07 1634.1H2701.04C2689.99 1634.1 2681.02 1646.02 2681.02 1660.72V1676.69H2753.09Z" fill="#5283E9"/>
<path d="M2857.18 2422.05V2379.46C2857.18 2367.7 2850.01 2358.16 2841.16 2358.16H2600.95C2592.11 2358.16 2584.94 2367.7 2584.94 2379.46V2422.05C2584.94 2433.81 2592.11 2443.35 2600.95 2443.35H2841.16C2850.01 2443.35 2857.18 2433.81 2857.18 2422.05Z" fill="#0353A7"/>
<path fill-rule="evenodd" clip-rule="evenodd" d="M2585.26 2426.27C2585.04 2424.92 2584.94 2423.5 2584.94 2422.05V2379.46C2584.94 2367.71 2592.1 2358.16 2600.95 2358.16H2836.48C2836.69 2359.54 2836.8 2360.93 2836.8 2362.38V2404.97C2836.8 2416.75 2829.63 2426.27 2820.78 2426.27H2585.26Z" fill="#0E65C0"/>
<path d="M2805.13 1719.29C2813.97 1719.29 2821.15 1728.82 2821.15 1740.58V2358.17H2620.97V1740.58C2620.97 1728.82 2628.13 1719.29 2636.98 1719.29H2805.13Z" fill="#EDF6FF"/>
<path fill-rule="evenodd" clip-rule="evenodd" d="M2753.09 2358.17H2620.97V1740.58C2620.97 1730.13 2626.63 1721.43 2634.11 1719.63H2737.07C2745.92 1719.63 2753.09 1729.17 2753.09 1740.93V2358.17Z" fill="white"/>
<path d="M2724.64 1057.98C2724.91 1058.72 2725.06 1059.54 2725.06 1060.36V1634.1H2709.05V1039.07C2709.05 1033.45 2714.74 1031.66 2716.63 1036.69L2724.64 1057.98Z" fill="white"/>
<path d="M2689.03 1772.53C2693.45 1772.53 2697.04 1777.3 2697.04 1783.17C2697.04 1789.06 2693.45 1793.82 2689.03 1793.82H2620.97V1772.53H2689.03Z" fill="#5283E9"/>
<path d="M2689.03 2028.07C2693.45 2028.07 2697.04 2032.85 2697.04 2038.72C2697.04 2044.61 2693.45 2049.37 2689.03 2049.37H2620.97V2028.07H2689.03Z" fill="#5283E9"/>
<path d="M2689.03 2283.63C2693.45 2283.63 2697.04 2288.41 2697.04 2294.27C2697.04 2300.16 2693.45 2304.92 2689.03 2304.92H2620.97V2283.63H2689.03Z" fill="#5283E9"/>
<path d="M2689.03 1900.29C2693.45 1900.29 2697.04 1905.08 2697.04 1910.94C2697.04 1916.83 2693.45 1921.59 2689.03 1921.59H2620.97V1900.29H2689.03Z" fill="#5283E9"/>
<path d="M2689.03 2155.85C2693.45 2155.85 2697.04 2160.63 2697.04 2166.5C2697.04 2172.38 2693.45 2177.15 2689.03 2177.15H2620.97V2155.85H2689.03Z" fill="#5283E9"/>
<path d="M2665.01 1836.41C2669.43 1836.41 2673.01 1841.19 2673.01 1847.06C2673.01 1852.94 2669.43 1857.7 2665.01 1857.7H2620.97V1836.41H2665.01Z" fill="#5283E9"/>
<path d="M2665.01 2091.96C2669.43 2091.96 2673.01 2096.74 2673.01 2102.61C2673.01 2108.49 2669.43 2113.26 2665.01 2113.26H2620.97V2091.96H2665.01Z" fill="#5283E9"/>
<path d="M2665.01 1964.18C2669.43 1964.18 2673.01 1968.97 2673.01 1974.83C2673.01 1980.72 2669.43 1985.48 2665.01 1985.48H2620.97V1964.18H2665.01Z" fill="#5283E9"/>
<path d="M2665.01 2219.74C2669.43 2219.74 2673.01 2224.52 2673.01 2230.39C2673.01 2236.27 2669.43 2241.03 2665.01 2241.03H2620.97V2219.74H2665.01Z" fill="#5283E9"/>
<path d="M2541.46 2606.05C2539.66 2593.41 2526.38 2591.74 2519.96 2592.5L2417.5 2636.91L2356.01 2670.13C2349.37 2673.71 2345.03 2682.29 2345.03 2691.81C2345.03 2704.73 2352.9 2715.2 2362.63 2715.2H2506.38L2515.03 2698.44C2517.09 2694.41 2521.72 2695.16 2523 2699.75L2526.22 2711.27C2526.88 2713.63 2528.58 2715.2 2530.47 2715.2H2539.72C2542.24 2715.2 2544.27 2712.49 2544.25 2709.14C2543.97 2682.42 2543.14 2617.68 2541.46 2606.05Z" fill="#4152A1"/>
<path d="M2328.62 2606.05C2326.8 2593.41 2313.52 2591.74 2307.1 2592.5L2204.64 2636.91L2143.15 2670.13C2136.51 2673.71 2132.17 2682.29 2132.17 2691.81C2132.17 2704.73 2140.05 2715.2 2149.77 2715.2H2293.52L2302.17 2698.44C2304.24 2694.41 2308.87 2695.16 2310.15 2699.75L2313.36 2711.27C2314.02 2713.63 2315.72 2715.2 2317.61 2715.2H2326.86C2329.38 2715.2 2331.42 2712.49 2331.39 2709.14C2331.11 2682.42 2330.28 2617.68 2328.62 2606.05Z" fill="#4152A1"/>
<path d="M2529.09 2605.28L2525.63 2542.07H2457.68L2460.94 2593.31C2461.03 2594.67 2460.56 2596 2459.73 2596.8L2420.21 2634.14C2419.28 2635.02 2419.44 2636.91 2420.51 2637.45C2458.74 2656.68 2501.94 2635.62 2523.78 2619.06C2527.43 2616.27 2529.4 2610.87 2529.09 2605.28Z" fill="#FDAE94"/>
<path d="M2317.25 2606.94L2321.82 2542.07H2253.89L2248.75 2590.56C2248.42 2593.72 2247.12 2596.57 2245.16 2598.41L2207.35 2634.14C2206.42 2635.01 2206.58 2636.91 2207.66 2637.45C2246.53 2657.01 2290.54 2634.9 2312 2618.23C2315.04 2615.87 2316.92 2611.61 2317.25 2606.94Z" fill="#FDAE94"/>
<path d="M2237.53 2548.65L2251.05 1526.49H2498.44L2546.94 2548.47C2547.04 2550.72 2545.72 2552.6 2544.03 2552.6H2438.2C2436.73 2552.6 2435.48 2551.13 2435.3 2549.17L2382.57 1942.27L2344.13 2549.05C2343.99 2551.05 2342.74 2552.6 2341.23 2552.6H2240.43C2238.81 2552.6 2237.5 2550.82 2237.53 2548.65Z" fill="#0353A7"/>
<path d="M2527.78 2552.6L2469.28 1526.49H2498.44L2547.13 2552.6H2527.78Z" fill="#00468F"/>
<path d="M2381.85 1945.17L2359.28 1736.08" stroke="#392524" stroke-linecap="round"/>
<path d="M2182.85 1306.88L2192.47 1232.89L2272.32 1252.14L2272.06 1371.53C2261.73 1402.8 2231.31 1460.32 2192.47 1440.26C2153.64 1420.2 2056.28 1280.01 2012.46 1212.41C1994.93 1209.18 1981.4 1193.96 1976.83 1186.75L2002.66 1098.32C1997.51 1074.35 2004.7 1058.73 2008.95 1053.92L2024.82 1109.77L2031.51 1147.15L2182.85 1306.88Z" fill="#DBA371"/>
<path d="M2240.86 1032.63L2300.31 986.711L2362.02 978.429C2397.69 996.497 2473.2 1035.34 2489.96 1046.18C2506.36 1056.8 2547.65 1148.21 2567.44 1195.35C2568.14 1197.03 2567.79 1199.12 2566.62 1200.28L2492.37 1274.88C2491.05 1276.2 2489.17 1275.81 2488.22 1274L2469.01 1237.4C2466.56 1283.07 2464.03 1382.55 2473.54 1415.07L2499.58 1527.99C2499.58 1527.99 2378.21 1576.18 2329.47 1576.18C2280.71 1576.18 2249.92 1527.99 2249.92 1527.99L2266.91 1457.23C2277.32 1396.4 2256.53 1328.49 2244.82 1302.14L2181.42 1277.3C2182.56 1254.22 2187.42 1193.74 2197.84 1136.52C2208.25 1079.31 2230.86 1043.42 2240.86 1032.63Z" fill="#5283E9"/>
<path d="M2240.32 1300.38L2224.03 1294L2225.34 1265.64C2231.17 1280.35 2239.42 1293.71 2242.81 1298.55L2240.32 1300.38Z" fill="#3F73E0"/>
<path d="M2257.91 1339.97C2256.11 1333.43 2254.24 1327.35 2252.39 1321.86C2258.12 1302.54 2281.87 1283.81 2348.36 1298.54C2430.69 1316.79 2440.17 1211.51 2434.08 1147.2C2439.86 1184.58 2460.87 1229.96 2469.01 1237.48C2466.55 1283.19 2464.03 1382.57 2473.54 1415.07L2499.58 1527.99C2499.58 1527.99 2487.67 1532.72 2469.82 1539.21C2458.64 1470.18 2432.67 1357.4 2421.88 1349.85C2410.82 1342.1 2363.4 1339.85 2339.63 1349.85L2257.91 1339.97Z" fill="#3F73E0"/>
<path d="M2471.53 1242.19L2470.65 1238.53C2470.22 1238.43 2469.69 1238.1 2469.1 1237.57L2471.53 1242.19Z" fill="#3F73E0"/>
<path d="M2434.08 1147.2C2433.48 1143.34 2433.05 1139.56 2432.8 1135.92C2433.28 1139.5 2433.7 1143.28 2434.08 1147.2Z" fill="#3F73E0"/>
<path d="M2363.88 594.294C2336.61 609.832 2338.57 649.973 2342.95 668.102L2385.78 741.262C2387.09 765.865 2393.96 826.983 2411.09 874.634C2425.94 915.919 2469.4 910.289 2497.31 899.345C2502.03 897.496 2502.81 888.581 2499.52 883.719C2465.18 832.978 2455.41 664.557 2444.2 623.429C2432.03 578.755 2397.95 574.87 2363.88 594.294Z" fill="#311F1E"/>
<path d="M2343.35 662.617L2327.85 679.11L2381.89 717.307L2387.36 694.962C2388.21 691.502 2387.82 687.673 2386.1 684.835C2372.38 662.089 2355.47 658.921 2346.82 660.509C2345.54 660.745 2344.36 661.541 2343.35 662.617Z" fill="#FD5E42"/>
<path fill-rule="evenodd" clip-rule="evenodd" d="M2278.47 1003.59C2280.2 1033.51 2291.85 1083.15 2328.62 1087.59C2360.34 1091.43 2380.54 1037.3 2390.41 992.914C2379.71 987.421 2369.89 982.419 2362.02 978.429L2300.31 986.711L2278.47 1003.59Z" fill="#0353A7"/>
<path d="M2404.28 787.231C2412.75 853.276 2379.11 907.048 2360.62 926.412C2360.21 926.836 2359.69 926.92 2359.21 926.664L2259.21 873.339C2233.08 861.469 2196.64 802.121 2202.72 757.447C2213.87 675.643 2273.68 649.592 2304.5 677.382C2304.8 677.657 2305.17 677.773 2305.55 677.707C2360.69 667.705 2393.61 704 2404.28 787.231Z" fill="#392524"/>
<path d="M2369.37 982.946L2359.18 830.874C2358.7 823.647 2314.08 884.076 2291.82 915.192L2295.78 993.486C2298.98 1015.82 2310.38 1059.74 2330.31 1056.72C2350.24 1053.71 2364.65 1006.28 2369.37 982.946Z" fill="#DBA371"/>
<path fill-rule="evenodd" clip-rule="evenodd" d="M2301.54 901.701C2298.02 906.555 2294.73 911.122 2291.82 915.189L2295.4 986.037C2317.25 986.407 2350.66 967.452 2363.2 890.764L2361.54 865.939L2301.54 901.701Z" fill="#DBA371"/>
<path d="M2297.92 957.508C2260.82 954.74 2232.99 874.715 2233.45 822.927C2233.47 822.003 2233.99 821.244 2234.66 821.078C2262.64 814.3 2279.85 793.689 2286.37 781.825C2287.04 780.602 2288.5 780.722 2289.04 782.058C2308.76 830.853 2338.59 836.591 2352.58 833.069C2353.37 832.872 2353.85 831.809 2353.72 830.756C2350.11 801.971 2384.6 788.22 2385.91 819.63C2386.83 850.627 2373.02 865.232 2365.41 869.05C2365 869.257 2364.67 869.67 2364.52 870.221C2354.14 907.139 2335.1 960.283 2297.92 957.508Z" fill="#DBA371"/>
<path d="M2244.27 831C2246.7 827.128 2253.73 821.707 2262.47 831" stroke="#392524" stroke-width="2" stroke-linecap="round"/>
<path d="M2292.31 831C2294.74 827.128 2301.78 821.707 2310.51 831" stroke="#392524" stroke-width="2" stroke-linecap="round"/>
<path d="M2362.89 819.606C2367.42 813.959 2376.68 806.465 2377.41 821.676C2378.15 836.887 2372.51 848.108 2369.6 851.818" stroke="#E27860" stroke-width="2" stroke-linecap="round"/>
<path d="M2245.39 1302.9C2231.24 1282.57 2194.45 1229.12 2236.9 1086.08M2433.34 1132.01C2433.34 1147.82 2440.37 1191.18 2468.44 1238.16L2433.34 1132.01Z" stroke="#392524" stroke-linecap="round"/>
<path d="M2255.76 862.68C2258.18 862.68 2260.14 858.621 2260.14 853.615C2260.14 848.609 2258.18 844.551 2255.76 844.551C2253.34 844.551 2251.37 848.609 2251.37 853.615C2251.37 858.621 2253.34 862.68 2255.76 862.68Z" fill="#392524"/>
<path d="M2300.55 862.68C2302.97 862.68 2304.93 858.621 2304.93 853.615C2304.93 848.609 2302.97 844.551 2300.55 844.551C2298.13 844.551 2296.17 848.609 2296.17 853.615C2296.17 858.621 2298.13 862.68 2300.55 862.68Z" fill="#392524"/>
<path d="M2275.02 889.479L2278.96 862.834C2279.27 860.716 2281.55 860.764 2281.82 862.894L2285.11 889.541C2285.25 890.718 2284.57 891.789 2283.66 891.789H2276.44C2275.53 891.789 2274.84 890.675 2275.02 889.479Z" fill="#DBA371"/>
<path d="M2274.67 916.846C2276.3 918.573 2281.1 921.767 2287.33 920.729C2293.56 919.694 2296.74 914.687 2297.55 912.313" stroke="#E27860" stroke-width="2" stroke-linecap="round"/>
<path d="M2333.75 1270.06L2153.71 1334.22C2149.05 1335.88 2146.29 1342.25 2147.53 1348.44L2217.33 1694.83C2218.58 1701.03 2223.37 1704.7 2228.03 1703.04L2408.07 1638.89C2412.73 1637.23 2415.49 1630.86 2414.24 1624.66L2344.45 1278.28C2343.2 1272.08 2338.41 1268.4 2333.75 1270.06Z" fill="#DCEBF8"/>
<path fill-rule="evenodd" clip-rule="evenodd" d="M2323.57 1273.69C2324.46 1275.94 2325.17 1278.35 2325.68 1280.9L2386.43 1582.4C2390.17 1600.99 2381.88 1620.1 2367.9 1625.08L2221.6 1677.21C2219.07 1678.12 2216.52 1678.49 2214.02 1678.39L2147.53 1348.45C2146.29 1342.25 2149.04 1335.88 2153.72 1334.22L2323.57 1273.69Z" fill="white"/>
<path d="M2582.23 1282.57L2560.16 1204.28L2501.28 1266.01L2508.07 1292.36L2399.94 1403.78C2394.96 1397.75 2378.15 1401.27 2369.47 1403.78L2373.9 1426.36C2352.58 1438.91 2310.5 1466.26 2312.77 1475.3C2315.02 1484.33 2327.67 1481.07 2333.7 1478.31C2328.24 1483.33 2318.08 1495.17 2321.25 1502.4C2324.43 1509.62 2339.55 1502.4 2346.73 1497.88C2343.7 1501.14 2338.24 1508.57 2340.5 1512.18C2345.03 1520.01 2361.26 1510.43 2368.8 1504.66C2364.84 1510.43 2358.16 1521.97 2363.15 1521.97C2375.37 1523.78 2401.46 1495.62 2412.96 1481.32C2435.04 1467.26 2491.19 1429.52 2539.21 1390.98C2587.21 1352.43 2587.89 1302.65 2582.23 1282.57Z" fill="#DBA371"/>
<path d="M2035.5 1062.79L1973.23 1030.63C1971.48 1029.73 1969.51 1030.88 1968.83 1033.21L1926.2 1179.18C1925.52 1181.5 1926.39 1184.12 1928.14 1185.02L1990.41 1217.18C1992.16 1218.08 1994.13 1216.93 1994.81 1214.61L2037.44 1068.64C2038.11 1066.31 2037.25 1063.7 2035.5 1062.79Z" fill="#FD5E42"/>
<path d="M2039.73 1064.97L1970.07 1029C1968.32 1028.1 1966.35 1029.25 1965.67 1031.57L1958.3 1056.84C1957.62 1059.16 1958.48 1061.78 1960.23 1062.68L2029.89 1098.66C2031.64 1099.56 2033.61 1098.41 2034.29 1096.08L2041.66 1070.82C2042.34 1068.5 2041.48 1065.88 2039.73 1064.97Z" fill="#F6FBFF"/>
<path d="M2270.49 1262.3L2199.88 1287.45C2197.55 1288.28 2196.17 1291.47 2196.79 1294.57L2205.68 1338.67C2206.3 1341.77 2208.7 1343.61 2211.03 1342.78L2281.63 1317.62C2283.96 1316.79 2285.35 1313.6 2284.72 1310.51L2275.83 1266.4C2275.21 1263.3 2272.82 1261.47 2270.49 1262.3Z" fill="#36474F"/>
<path d="M2016.13 1141.62L1947.53 1106.19L1938.51 1137.07L2007.11 1172.5L2016.13 1141.62Z" fill="white"/>
<path d="M1939.13 1082.32C1941.85 1075.69 1950.45 1080.34 1954.41 1082.32C1963.47 1086.84 1987.81 1113.94 1985.55 1122.97C1983.73 1130.2 1971.87 1125.6 1966.2 1123.34C1971.87 1126.1 1981.03 1135.62 1977.85 1144.05C1974.68 1152.48 1965.17 1146.56 1960.08 1144.05C1963.09 1146.81 1968.56 1156.55 1966.31 1161.37C1964.04 1166.18 1954.41 1163.37 1949.89 1161.37C1951.78 1163.37 1954.98 1168.44 1952.71 1172.66C1950.45 1176.88 1945.36 1176.93 1943.09 1176.42C1937.99 1173.91 1926.68 1168.14 1922.15 1165.13C1916.49 1161.37 1913.65 1155.34 1914.22 1150.07C1914.67 1145.86 1919.69 1142.29 1922.15 1141.04C1920.64 1138.78 1918.08 1132.91 1919.88 1127.49C1921.7 1122.07 1925.92 1119.71 1927.81 1119.21C1926.87 1116.7 1925.54 1110.32 1927.81 1104.9C1930.07 1099.48 1936.3 1097.63 1939.13 1097.37C1937.99 1095.12 1936.42 1088.94 1939.13 1082.32Z" fill="#FDAE94"/>
<path d="M1921.8 1141.73L1950.19 1161.09M1939.27 1097.2L1966.2 1123.34L1939.27 1097.2ZM1927.62 1119.47L1958.92 1143.67L1927.62 1119.47Z" stroke="#392524" stroke-linecap="round"/>
<path d="M420.225 1884.19H6.80218C2.04536 1884.19 -1.81079 1889.32 -1.81079 1895.64V2044.54C-1.81079 2050.87 2.04536 2056 6.80218 2056H420.225C424.982 2056 428.838 2050.87 428.838 2044.54V1895.64C428.838 1889.32 424.982 1884.19 420.225 1884.19Z" fill="#DCEBF8"/>
<path fill-rule="evenodd" clip-rule="evenodd" d="M395.074 1884.19V1923.63C395.074 1971.08 366.154 2009.53 330.477 2009.53H-1.81079V1895.65C-1.81079 1889.32 2.04573 1884.19 6.80196 1884.19H395.074Z" fill="#F6FBFF"/>
<path d="M41.2546 2055.99H385.773V2703.14C385.773 2712.63 379.989 2720.31 372.854 2720.31H54.1738C47.0387 2720.31 41.2546 2712.63 41.2546 2703.14V2055.99Z" fill="#FFBD1C"/>
<path d="M326.416 2055.99V2577.55C326.416 2614.97 303.603 2645.31 275.461 2645.31H41.2546V2055.99H326.416Z" fill="#FFCA48"/>
<path d="M41.2546 2247.85H385.773V2482.65H41.2546V2247.85Z" fill="white"/>
<path d="M154.647 2473.19L257.489 2610.22C274.528 2632.93 274.501 2669.7 257.428 2692.36C240.355 2715.02 212.701 2714.98 195.662 2692.28L92.8202 2555.25C75.7808 2532.54 75.8081 2495.77 92.8811 2473.11C109.954 2450.45 137.608 2450.49 154.647 2473.19Z" fill="#FD5E42"/>
<path d="M257.428 2692.36C274.5 2669.71 274.528 2632.92 257.487 2610.21L206.067 2541.7L144.241 2623.77L195.661 2692.28C212.7 2714.99 240.354 2715.01 257.428 2692.36Z" fill="#F6FBFF"/>
<path d="M209.006 2604.39H354.59C378.711 2604.39 398.266 2630.39 398.266 2662.47C398.266 2694.54 378.711 2720.55 354.59 2720.55H209.006C184.885 2720.55 165.331 2694.54 165.331 2662.47C165.331 2630.39 184.885 2604.39 209.006 2604.39Z" fill="#FD5E42"/>
<path d="M82.1976 2490.77L36.0719 2674.4C28.4296 2704.82 3.68759 2721.25 -19.1909 2711.09C-42.0694 2700.92 -54.4207 2668.02 -46.7783 2637.6L-0.652682 2453.97C6.98966 2423.55 31.7317 2407.12 54.6101 2417.28C77.4886 2427.45 89.8399 2460.35 82.1976 2490.77Z" fill="#FD5E42"/>
<path d="M82.1976 2494.65L36.0719 2678.27C28.4296 2708.7 3.68759 2725.12 -19.1909 2714.96C-42.0694 2704.8 -54.4207 2671.89 -46.7783 2641.47L-0.652682 2457.84C6.98966 2427.42 31.7317 2410.99 54.6101 2421.16C77.4886 2431.32 89.8399 2464.22 82.1976 2494.65Z" fill="#FE4727"/>
<path d="M26.1734 2666.94C18.5302 2697.37 -6.21176 2713.79 -29.0903 2703.62C-32.4533 2702.13 -35.5906 2700.14 -38.4688 2697.76C-48.1487 2682.75 -51.829 2661.57 -46.7787 2641.46L-0.65336 2457.85C6.9898 2427.41 31.7318 2411 54.6103 2421.16C57.9748 2422.65 61.1106 2424.63 63.9903 2427.03C73.6687 2442.03 77.3491 2463.21 72.2988 2483.31L26.1734 2666.94Z" fill="#FD5E42"/>
<path d="M398.266 2662.47C398.266 2630.39 378.713 2604.39 354.591 2604.39H281.799V2720.55H354.591C378.713 2720.55 398.266 2694.55 398.266 2662.47Z" fill="white"/>
<path d="M-19.1908 2714.95C3.68773 2725.12 28.4297 2708.7 36.0714 2678.27L59.1348 2586.46L-23.7155 2549.66L-46.7789 2641.46C-54.4206 2671.9 -42.0693 2704.79 -19.1908 2714.95Z" fill="#DCEBF8"/>
<path d="M26.1734 2663.3C18.5317 2693.73 -6.21033 2710.15 -29.0888 2699.99C-34.1391 2697.74 -38.6755 2694.39 -42.5961 2690.21C-49.0935 2676.1 -51.0313 2658.4 -46.7787 2641.48L-23.7153 2549.66L46.8477 2581L26.1734 2663.3Z" fill="white"/>
<path d="M1589.55 2358.43H1317.95C1300.68 2358.43 1286.68 2339.81 1286.68 2316.84V2192.95C1286.68 2169.98 1300.68 2151.36 1317.95 2151.36H1589.55C1606.83 2151.36 1620.83 2169.98 1620.83 2192.95V2316.84C1620.83 2339.81 1606.83 2358.43 1589.55 2358.43Z" stroke="#5F0E00" stroke-width="27.543"/>
<path d="M1721.24 2240.01H1186.26C1163.54 2240.01 1145.11 2264.51 1145.11 2294.74C1145.11 2324.96 1163.54 2349.46 1186.26 2349.46H1721.24C1743.96 2349.46 1762.39 2324.96 1762.39 2294.74C1762.39 2264.51 1743.96 2240.01 1721.24 2240.01Z" fill="#CF2304"/>
<path fill-rule="evenodd" clip-rule="evenodd" d="M1736.9 2244.12C1737.39 2247.48 1737.64 2250.95 1737.64 2254.49C1737.64 2284.71 1719.21 2309.2 1696.48 2309.2H1161.51C1155.97 2309.2 1150.68 2307.75 1145.85 2305.1C1145.36 2301.75 1145.11 2298.28 1145.11 2294.74C1145.11 2264.52 1163.54 2240.01 1186.27 2240.01H1721.23C1726.78 2240.01 1732.08 2241.48 1736.9 2244.12Z" fill="#E43010"/>
<path d="M1191.2 2349.47H1716.29V2675.61C1716.29 2699.79 1701.56 2719.4 1683.38 2719.4H1224.12C1205.94 2719.4 1191.2 2699.79 1191.2 2675.61V2349.47Z" fill="#FD5E42"/>
<path fill-rule="evenodd" clip-rule="evenodd" d="M1642.54 2349.47V2601.42C1642.54 2625.6 1627.81 2645.2 1609.63 2645.2H1191.2V2349.47H1642.54Z" fill="#FF7760"/>
<path d="M1453.75 2420.6H1453.75C1439.96 2420.6 1428.78 2435.46 1428.78 2453.8V2586.6C1428.78 2604.93 1439.96 2619.8 1453.75 2619.8H1453.75C1467.54 2619.8 1478.71 2604.93 1478.71 2586.6V2453.8C1478.71 2435.46 1467.54 2420.6 1453.75 2420.6Z" fill="white"/>
<path d="M1528.65 2520.2V2520.2C1528.65 2501.87 1517.48 2487 1503.69 2487H1403.83C1390.04 2487 1378.86 2501.87 1378.86 2520.2V2520.2C1378.86 2538.54 1390.04 2553.4 1403.83 2553.4H1503.69C1517.48 2553.4 1528.65 2538.54 1528.65 2520.2Z" fill="white"/>
<path d="M698.684 2638.52L694.721 2579.04L599.048 2570L603.577 2643.03L610.936 2667.13L698.684 2638.52Z" fill="#FDAE94"/>
<path d="M481.917 2638.51L486.392 2573.02L390.719 2563.98L386.811 2643.03L394.17 2667.13L481.917 2638.51Z" fill="#FDAE94"/>
<path d="M456.387 843.145L487.523 813.785H537.908L588.292 845.404L600.18 855.944L657.357 1521.44H456.387V843.145Z" fill="#5283E9"/>
<path d="M648.325 1521.44H603.363C601.805 1473.22 598.331 1382.91 595.532 1367.27C592.62 1351.01 524.924 1360.5 491.439 1367.27L486.344 1345.01L636.295 1327.58L648.325 1521.44Z" fill="#2E6DF1"/>
<path d="M779.369 1566.68L737.477 1611.85C743.703 1647.24 779.369 1751.13 786.728 1746.61C792.617 1742.99 786.917 1711.98 783.331 1696.92C792.2 1723.27 811.751 1774.76 818.997 1769.95C826.244 1765.13 817.487 1731.8 812.204 1715.74C820.318 1738.33 838.697 1781.54 847.302 1773.71C854.662 1766.94 840.51 1725.28 832.584 1706.71C839 1720.76 853.643 1746.91 860.89 1739.08C868.136 1731.25 838.623 1668.57 822.959 1638.2C830.135 1646.2 837.123 1648.78 842.897 1648.78C849.761 1648.78 851.096 1638.23 846.617 1631.31C840.546 1621.94 833.817 1610.95 830.885 1604.32C826.356 1594.08 801.071 1585 788.993 1581.74L779.369 1566.68Z" fill="#DBA371"/>
<path d="M455.56 676.562C460.986 731.273 482.195 753.224 492.764 760.85C493.186 761.154 493.687 761.144 494.112 760.842L604.921 682.292C605.11 682.159 605.271 681.98 605.392 681.748C609.518 673.834 610.668 651.283 610.745 639.725C610.75 638.966 611.106 638.267 611.625 637.95C657.101 610.199 651.918 588.469 640.257 583.929C639.13 583.492 638.569 581.575 639.259 580.313C643.596 572.373 649.229 557.133 646.313 542.052C637.009 505.37 601.598 510.657 580.008 519.838C578.5 520.479 577.06 517.609 578.034 515.952C582.881 507.707 586.609 497.603 579.341 495.371C540.067 481.292 505.659 517.203 490.34 541.312C489.378 542.826 487.194 541.715 487.094 539.738C486.759 533.198 485.061 526.519 480.04 527.925C456.028 535.074 451.51 579.206 453.931 598.105C454.053 599.071 453.656 600.023 452.969 600.374C443.031 605.425 426.149 619.143 429.696 638.482C433.03 656.663 446.145 653.533 454.104 648.687C455.153 648.048 456.393 649.09 456.327 650.621C455.958 659.159 455.352 674.461 455.56 676.562Z" fill="#392524"/>
<path d="M471.055 829.314C479.443 862.123 505.538 918.403 547.531 916.169C566.304 916.169 575.149 869.302 577.956 838.918L537.908 813.785H487.523L471.055 829.314Z" fill="#0353A7"/>
<path d="M484.693 816.794V717.421L490.921 709.141L562.25 787.435V837.121C561.496 856.945 556.023 896.144 540.172 894.335C510.281 888.314 490.732 840.133 484.693 816.794Z" fill="#DBA371"/>
<path d="M696.524 2623.78C649.531 2654.29 615.294 2632.61 603.52 2623.55C602.813 2623.01 601.997 2622.66 601.188 2622.81C586.1 2625.62 587.4 2679.35 589.49 2709.01C590.02 2716.52 594.827 2722.07 600.502 2722.07H807.619C819.072 2722.07 828.356 2709.72 828.356 2694.5C828.356 2682.29 822.31 2671.52 813.499 2668.06L699.872 2623.38C698.766 2622.95 697.56 2623.1 696.524 2623.78Z" fill="#4152A1"/>
<path fill-rule="evenodd" clip-rule="evenodd" d="M607.818 2626.65C601.147 2652.22 602.65 2697.83 658.133 2696.34C715.784 2694.8 774.357 2695.7 796.438 2696.34C804.943 2696.61 819.992 2692.84 824.004 2677.6C826.757 2682.31 828.356 2688.21 828.356 2694.5C828.356 2709.72 819.072 2722.07 807.619 2722.07H600.502C594.827 2722.07 590.02 2716.52 589.49 2709.01C587.4 2679.35 586.1 2625.62 601.188 2622.81C601.997 2622.66 602.813 2623.01 603.52 2623.55C604.723 2624.48 606.158 2625.52 607.818 2626.65Z" fill="#2F429A"/>
<path d="M479.758 2623.78C432.765 2654.29 398.526 2632.61 386.754 2623.55C386.047 2623.01 385.23 2622.66 384.422 2622.81C369.334 2625.62 370.634 2679.35 372.723 2709.01C373.253 2716.52 378.062 2722.07 383.735 2722.07H590.853C602.306 2722.07 611.59 2709.72 611.59 2694.5C611.59 2682.29 605.544 2671.52 596.732 2668.06L483.106 2623.38C482 2622.95 480.794 2623.1 479.758 2623.78Z" fill="#5466B8"/>
<path d="M610.326 2685.02C604.229 2693.55 587.483 2699.25 576.606 2699.25H393.898C387.236 2697.77 376.717 2689.62 371.532 2669.22C371.26 2683.22 371.936 2697.81 372.723 2709C373.039 2713.46 374.868 2717.25 377.491 2719.57H599.495C606.633 2715.22 611.59 2705.64 611.59 2694.5C611.59 2691.19 611.147 2688 610.326 2685.02Z" fill="#475BBA"/>
<path fill-rule="evenodd" clip-rule="evenodd" d="M562.25 822.761V787.435L490.921 709.141L484.693 717.421V734.104C502.994 794.583 538.176 821.218 562.25 822.761Z" fill="#E27860"/>
<path d="M557.172 788.964C604.168 789.932 609.228 691.468 605.819 640.038C605.742 638.871 604.909 638.106 604.044 638.327C581.93 643.974 550.539 628.374 543.778 616.986C548.396 624.765 553.938 637.191 548.396 642.782C541.012 650.231 508.708 646.929 496.436 631.183C495.543 630.037 493.917 630.513 493.63 632.12L485.239 679.186C484.879 681.198 482.716 681.161 482.397 679.136L477.929 650.801C477.808 650.036 477.358 649.438 476.778 649.335C469.29 648.021 455.914 652.195 455.56 679.02C455.205 706.018 472.844 714.639 482.666 715.777C483.303 715.851 483.837 716.416 484.009 717.235C489.149 741.601 510.393 788 557.172 788.964Z" fill="#DBA371"/>
<path d="M378.265 2583.13V1736.75V1521.12C378.265 1520.05 378.917 1519.19 379.72 1519.19H658.811C659.584 1519.19 660.221 1519.99 660.265 1521.01L704.26 2583.03C704.307 2584.14 703.643 2585.06 702.807 2585.06H589.628C588.872 2585.06 588.242 2584.29 588.176 2583.3L543.569 1901.61L497.833 2583.3C497.766 2584.29 497.137 2585.06 496.383 2585.06H379.72C378.917 2585.06 378.265 2584.19 378.265 2583.13Z" fill="#0353A7"/>
<path d="M587.525 2586.96L543.568 1901.61L542.511 1917.37L541.666 1905.49L564.231 1634.44L587.525 2586.96Z" fill="#00448C"/>
<path d="M542.393 1903.55L564.231 1633.47" stroke="#392524" stroke-width="2" stroke-linecap="round"/>
<path d="M738.326 1177.94C729.101 1196.06 709.95 1205.71 701.526 1208.26L694.904 1280.83C709.389 1279.25 741.199 1273.5 752.546 1263.16C763.894 1252.82 804.745 1236.2 824.581 1231.35C830.907 1229.86 846.973 1226.5 846.473 1218.19C845.972 1209.89 839.268 1209.86 836.919 1209.58L841.539 1207.79C844.548 1207 850.473 1203.73 850.09 1196.98C849.556 1186.62 843.98 1184.09 841.261 1184.12L847.909 1181.67C850.566 1180.13 855.442 1175.14 853.683 1167.48C851.923 1159.81 845.67 1158.26 842.763 1158.45L848.043 1155.58C852.663 1153.79 856.426 1147.87 854.73 1141.66C852.075 1131.94 846.475 1133.86 843.396 1135.06L780.059 1158.02C783.952 1150.95 785.84 1138.64 786.496 1127.22C787.07 1117.26 778.952 1113.6 773.791 1120.86L753.168 1149.91C752.063 1151.7 747.55 1159.82 738.326 1177.94Z" fill="#DBA371"/>
<path d="M371.525 888.187C371.525 888.187 432.666 845.403 463.182 837.121L494.318 1422.82C493.939 1492.33 493.411 1647.47 494.318 1711.91C495.224 1776.35 440.349 1799.99 412.797 1803.75H321.656C318.285 1803.75 315.618 1799.95 315.845 1795.48L338.577 1347.54C257.057 1311.4 300.195 1128.34 309.82 1035.74C317.518 961.665 339.823 908.513 371.525 888.187Z" fill="white"/>
<path d="M622.258 1347.54C618.635 1240.94 598.104 968.366 588.292 845.405C638.562 862.267 681.511 934.239 684.53 960.588L698.896 1175.61H703.894C706.854 1175.61 709.342 1178.56 709.68 1182.47L720.717 1310.25C721.114 1314.85 718.411 1318.88 714.931 1318.88H712.727C742.684 1414.72 782.226 1512.47 800.074 1557.31C801.36 1560.54 800.753 1564.49 798.642 1566.83L732.887 1639.75C730.107 1642.83 725.905 1641.83 724.104 1637.65L687.362 1552.31L705.956 1795.23C706.305 1799.78 703.589 1803.79 700.159 1803.3C660.439 1797.73 643.78 1741 640.375 1711.91C635.846 1634.87 625.882 1454.14 622.258 1347.54Z" fill="white"/>
<path d="M591.38 686.954C594.951 686.954 597.846 682.279 597.846 676.512C597.846 670.746 594.951 666.071 591.38 666.071C587.809 666.071 584.914 670.746 584.914 676.512C584.914 682.279 587.809 686.954 591.38 686.954Z" fill="#392524"/>
<path d="M549.811 686.954C553.382 686.954 556.277 682.279 556.277 676.512C556.277 670.746 553.382 666.071 549.811 666.071C546.24 666.071 543.345 670.746 543.345 676.512C543.345 682.279 546.24 686.954 549.811 686.954Z" fill="#392524"/>
<path d="M538.026 654.144C540.453 650.272 547.489 644.851 556.224 654.144" stroke="#392524" stroke-width="2" stroke-linecap="round"/>
<path d="M580.246 654.144C582.672 650.272 589.709 644.851 598.444 654.144" stroke="#392524" stroke-width="2" stroke-linecap="round"/>
<path d="M580.914 721.993L569.845 697.574C569.083 695.894 567.143 696.612 567.143 698.573V730.955C567.143 732.422 568.322 733.355 569.292 732.658L580.36 724.696C581.09 724.169 581.343 722.94 580.914 721.993Z" fill="#E27860"/>
<path d="M548.396 751.35C550.243 754.012 555.879 759.212 563.639 758.72C571.398 758.231 575.494 754.831 576.571 753.193" stroke="#E27860" stroke-width="2" stroke-linecap="round"/>
<path d="M473.573 658.751C469.878 660.389 462.95 667.227 464.797 681.476C466.645 695.727 471.419 699.698 473.573 699.903" stroke="#E27860" stroke-linecap="round"/>
<path d="M441.514 845.811C443.091 845.041 444.647 844.303 446.177 843.601C443.269 848.708 440.313 855.573 438.924 866.825C437.156 881.157 437.916 902.748 444.803 936.976L441.99 937.979C435.048 903.479 434.189 881.289 436.051 866.198C437.164 857.186 439.242 850.756 441.514 845.811Z" fill="#392524"/>
<path d="M447.655 932.067C446.927 928.453 444.133 926.308 441.415 927.276C438.697 928.245 437.084 931.96 437.812 935.574L439.864 945.755C440.592 949.369 443.386 951.514 446.104 950.546C448.822 949.577 450.435 945.862 449.706 942.248L447.655 932.067Z" fill="#392524"/>
<path d="M457.499 1160.31L441.251 1166.1C438.144 1167.21 434.951 1164.75 434.119 1160.62L409.253 1037.21C401.16 997.052 419.083 955.77 449.283 945.01C479.483 934.248 510.524 958.082 518.617 998.243L543.483 1121.66C544.315 1125.78 542.472 1130.03 539.366 1131.14L521.478 1137.51" stroke="#392524" stroke-width="4.66627"/>
<path d="M463.667 1175.46C471.171 1175.46 477.253 1167.37 477.253 1157.39C477.253 1147.41 471.171 1139.32 463.667 1139.32C456.163 1139.32 450.08 1147.41 450.08 1157.39C450.08 1167.37 456.163 1175.46 463.667 1175.46Z" fill="#392524"/>
<path d="M516.88 1157.4C524.384 1157.4 530.467 1149.31 530.467 1139.33C530.467 1129.35 524.384 1121.26 516.88 1121.26C509.376 1121.26 503.293 1129.35 503.293 1139.33C503.293 1149.31 509.376 1157.4 516.88 1157.4Z" fill="#392524"/>
<path d="M837.485 1209.84L801.612 1220.69M844.344 1158.38L793.245 1174.2L844.344 1158.38ZM841.93 1183.78L797.335 1195.19L841.93 1183.78Z" stroke="#E27860" stroke-linecap="round"/>
<path fill-rule="evenodd" clip-rule="evenodd" d="M591.834 846.686C593 847.139 594.162 847.621 595.318 848.13C602.085 873.766 613.534 933.01 619.181 1019.89L616.279 1020.23C610.428 930.195 598.34 870.148 591.834 846.686Z" fill="#392524"/>
<path d="M618.295 1041.89C626.424 1041.89 633.014 1033.13 633.014 1022.32C633.014 1011.51 626.424 1002.74 618.295 1002.74C610.166 1002.74 603.576 1011.51 603.576 1022.32C603.576 1033.13 610.166 1041.89 618.295 1041.89Z" fill="#392524"/>
<path d="M618.295 1032.86C622.672 1032.86 626.221 1028.14 626.221 1022.32C626.221 1016.5 622.672 1011.78 618.295 1011.78C613.918 1011.78 610.37 1016.5 610.37 1022.32C610.37 1028.14 613.918 1032.86 618.295 1032.86Z" fill="#95DFED"/>
<path d="M337.407 1370.57L338.506 1348.93C348.504 1352.62 371.183 1356.67 408.456 1352.75C446.027 1348.81 475.415 1345.52 490.117 1343.82L491.361 1367.21C450.382 1374.13 373.797 1382.48 337.407 1370.57Z" fill="#F0F8FE"/>
<path d="M741.224 1630.5L732.887 1639.75C730.106 1642.83 725.905 1641.83 724.104 1637.65L687.958 1553.7L661.772 1002.34C668.323 1116.24 687.958 1343.82 703.263 1449.56C717.226 1525.26 732.24 1596.19 741.224 1630.5Z" fill="#F0F8FE"/>
<path d="M449.948 1183.35C419.666 1184.9 408.699 1118.82 407.001 1085.59L405.545 1186.26L449.948 1183.35Z" fill="#F0F8FE"/>
<path d="M687.978 1176.58L453.587 1184.32L447.036 1349.85L698.168 1323.71L687.978 1176.58Z" fill="white"/>
<path d="M667.548 1175.8L661.32 1004.25M341.488 1352.75C346.205 1353.76 416.464 1352.75 416.464 1352.75C416.464 1352.75 563.504 1335.33 674.907 1323.63L341.488 1352.75ZM713.455 1318.87L674.907 1323.63L713.455 1318.87ZM392.418 1190.77L406.004 1186.38L392.418 1190.77ZM698.169 1175.8H667.548H698.169ZM406.004 1084.62V1186.38V1084.62ZM406.004 1186.38L667.548 1175.8L406.004 1186.38ZM688.493 1553.81L674.907 1323.63L688.493 1553.81Z" stroke="#392524" stroke-width="2" stroke-linecap="round"/>
<path d="M1808.82 627.721H1808.82C1785.71 627.721 1766.97 652.639 1766.97 683.376V905.995C1766.97 936.732 1785.71 961.65 1808.82 961.65C1831.94 961.65 1850.68 936.732 1850.68 905.995V683.376C1850.68 652.639 1831.94 627.721 1808.82 627.721Z" fill="white"/>
<path d="M1934.38 794.686V794.686C1934.38 763.949 1915.64 739.031 1892.53 739.031H1725.12C1702.01 739.031 1683.27 763.949 1683.27 794.686V794.686C1683.27 825.424 1702.01 850.341 1725.12 850.341H1892.53C1915.64 850.341 1934.38 825.424 1934.38 794.686Z" fill="white"/>
<path d="M803.52 2320.43C803.52 2300.02 791.076 2283.47 775.726 2283.47C760.376 2283.47 747.932 2300.02 747.932 2320.43V2468.28C747.932 2488.69 760.376 2505.24 775.726 2505.24C791.076 2505.24 803.52 2488.69 803.52 2468.28V2320.43Z" fill="white"/>
<path d="M831.313 2431.31C846.664 2431.31 859.107 2414.76 859.107 2394.35C859.107 2373.94 846.664 2357.39 831.313 2357.39H720.139C704.789 2357.39 692.345 2373.94 692.345 2394.35C692.345 2414.76 704.789 2431.31 720.139 2431.31H831.313Z" fill="white"/>
<path d="M1891.62 2344.81C1891.62 2310.94 1870.97 2283.47 1845.49 2283.47C1820.02 2283.47 1799.37 2310.94 1799.37 2344.81V2590.17C1799.37 2624.05 1820.02 2651.51 1845.49 2651.51C1870.97 2651.51 1891.62 2624.05 1891.62 2590.17V2344.81Z" fill="white"/>
<path d="M1937.74 2528.83C1963.21 2528.83 1983.86 2501.37 1983.86 2467.5C1983.86 2433.62 1963.21 2406.16 1937.74 2406.16H1753.23C1727.76 2406.16 1707.11 2433.62 1707.11 2467.5C1707.11 2501.37 1727.76 2528.83 1753.23 2528.83H1937.74Z" fill="white"/>
<path d="M964.962 2556.34C964.962 2539.84 954.901 2526.46 942.49 2526.46C930.079 2526.46 920.018 2539.84 920.018 2556.34V2675.87C920.018 2692.38 930.079 2705.76 942.49 2705.76C954.901 2705.76 964.962 2692.38 964.962 2675.87V2556.34Z" fill="white"/>
<path d="M987.433 2645.99C999.844 2645.99 1009.9 2632.61 1009.9 2616.11C1009.9 2599.61 999.844 2586.23 987.433 2586.23H897.547C885.137 2586.23 875.076 2599.61 875.076 2616.11C875.076 2632.61 885.137 2645.99 897.547 2645.99H987.433Z" fill="white"/>
<path d="M2038.91 2065.39C2038.91 2048.89 2028.85 2035.51 2016.44 2035.51C2004.03 2035.51 1993.97 2048.89 1993.97 2065.39V2184.93C1993.97 2201.43 2004.03 2214.81 2016.44 2214.81C2028.85 2214.81 2038.91 2201.43 2038.91 2184.93V2065.39Z" fill="white"/>
<path d="M2061.38 2155.04C2073.79 2155.04 2083.85 2141.66 2083.85 2125.16C2083.85 2108.65 2073.79 2095.27 2061.38 2095.27H1971.49C1959.08 2095.27 1949.02 2108.65 1949.02 2125.16C1949.02 2141.66 1959.08 2155.04 1971.49 2155.04H2061.38Z" fill="white"/>
<path d="M1155.96 1084.84C1155.96 1061.2 1141.55 1042.03 1123.77 1042.03C1105.99 1042.03 1091.57 1061.2 1091.57 1084.84V1256.09C1091.57 1279.73 1105.99 1298.9 1123.77 1298.9C1141.55 1298.9 1155.96 1279.73 1155.96 1256.09V1084.84Z" fill="white"/>
<path d="M1188.16 1213.27C1205.94 1213.27 1220.35 1194.1 1220.35 1170.46C1220.35 1146.82 1205.94 1127.65 1188.16 1127.65H1059.38C1041.6 1127.65 1027.19 1146.82 1027.19 1170.46C1027.19 1194.1 1041.6 1213.27 1059.38 1213.27H1188.16Z" fill="white"/>
<path d="M1992.39 435.565C1992.39 415.52 1980.17 399.271 1965.09 399.271C1950.02 399.271 1937.8 415.52 1937.8 435.565V580.744C1937.8 600.789 1950.02 617.039 1965.09 617.039C1980.17 617.039 1992.39 600.789 1992.39 580.744V435.565Z" fill="white"/>
<path d="M2046.98 508.153V508.153C2046.98 488.108 2034.76 471.858 2019.68 471.858H1910.51C1895.44 471.858 1883.22 488.108 1883.22 508.153V508.153C1883.22 528.198 1895.44 544.448 1910.51 544.448H2019.68C2034.76 544.448 2046.98 528.198 2046.98 508.153Z" fill="white"/>
</g>
</svg>
