<svg width="1320" height="1216" viewBox="0 0 1320 1216" fill="none" xmlns="http://www.w3.org/2000/svg">
<mask id="mask0_775_580" style="mask-type:alpha" maskUnits="userSpaceOnUse" x="0" y="0" width="1320" height="1216">
<ellipse cx="660" cy="608" rx="660" ry="608" fill="#C4C4C4"/>
</mask>
<g mask="url(#mask0_775_580)">
<path d="M1446.7 -69H-126.703V1216H1446.7V-69Z" fill="#01585E"/>
<path opacity="0.31" d="M1273.74 438.083C1364.86 669.773 1386.86 983.794 1386.86 1165.34H-55.4296C-55.4296 1003.5 -40.9919 740.103 27.5824 519.611C71.4805 526.442 128.746 544.981 160.41 586.679C214.201 657.519 351.034 798.787 476.099 827.205C601.165 855.623 943.751 770.368 1001.24 694.998C1020.55 669.689 1036.4 639.363 1051.87 609.792C1082.45 551.303 1111.48 495.766 1162.62 487.833C1201.86 481.744 1242.75 459.496 1273.74 438.083Z" fill="white"/>
<path d="M1393.58 1156.69H-69.5497C-73.6346 1156.69 -76.946 1160.75 -76.946 1165.76C-76.946 1170.76 -73.6346 1174.82 -69.5497 1174.82H1393.58C1397.67 1174.82 1400.98 1170.76 1400.98 1165.76C1400.98 1160.75 1397.67 1156.69 1393.58 1156.69Z" fill="#C4C7E9"/>
<path d="M113.665 914.148C118.738 897.929 118.354 845.606 76.2333 766.118C34.1124 686.63 25.3194 641.371 26.1875 628.678" stroke="#067B78" stroke-width="0.745717"/>
<path d="M21.4806 615.882C21.1215 606.224 22.8301 603.817 25.0429 603.694C27.2565 603.57 29.1358 605.777 29.4949 615.436C29.8539 625.094 27.4259 633.076 26.1383 633.147C24.85 633.219 21.8396 625.541 21.4806 615.882Z" fill="#067B78"/>
<path d="M39.3629 659.144C41.879 645.825 44.9539 643.344 48.0059 644.21C51.0572 645.075 52.9305 648.958 50.4144 662.277C47.8983 675.596 42.109 685.33 40.3325 684.827C38.5567 684.324 36.8468 672.463 39.3629 659.144Z" fill="#067B78"/>
<path d="M57.0776 703.272C59.5937 689.953 62.6686 687.472 65.7206 688.338C68.7726 689.203 70.6452 693.086 68.1291 706.406C65.613 719.724 59.8237 729.458 58.0479 728.955C56.2714 728.452 54.5615 716.591 57.0776 703.272Z" fill="#067B78"/>
<path d="M79.9918 752.63C82.5079 739.311 85.5828 736.83 88.6348 737.696C91.6868 738.561 93.5594 742.444 91.044 755.764C88.5279 769.084 82.7385 778.82 80.9621 778.309C79.1856 777.807 77.4757 765.945 79.9918 752.63Z" fill="#067B78"/>
<path d="M102.906 801.992C105.422 788.672 108.497 786.193 111.549 787.058C114.601 787.923 116.474 791.802 113.958 805.122C111.442 818.441 105.652 828.178 103.876 827.667C102.1 827.165 100.39 815.303 102.906 801.992Z" fill="#067B78"/>
<path d="M118.386 859.453C122.98 846.99 126.392 845.294 129.246 846.875C132.101 848.457 133.318 852.715 128.724 865.17C124.129 877.633 116.897 885.788 115.236 884.873C113.574 883.951 113.791 871.908 118.386 859.453Z" fill="#067B78"/>
<path d="M23.9671 667.557C14.1965 660.953 10.6355 662.099 9.12263 665.459C7.60906 668.819 8.71582 673.12 18.4871 679.725C28.2577 686.33 38.0383 687.556 38.9192 685.6C39.8 683.645 33.7384 674.162 23.9671 667.557Z" fill="#067B78"/>
<path d="M42.5984 711.185C32.8272 704.58 29.2668 705.726 27.7533 709.086C26.2397 712.446 27.3472 716.747 37.1177 723.352C46.889 729.957 56.669 731.182 57.5498 729.227C58.4307 727.272 52.369 717.789 42.5984 711.185Z" fill="#067B78"/>
<path d="M65.5125 760.543C55.7419 753.938 52.1809 755.081 50.6673 758.442C49.1538 761.803 50.2612 766.103 60.0318 772.709C69.8031 779.315 79.5831 780.542 80.4639 778.582C81.3447 776.63 75.2831 767.149 65.5125 760.543Z" fill="#067B78"/>
<path d="M88.4263 809.9C78.6557 803.294 75.0947 804.439 73.5811 807.8C72.0682 811.16 73.175 815.46 82.9463 822.066C92.7168 828.673 102.497 829.9 103.378 827.948C104.259 825.987 98.1975 816.506 88.4263 809.9Z" fill="#067B78"/>
<path d="M102.923 863.746C94.3954 854.924 90.7201 855.196 88.6996 858.128C86.679 861.061 87.0777 865.542 95.605 874.364C104.132 883.178 113.528 886.728 114.704 885.023C115.88 883.31 111.45 872.56 102.923 863.746Z" fill="#067B78"/>
<path d="M1207.96 914.148C1202.88 897.929 1203.26 845.606 1245.39 766.118C1287.51 686.63 1296.3 641.371 1295.43 628.678" stroke="#067B78" stroke-width="0.745717"/>
<path d="M1300.13 615.882C1300.5 606.224 1298.79 603.817 1296.58 603.694C1294.37 603.57 1292.48 605.777 1292.13 615.436C1291.76 625.094 1294.19 633.076 1295.48 633.147C1296.77 633.219 1299.78 625.541 1300.13 615.882Z" fill="#067B78"/>
<path d="M1282.26 659.144C1279.74 645.825 1276.67 643.344 1273.62 644.21C1270.56 645.075 1268.69 648.958 1271.2 662.277C1273.72 675.596 1279.51 685.33 1281.29 684.827C1283.06 684.324 1284.77 672.463 1282.26 659.144Z" fill="#067B78"/>
<path d="M1264.54 703.272C1262.02 689.953 1258.95 687.472 1255.9 688.338C1252.84 689.203 1250.98 693.086 1253.49 706.406C1256.01 719.724 1261.79 729.458 1263.57 728.955C1265.34 728.452 1267.06 716.591 1264.54 703.272Z" fill="#067B78"/>
<path d="M1241.63 752.63C1239.11 739.311 1236.03 736.83 1232.98 737.696C1229.93 738.561 1228.06 742.444 1230.58 755.764C1233.09 769.084 1238.88 778.82 1240.65 778.309C1242.43 777.807 1244.14 765.945 1241.63 752.63Z" fill="#067B78"/>
<path d="M1218.71 801.992C1216.2 788.672 1213.12 786.193 1210.07 787.058C1207.02 787.923 1205.15 791.802 1207.66 805.122C1210.17 818.441 1215.96 828.178 1217.75 827.667C1219.52 827.165 1221.23 815.303 1218.71 801.992Z" fill="#067B78"/>
<path d="M1203.24 859.453C1198.64 846.99 1195.23 845.294 1192.37 846.875C1189.52 848.457 1188.3 852.715 1192.89 865.17C1197.49 877.633 1204.72 885.788 1206.38 884.873C1208.04 883.951 1207.83 871.908 1203.24 859.453Z" fill="#067B78"/>
<path d="M1297.65 667.557C1307.42 660.953 1310.98 662.099 1312.49 665.459C1314.01 668.819 1312.9 673.12 1303.13 679.725C1293.36 686.33 1283.58 687.556 1282.7 685.6C1281.82 683.645 1287.88 674.162 1297.65 667.557Z" fill="#067B78"/>
<path d="M1279.02 711.185C1288.79 704.58 1292.35 705.726 1293.87 709.086C1295.38 712.446 1294.27 716.747 1284.5 723.352C1274.73 729.957 1264.95 731.182 1264.07 729.227C1263.19 727.272 1269.25 717.789 1279.02 711.185Z" fill="#067B78"/>
<path d="M1256.11 760.543C1265.88 753.938 1269.44 755.081 1270.95 758.442C1272.47 761.803 1271.36 766.103 1261.59 772.709C1251.82 779.315 1242.03 780.542 1241.15 778.582C1240.27 776.63 1246.34 767.149 1256.11 760.543Z" fill="#067B78"/>
<path d="M1233.19 809.9C1242.96 803.294 1246.52 804.439 1248.04 807.8C1249.55 811.16 1248.44 815.46 1238.67 822.066C1228.9 828.673 1219.12 829.9 1218.24 827.948C1217.36 825.987 1223.42 816.506 1233.19 809.9Z" fill="#067B78"/>
<path d="M1218.69 863.746C1227.23 854.924 1230.9 855.196 1232.92 858.128C1234.94 861.061 1234.54 865.542 1226.02 874.364C1217.48 883.178 1208.09 886.728 1206.91 885.023C1205.74 883.31 1210.17 872.56 1218.69 863.746Z" fill="#067B78"/>
<path d="M307.407 1126.86C342.591 1103.22 333.652 1000.38 287.443 897.151C241.233 793.923 175.25 729.402 140.066 753.039C104.883 776.676 113.821 879.52 160.031 982.747C206.241 1085.98 272.223 1150.5 307.407 1126.86Z" fill="#067B78"/>
<path d="M191.84 868.712L195.189 831.043M307.108 1126.21L287.936 1083.37L307.108 1126.21ZM177.639 836.982L191.84 868.712L177.639 836.982ZM287.936 1083.37L308.221 1016.45L287.936 1083.37ZM287.936 1083.37L264.385 1030.77L287.936 1083.37ZM264.385 1030.77L208.618 1029.72L264.385 1030.77ZM264.385 1030.77L240.48 977.361L264.385 1030.77ZM240.48 977.361L264.204 911.224L240.48 977.361ZM240.48 977.361L214.444 919.206L240.48 977.361ZM214.444 919.206L164.649 908.3L214.444 919.206ZM214.444 919.206L191.84 868.712L214.444 919.206Z" stroke="white" stroke-width="9.08037" stroke-linecap="round"/>
<path d="M1034.82 897.148C988.607 1000.38 979.671 1103.22 1014.86 1126.86C1050.04 1150.49 1116.02 1085.97 1162.23 982.748C1208.44 879.52 1217.38 776.671 1182.2 753.036C1147.01 729.399 1081.03 793.919 1034.82 897.148Z" fill="#067B78"/>
<path d="M1130.42 868.712L1127.07 831.043M1015.15 1126.21L1034.32 1083.37L1015.15 1126.21ZM1144.62 836.982L1130.42 868.712L1144.62 836.982ZM1034.32 1083.37L1014.04 1016.45L1034.32 1083.37ZM1034.32 1083.37L1057.88 1030.77L1034.32 1083.37ZM1057.88 1030.77L1113.65 1029.72L1057.88 1030.77ZM1057.88 1030.77L1081.78 977.361L1057.88 1030.77ZM1081.78 977.361L1058.06 911.224L1081.78 977.361ZM1081.78 977.361L1107.82 919.206L1081.78 977.361ZM1107.82 919.206L1157.61 908.3L1107.82 919.206ZM1107.82 919.206L1130.42 868.712L1107.82 919.206Z" stroke="white" stroke-width="9.08037" stroke-linecap="round"/>
<path fill-rule="evenodd" clip-rule="evenodd" d="M178.172 1144.17C214.281 1110.36 189.969 997.064 123.868 891.118C57.767 785.179 -25.091 726.701 -61.2009 760.509C-91.4803 788.861 -64.7514 900.557 -21.0459 989.486L22.3209 988.514C24.0187 988.481 24.2675 991.496 22.5986 991.875L-15.0865 1000.43C51.0148 1106.38 142.062 1177.98 178.172 1144.17Z" fill="#21C3C5"/>
<path d="M12.862 879.232L11.3719 836.357M177.746 1143.51L150.322 1099.55L177.746 1143.51ZM-7.45246 846.67L12.862 879.232L-7.45246 846.67ZM150.322 1099.55L163.728 1020.37L150.322 1099.55ZM150.322 1099.55L116.634 1045.56L150.322 1099.55ZM116.634 1045.56L54.0422 1056.02L116.634 1045.56ZM116.634 1045.56L82.4388 990.747L116.634 1045.56ZM82.4388 990.747L99.8041 911.728L82.4388 990.747ZM82.4388 990.747L45.1955 931.052L82.4388 990.747ZM45.1955 931.052L-12.0792 929.232L45.1955 931.052ZM45.1955 931.052L12.862 879.232L45.1955 931.052Z" stroke="#067B78" stroke-width="10.2848" stroke-linecap="round"/>
<path fill-rule="evenodd" clip-rule="evenodd" d="M1144.09 1144.17C1107.98 1110.36 1132.29 997.064 1198.39 891.118C1264.49 785.179 1347.35 726.701 1383.46 760.509C1413.74 788.861 1387.01 900.557 1343.31 989.486L1299.94 988.514C1298.25 988.481 1297.99 991.496 1299.66 991.875L1337.35 1000.43C1271.25 1106.38 1180.2 1177.98 1144.09 1144.17Z" fill="#21C3C5"/>
<path d="M1309.4 879.232L1310.89 836.357M1144.51 1143.51L1171.94 1099.55L1144.51 1143.51ZM1329.71 846.67L1309.4 879.232L1329.71 846.67ZM1171.94 1099.55L1158.53 1020.37L1171.94 1099.55ZM1171.94 1099.55L1205.63 1045.56L1171.94 1099.55ZM1205.63 1045.56L1268.22 1056.02L1205.63 1045.56ZM1205.63 1045.56L1239.82 990.747L1205.63 1045.56ZM1239.82 990.747L1222.46 911.728L1239.82 990.747ZM1239.82 990.747L1277.06 931.052L1239.82 990.747ZM1277.06 931.052L1334.34 929.232L1277.06 931.052ZM1277.06 931.052L1309.4 879.232L1277.06 931.052Z" stroke="#067B78" stroke-width="10.2848" stroke-linecap="round"/>
<path d="M50.5121 1034.35C-15.1669 1051.88 -34.0337 1123.22 -35.2574 1156.69H1376.77C1368.77 1075.69 1304.69 1004.19 1255.96 994.265C1207.24 984.347 1203.57 1004.19 1160.51 1004.19C1117.46 1004.19 1108.12 987.658 1061.06 958.721C1023.42 935.583 966.835 968.367 943.254 987.658L446.989 1004.19C428.634 1004.46 386.717 1001.54 365.892 987.658C339.86 970.294 324.842 993.029 274.782 994.265C224.722 995.508 226.057 956.242 174.328 958.721C122.599 961.2 132.611 1012.45 50.5121 1034.35Z" fill="#1BA39F"/>
<path d="M401.962 234.954H401.962C391.287 234.954 382.633 245.555 382.633 258.633V353.351C382.633 366.429 391.287 377.031 401.962 377.031C412.638 377.031 421.292 366.429 421.292 353.351V258.633C421.292 245.555 412.638 234.954 401.962 234.954Z" fill="white"/>
<path d="M459.951 305.991V305.991C459.951 292.913 451.297 282.312 440.621 282.312H363.303C352.628 282.312 343.974 292.913 343.974 305.991C343.974 319.069 352.628 329.671 363.303 329.671H440.621C451.297 329.671 459.951 319.069 459.951 305.991Z" fill="white"/>
<path d="M512.753 149.494C512.753 143.92 509.064 139.401 504.514 139.401C499.964 139.401 496.276 143.92 496.276 149.494V189.865C496.276 195.439 499.964 199.958 504.514 199.958C509.064 199.958 512.753 195.439 512.753 189.865V149.494Z" fill="white"/>
<path d="M520.991 179.772C525.542 179.772 529.23 175.253 529.23 169.679C529.23 164.105 525.542 159.586 520.991 159.586H488.037C483.487 159.586 479.798 164.105 479.798 169.679C479.798 175.253 483.487 179.772 488.037 179.772H520.991Z" fill="white"/>
<path d="M671.309 1127.03C875.784 1127.03 1041.54 923.963 1041.54 673.471C1041.54 422.979 875.784 219.916 671.309 219.916C466.834 219.916 301.075 422.979 301.075 673.471C301.075 923.963 466.834 1127.03 671.309 1127.03Z" fill="#5ADAF1"/>
<path d="M626.873 1065C843.992 1065 1020 883.745 1020 660.154C1020 548.54 976.141 447.476 905.2 374.241C844.227 334.201 771.809 311 694.129 311C477.009 311 301 492.256 301 715.846C301 827.461 344.86 928.522 415.798 1001.76C476.776 1041.8 549.193 1065 626.873 1065Z" fill="#74E9FF"/>
<path d="M1037.36 735.089C1037.75 735.247 1038.18 734.926 1038.23 734.417C1040.41 714.483 1041.54 694.138 1041.54 673.471C1041.54 568.608 1012.5 472.056 963.715 395.235C963.594 395.04 963.405 394.924 963.204 394.919C952.344 394.587 940.994 395.32 932.26 398.293C921.535 401.942 913.668 406.444 906.534 410.523C898.412 415.171 891.251 419.269 881.918 420.932C864.395 424.054 853.556 435.764 852.285 444.742C851.008 453.72 869.808 460.745 895.298 456.452C907.408 456.452 911.866 476.748 895.298 476.358C890.128 476.236 884.406 475.583 878.69 474.93C866.083 473.492 853.543 472.061 847.188 476.358C843.41 478.91 838.575 484.785 833.404 491.055V491.056C825.934 500.13 817.778 510.031 811.182 511.878C800.033 515 788.239 522.416 786.33 541.542C784.42 560.668 790.472 563.01 795.568 563.01C797.088 563.01 799.32 562.42 801.781 561.768C807.577 560.233 814.678 558.353 816.917 563.01C817.724 564.692 818.349 568.002 819.089 571.932C821.267 583.511 824.461 600.465 836.356 596.968C844.048 594.706 851.142 586.801 857.469 579.758C864.24 572.217 870.131 565.662 874.905 568.084C879.988 570.659 886.51 576.774 892.521 582.406C897.443 587.019 902.022 591.308 905.176 593.065C912.182 596.968 920.466 610.239 911.227 617.265C906.151 621.126 901.168 617.207 895.44 612.699C890.74 609.004 885.542 604.912 879.369 604.384C871.038 603.672 869.068 608.733 866.795 614.564C865.336 618.323 863.749 622.402 860.253 625.462C851.33 633.268 855.472 650.833 869.492 652.004C883.511 653.175 883.511 674.252 865.35 678.936C858.054 680.818 852.507 683.708 847.545 686.289C840.169 690.133 834.097 693.295 825.517 691.427C819.889 690.2 817.058 690.72 815.021 691.094C811.874 691.672 810.623 691.901 803.852 684.791C802.575 683.448 801.25 681.895 799.831 680.23L799.825 680.227C788.858 667.369 772.196 647.831 727.065 666.836C709.058 674.696 703.154 687.662 698.434 698.03C695.886 703.623 693.68 708.46 690.11 711.333C679.91 719.529 667.484 768.714 690.11 787.84C694.501 791.547 698.764 794.735 702.798 797.75L702.805 797.758C719.554 810.27 732.464 819.924 735.033 852.634C736.949 877.066 733.674 919.742 730.763 957.675C728.833 982.765 727.065 1005.78 727.065 1020.08C727.065 1055.99 756.697 1066.92 791.11 1025.15C797.626 1017.92 801.109 1012.78 804.276 1008.1C809.326 1000.65 813.589 994.355 828.072 982.609C839.799 973.095 843.167 959.034 846.503 945.146C849.865 931.118 853.179 917.271 865.027 908.449C868.873 905.583 872.739 902.807 876.498 900.113C895.796 886.267 912.404 874.347 910.273 861.604C909.109 854.669 900.53 854.059 890.417 853.334C878.354 852.478 864.113 851.464 857.698 839.356C849.501 823.886 856.098 801.794 860.986 785.452C863.124 778.294 864.933 772.239 865.027 768.318C865.162 762.931 866.231 752.598 867.481 742.128C867.918 738.48 871.805 738.72 871.926 742.404C872.531 760.954 872.612 780.74 870.763 785.888C870.332 787.091 869.841 788.392 869.324 789.76V789.768C865.646 799.504 860.603 812.849 865.35 821.407C870.763 831.16 886.376 843.656 892.75 839.356C892.878 839.273 893.012 839.183 893.147 839.092L893.402 838.919C893.678 838.73 893.967 838.532 894.263 838.334C900.873 833.829 911.671 826.481 921.105 826.481C931.298 826.481 945.957 825.311 956.473 818.285C961.106 815.188 966.485 812.997 971.104 811.119C976.968 808.738 981.607 806.852 981.963 804.232C982.138 802.931 983.416 800.196 984.949 796.91C988.963 788.31 994.753 775.913 987.376 775.345C981.849 774.925 980.538 772.429 979.119 769.743C977.929 767.47 976.658 765.065 972.725 763.64C964.118 760.518 951.376 748.804 948.189 716.797C945.002 684.791 951.692 673.081 956.473 678.936C958.1 680.933 959.25 684.157 960.675 688.157C963.432 695.884 967.218 706.51 977.499 716.797C987.222 726.52 995.586 726.858 1004.98 727.238C1010.66 727.468 1016.73 727.712 1023.7 730.068C1028.51 731.695 1033.14 733.421 1037.36 735.089Z" fill="#1CC6C8"/>
<path d="M534.126 1094.87C534.422 1095.02 534.76 1094.89 534.933 1094.56C536.6 1091.4 538.298 1087.65 540.008 1083.86C543.953 1075.14 547.966 1066.27 551.825 1064.18C552.935 1063.59 554.118 1062.97 555.335 1062.34H555.342C562.866 1058.42 571.977 1053.67 576.361 1046.62C578.748 1042.79 583.643 1041.86 589.022 1040.84C595.148 1039.67 601.905 1038.38 606.309 1032.57C608.797 1029.29 611.09 1024.98 613.484 1020.47C619.065 1009.96 625.244 998.334 635.942 995.879C651.239 992.37 666.213 978.704 671.626 969.726C677.045 960.747 666.213 953.721 646.774 949.825C627.342 945.92 617.78 933.424 619.69 922.107C621.606 910.789 622.877 878.005 599.619 869.413C587.422 864.908 579.434 864.595 573.396 864.356C567.922 864.133 564.049 863.985 560.109 860.83C556.875 858.235 554.367 854.628 551.98 851.193C548.261 845.847 544.836 840.921 539.401 840.921C532.816 841.44 518.946 845.839 516.142 859.265C515.212 863.721 514.573 868.861 513.923 874.1C512.123 888.598 510.23 903.836 501.804 907.271C490.334 911.958 479.182 928.35 482.049 937.329C483.07 940.525 484.98 945.5 487.174 951.225H487.174C491.143 961.571 496.042 974.339 498.299 983.391C501.804 997.444 506.264 1024.37 506.264 1038.42C506.264 1047.08 511.711 1069.98 517.605 1085.99C517.671 1086.17 517.789 1086.32 517.937 1086.41C523.266 1089.38 528.664 1092.2 534.126 1094.87Z" fill="#1CC6C8"/>
<path d="M414.313 347.651C414.069 347.53 413.792 347.6 413.603 347.824C344.205 430.261 301.074 545.695 301.074 673.47C301.074 705.622 303.805 736.992 308.998 767.254C309.025 767.411 309.088 767.551 309.18 767.666C316.228 776.307 323.005 784.528 327.519 789.783C339.681 803.959 349.633 803.243 356.347 802.765C356.846 802.732 357.326 802.691 357.788 802.666C360.216 802.526 364.448 806.653 370.224 812.279C380.368 822.163 395.276 836.694 413.546 840.919C425.782 843.753 437.263 850.631 446.853 856.381C459.736 864.099 469.203 869.774 472.491 860.829C478.226 845.211 457.515 833.111 449.869 830.384C447.167 829.412 445.659 826.595 443.896 823.308C440.67 817.287 436.592 809.668 422.786 808.91C404.872 807.93 395.035 797.6 388.38 790.615C387.105 789.272 385.946 788.061 384.87 787.057C381.109 783.547 381.476 776.085 381.839 768.704C382.122 762.955 382.403 757.246 380.728 753.487C376.905 744.899 366.71 735.531 357.788 737.093C348.867 738.654 350.46 721.48 353.964 709.38C357.104 698.541 365.101 698.977 404.973 701.149H404.975L404.982 701.15C409.621 701.403 414.692 701.679 420.237 701.964C473.446 704.696 480.775 680.106 482.368 671.909C482.865 669.35 483.797 667.324 484.796 665.154C486.995 660.37 489.517 654.888 488.421 641.464C486.828 621.947 490.334 615.312 506.264 602.041C517.291 592.855 523.433 579.182 528.916 566.974C531.356 561.545 533.664 556.406 536.215 552.079C539.893 545.839 546.775 542.986 553.573 540.169C562.079 536.644 570.45 533.176 572.219 523.196C575.406 505.24 567.761 486.505 559.154 472.454C550.554 458.402 555.967 444.741 563.296 429.128C570.625 413.514 558.199 409.612 541.949 415.076C525.7 420.541 497.343 418.589 490.334 406.879C483.324 395.169 472.172 390.095 461.976 387.363C459.959 386.823 458.178 386.557 456.519 386.309C449.792 385.306 445.054 384.599 434.575 367.067C428.421 356.769 420.786 350.839 414.313 347.651Z" fill="#1CC6C8"/>
<path d="M580.186 314.373C571.687 312.031 552.464 308.05 543.542 310.86C532.39 314.373 531.116 321.789 532.709 329.206C534.303 336.622 533.984 342.477 527.612 350.283C521.239 358.089 517.097 377.215 546.089 381.509C575.083 385.803 611.406 382.289 618.419 370.189C625.197 358.494 626.313 357.374 629.547 354.139L629.89 353.795C633.393 350.283 649.006 331.548 580.186 314.373Z" fill="#1CC6C8"/>
<path d="M485.236 354.186C480.138 346.38 480.138 338.109 485.236 333.499C498.618 321.399 502.76 337.403 503.397 343.647C504.034 349.893 491.608 363.945 485.236 354.186Z" fill="#1CC6C8"/>
<path d="M661.432 389.315C650.217 383.383 653.572 370.45 656.652 364.725C663.026 355.224 673.73 357.818 682.485 359.94C683.803 360.259 685.074 360.567 686.284 360.822C693.768 362.403 698.118 362.191 713.718 361.431H713.725H713.731C717.389 361.253 721.666 361.044 726.749 360.822C742.537 360.131 744.796 362.428 747.398 365.07C749.207 366.906 751.177 368.909 757.975 370.189C774.543 373.312 778.685 381.118 775.498 385.803C774.644 387.056 773.407 388.533 772.028 390.174C768.256 394.664 763.455 400.382 762.756 406.099C762.07 411.657 750.088 417.611 732.202 426.495C724.96 430.09 716.764 434.164 707.949 438.887C677.361 455.28 680.549 430.299 682.781 417.028C685.007 403.757 675.452 396.732 661.432 389.315Z" fill="#1CC6C8"/>
<path d="M589.466 425.968C589.439 425.992 589.412 426.019 589.385 426.048C587.045 428.815 582.674 436.353 583.69 444.741C584.961 455.28 591.974 459.963 604.4 459.963C616.825 459.963 624.471 465.038 624.793 469.722C625.109 474.406 623.2 482.993 606.309 488.848C589.425 494.702 589.103 513.048 604.4 515.39C619.69 517.732 661.432 510.316 663.98 486.505C665.52 472.103 660.417 469.269 655.3 466.426C651.951 464.571 648.603 462.711 647.097 457.622C643.271 444.746 626.394 394.429 589.466 425.968Z" fill="#1CC6C8"/>
<path d="M464.844 780.419C455.413 775.114 451.78 763.895 451.143 758.953C450.233 755.229 453.079 755.493 456.296 755.79C457.799 755.93 459.383 756.078 460.702 755.831C463.471 755.312 477.212 764.562 487.441 771.448C492.51 774.859 496.715 777.692 498.299 778.466C498.823 778.722 499.381 778.985 499.954 779.249H499.96H499.962H499.964C504.617 781.391 510.233 783.969 506.264 790.567C501.803 797.989 476.633 787.058 464.844 780.419Z" fill="#1CC6C8"/>
<path d="M482.049 815.155C482.156 818.541 483.961 826.086 490.334 829.208C498.299 833.113 516.142 836.63 518.372 830.386C520.602 824.134 506.902 813.599 501.804 815.155C499.832 815.765 496.43 814.735 492.999 813.689C487.56 812.042 482.049 810.37 482.049 815.155Z" fill="#1CC6C8"/>
<path fill-rule="evenodd" clip-rule="evenodd" d="M969.82 707.493C975.313 676.421 978.205 644.163 978.205 611.078C978.205 533.875 962.457 461.177 934.687 397.541C933.86 397.774 933.047 398.024 932.26 398.293C921.535 401.942 913.668 406.443 906.534 410.522C898.411 415.17 891.25 419.269 881.918 420.932C864.395 424.054 853.556 435.764 852.285 444.741C851.007 453.719 869.808 460.744 895.298 456.451C907.408 456.451 911.866 476.748 895.298 476.357C890.127 476.235 884.405 475.582 878.69 474.93C866.083 473.491 853.542 472.061 847.188 476.357C843.409 478.909 838.575 484.783 833.411 491.052V491.053L833.404 491.054V491.055C825.934 500.13 817.778 510.03 811.181 511.877C800.033 514.999 788.239 522.415 786.33 541.541C784.42 560.667 790.472 563.009 795.568 563.009C797.088 563.009 799.32 562.419 801.781 561.768V561.767C807.577 560.232 814.678 558.352 816.917 563.009C817.724 564.691 818.349 568.002 819.089 571.932C821.267 583.511 824.461 600.464 836.356 596.968C844.048 594.706 851.142 586.8 857.469 579.758C864.24 572.216 870.13 565.661 874.904 568.083C879.988 570.658 886.51 576.773 892.521 582.405C897.443 587.018 902.022 591.307 905.176 593.064C912.182 596.968 920.466 610.239 911.227 617.264C906.151 621.125 901.168 617.206 895.439 612.698C890.739 609.003 885.542 604.911 879.369 604.384C871.038 603.671 869.068 608.732 866.795 614.563C865.336 618.322 863.749 622.401 860.253 625.461C851.33 633.267 855.472 650.832 869.492 652.003C883.511 653.174 883.511 674.251 865.35 678.935C858.054 680.817 852.507 683.707 847.545 686.288C840.168 690.133 834.097 693.294 825.517 691.426C819.889 690.199 817.058 690.719 815.021 691.093C811.874 691.671 810.623 691.9 803.852 684.79C802.575 683.448 801.25 681.896 799.831 680.232V680.23V680.229L799.825 680.226C788.858 667.368 772.196 647.831 727.065 666.835C709.058 674.695 703.154 687.661 698.434 698.03C695.886 703.623 693.68 708.46 690.11 711.332C679.91 719.529 667.484 768.713 690.11 787.84C694.501 791.546 698.764 794.734 702.798 797.749L702.805 797.757C719.554 810.27 732.464 819.923 735.033 852.633C736.949 877.065 733.674 919.742 730.763 957.674C728.833 982.764 727.065 1005.78 727.065 1020.08C727.065 1027.6 728.369 1034.02 730.743 1039.11C771.315 1021.64 808.66 995.754 841.372 963.168C843.564 957.394 845.037 951.257 846.502 945.145C849.864 931.117 853.179 917.271 865.027 908.448C868.873 905.582 872.739 902.806 876.498 900.112C895.796 886.266 912.404 874.347 910.272 861.604C909.109 854.668 900.529 854.058 890.417 853.333C878.354 852.477 864.112 851.464 857.698 839.355C849.501 823.886 856.098 801.793 860.986 785.451C863.124 778.293 864.933 772.238 865.027 768.318C865.161 762.93 866.23 752.597 867.481 742.127C867.918 738.479 871.805 738.719 871.926 742.403C872.531 760.953 872.612 780.739 870.762 785.887C870.332 787.09 869.841 788.392 869.324 789.759V789.767C865.646 799.504 860.603 812.848 865.35 821.406C870.762 831.159 886.376 843.655 892.75 839.355L892.864 839.281L893.026 839.174L893.147 839.091L893.402 838.918C893.678 838.729 893.967 838.531 894.263 838.334C900.872 833.828 911.671 826.48 921.105 826.48C924.984 826.48 929.51 826.307 934.21 825.714C944.363 802.592 952.929 778.276 959.727 752.976C954.516 745.696 949.93 734.272 948.189 716.796C945.002 684.79 951.692 673.08 956.473 678.935C958.1 680.933 959.25 684.156 960.675 688.156C962.598 693.554 965.026 700.368 969.82 707.493ZM558.582 1060.63C565.326 1057.04 572.588 1052.68 576.361 1046.62C578.748 1042.79 583.643 1041.86 589.022 1040.84C595.147 1039.67 601.905 1038.38 606.309 1032.57C608.797 1029.29 611.09 1024.98 613.483 1020.47C619.064 1009.96 625.244 998.333 635.942 995.878C651.239 992.369 666.213 978.703 671.626 969.725C677.045 960.746 666.213 953.72 646.774 949.824C627.342 945.919 617.78 933.424 619.69 922.106C621.606 910.788 622.877 878.004 599.619 869.412C587.421 864.907 579.433 864.594 573.395 864.355C567.922 864.132 564.049 863.984 560.109 860.829C556.874 858.235 554.366 854.627 551.979 851.192C548.261 845.846 544.836 840.92 539.4 840.92C532.816 841.439 518.945 845.838 516.141 859.264C515.211 863.721 514.573 868.861 513.922 874.099C512.122 888.597 510.23 903.836 501.803 907.271C490.333 911.957 479.182 928.349 482.049 937.328C483.07 940.524 484.979 945.499 487.173 951.224H487.174C491.142 961.57 496.041 974.338 498.299 983.39C501.803 997.443 506.264 1024.37 506.264 1038.42C506.264 1040.67 506.63 1043.87 507.275 1047.66C523.93 1053.41 541.062 1057.77 558.582 1060.63ZM580.186 314.373C571.687 312.031 552.464 308.05 543.542 310.86C532.391 314.373 531.116 321.789 532.709 329.206C534.303 336.622 533.984 342.477 527.612 350.283C521.24 358.089 517.097 377.215 546.089 381.509C575.083 385.803 611.406 382.289 618.419 370.189C625.197 358.494 626.313 357.374 629.547 354.139L629.89 353.795C633.393 350.283 649.006 331.548 580.186 314.373ZM413.603 347.825C413.791 347.6 414.069 347.531 414.313 347.651C420.786 350.84 428.421 356.77 434.575 367.067C445.054 384.6 449.792 385.307 456.519 386.31C458.178 386.557 459.959 386.823 461.976 387.363C472.172 390.096 483.324 395.17 490.334 406.88C497.343 418.59 525.7 420.541 541.949 415.077C558.199 409.612 570.625 413.515 563.296 429.128C555.967 444.741 550.554 458.403 559.154 472.454C567.761 486.505 575.406 505.241 572.219 523.196C570.45 533.176 562.079 536.644 553.573 540.17C546.775 542.986 539.893 545.839 536.214 552.08C533.664 556.406 531.356 561.545 528.916 566.974C523.433 579.183 517.291 592.856 506.264 602.042C490.334 615.313 486.828 621.948 488.421 641.464C489.517 654.888 486.995 660.371 484.796 665.154C483.797 667.325 482.865 669.35 482.368 671.91C480.775 680.106 473.446 704.697 420.237 701.965C414.692 701.68 409.621 701.404 404.982 701.151L404.975 701.15H404.973C365.1 698.978 357.104 698.542 353.964 709.38C350.46 721.481 348.867 738.655 357.788 737.094C366.709 735.532 376.905 744.9 380.728 753.487C382.402 757.247 382.122 762.955 381.839 768.705C381.476 776.085 381.109 783.548 384.87 787.057C385.946 788.062 387.105 789.273 388.38 790.616C395.035 797.601 404.872 807.93 422.786 808.91C436.592 809.668 440.67 817.288 443.896 823.309C445.659 826.596 447.167 829.413 449.869 830.385C457.515 833.111 478.226 845.212 472.491 860.829C469.203 869.775 459.736 864.1 446.852 856.381C437.263 850.632 425.781 843.754 413.546 840.92C395.276 836.694 380.368 822.164 370.224 812.279C364.447 806.653 360.215 802.527 357.788 802.667C357.325 802.691 356.845 802.732 356.347 802.765C349.633 803.243 339.68 803.96 327.519 789.784C323.005 784.528 316.227 776.308 309.18 767.667C309.088 767.551 309.025 767.411 308.998 767.255C303.805 736.992 301.073 705.623 301.073 673.47C301.073 545.695 344.204 430.261 413.603 347.825ZM485.235 333.499C480.137 338.108 480.137 346.379 485.235 354.186C491.608 363.944 504.034 349.893 503.397 343.647C502.759 337.403 498.617 321.398 485.235 333.499ZM661.432 389.315C650.217 383.382 653.572 370.449 656.651 364.724C663.026 355.224 673.73 357.818 682.485 359.939C683.803 360.258 685.074 360.566 686.284 360.822C693.768 362.402 698.118 362.191 713.718 361.43H713.724H713.731C717.389 361.252 721.665 361.044 726.749 360.822C742.537 360.131 744.796 362.428 747.398 365.07C749.207 366.906 751.177 368.909 757.975 370.189C774.543 373.312 778.685 381.118 775.497 385.803C774.643 387.055 773.406 388.532 772.028 390.173C768.256 394.664 763.455 400.382 762.755 406.099C762.07 411.657 750.088 417.61 732.202 426.495C724.96 430.09 716.764 434.164 707.948 438.886C677.361 455.28 680.548 430.299 682.781 417.028C685.006 403.757 675.452 396.732 661.432 389.315ZM589.385 426.048C589.412 426.019 589.439 425.992 589.466 425.968C626.394 394.429 643.271 444.746 647.097 457.622C648.603 462.711 651.951 464.571 655.3 466.426C660.417 469.269 665.52 472.103 663.98 486.505C661.432 510.316 619.69 517.732 604.399 515.39C589.102 513.048 589.425 494.702 606.309 488.848C623.2 482.993 625.109 474.406 624.793 469.722C624.47 465.038 616.825 459.964 604.399 459.964C591.974 459.964 584.96 455.28 583.69 444.741C582.674 436.353 587.045 428.815 589.385 426.048ZM464.844 780.418C455.413 775.113 451.78 763.894 451.143 758.952C450.232 755.229 453.079 755.492 456.296 755.789C457.799 755.929 459.382 756.077 460.702 755.83C463.471 755.311 477.212 764.561 487.441 771.448H487.442H487.446L487.45 771.456C492.514 774.866 496.717 777.691 498.299 778.466C498.823 778.721 499.381 778.985 499.953 779.248H499.96H499.962H499.964C504.617 781.39 510.233 783.968 506.264 790.566C501.803 797.988 476.633 787.057 464.844 780.418ZM490.334 829.207C483.961 826.085 482.155 818.54 482.049 815.154C482.049 810.368 487.56 812.04 492.998 813.688C496.429 814.734 499.832 815.764 501.803 815.154C506.901 813.597 520.602 824.133 518.372 830.385C516.141 836.628 498.299 833.111 490.334 829.207Z" fill="#28D7D9"/>
<path d="M482.553 382.99L482.553 382.989C463.389 367.648 437.701 374.243 425.177 397.72L336.61 563.757C324.087 587.234 329.47 618.703 348.635 634.045C367.799 649.387 393.487 642.792 406.01 619.314L494.578 453.278C507.101 429.8 501.717 398.331 482.553 382.99Z" fill="#FDC63F"/>
<path d="M470.569 498.287L401.169 442.729L360.619 518.747L430.02 574.304L470.569 498.287Z" fill="#E9B233"/>
<path d="M452.452 499.485L407.546 463.537C405.743 462.093 403.325 462.714 402.146 464.923L377.604 510.933C376.425 513.143 376.932 516.105 378.735 517.549L423.641 553.497C425.445 554.941 427.863 554.321 429.041 552.111L453.584 506.101C454.763 503.891 454.256 500.929 452.452 499.485Z" fill="#FDE3A2"/>
<path d="M1271.54 1134.72V1003.33H1241.96V1134.72H1271.54Z" fill="#4FA5FE"/>
<path d="M1280.79 1134.72C1285.9 1134.72 1290.04 1139.79 1290.04 1146.04C1290.04 1152.3 1285.9 1157.37 1280.79 1157.37L1234.56 1157.37C1229.46 1157.37 1225.32 1152.3 1225.32 1146.04C1225.32 1139.79 1229.46 1134.72 1234.56 1134.72L1280.79 1134.72Z" fill="#0353A7"/>
<path d="M1291.88 731.507V724.712C1291.88 718.457 1287.74 713.386 1282.64 713.386H1227.17C1222.06 713.386 1217.92 718.457 1217.92 724.712V731.507H1291.88Z" fill="#0353A7"/>
<path d="M1271.54 713.386V706.591C1271.54 700.335 1267.4 695.265 1262.3 695.265H1247.51C1242.4 695.265 1238.26 700.335 1238.26 706.591V713.386H1271.54Z" fill="#5283E9"/>
<path d="M1319.62 1030.52V1012.39C1319.62 1007.39 1316.31 1003.33 1312.22 1003.33H1201.28C1197.19 1003.33 1193.88 1007.39 1193.88 1012.39V1030.52C1193.88 1035.52 1197.19 1039.58 1201.28 1039.58H1312.22C1316.31 1039.58 1319.62 1035.52 1319.62 1030.52Z" fill="#0353A7"/>
<path fill-rule="evenodd" clip-rule="evenodd" d="M1194.03 1032.31C1193.93 1031.73 1193.88 1031.13 1193.88 1030.52V1012.39C1193.88 1007.39 1197.19 1003.33 1201.28 1003.33H1310.06C1310.16 1003.92 1310.21 1004.51 1310.21 1005.13V1023.25C1310.21 1028.26 1306.9 1032.31 1302.81 1032.31H1194.03Z" fill="#0E65C0"/>
<path d="M1295.58 731.509C1299.66 731.509 1302.98 735.566 1302.98 740.57V1003.33H1210.52V740.57C1210.52 735.566 1213.83 731.509 1217.92 731.509H1295.58Z" fill="#EDF6FF"/>
<path fill-rule="evenodd" clip-rule="evenodd" d="M1271.54 1003.33H1210.52V740.57C1210.52 736.121 1213.14 732.421 1216.6 731.655H1264.15C1268.24 731.655 1271.54 735.712 1271.54 740.716V1003.33Z" fill="white"/>
<path d="M1258.41 450.143C1258.53 450.457 1258.6 450.804 1258.6 451.156V695.265H1251.2V442.095C1251.2 439.705 1253.83 438.944 1254.71 441.082L1258.41 450.143Z" fill="white"/>
<path d="M1241.96 754.162C1244 754.162 1245.66 756.194 1245.66 758.69C1245.66 761.194 1244 763.22 1241.96 763.22H1210.52V754.162H1241.96Z" fill="#5283E9"/>
<path d="M1241.96 862.889C1244 862.889 1245.66 864.923 1245.66 867.419C1245.66 869.923 1244 871.95 1241.96 871.95H1210.52V862.889H1241.96Z" fill="#5283E9"/>
<path d="M1241.96 971.62C1244 971.62 1245.66 973.654 1245.66 976.15C1245.66 978.654 1244 980.681 1241.96 980.681H1210.52V971.62H1241.96Z" fill="#5283E9"/>
<path d="M1241.96 808.523C1244 808.523 1245.66 810.558 1245.66 813.053C1245.66 815.558 1244 817.584 1241.96 817.584H1210.52V808.523H1241.96Z" fill="#5283E9"/>
<path d="M1241.96 917.255C1244 917.255 1245.66 919.289 1245.66 921.785C1245.66 924.289 1244 926.316 1241.96 926.316H1210.52V917.255H1241.96Z" fill="#5283E9"/>
<path d="M1230.86 781.341C1232.91 781.341 1234.56 783.375 1234.56 785.871C1234.56 788.375 1232.91 790.402 1230.86 790.402H1210.52V781.341H1230.86Z" fill="#5283E9"/>
<path d="M1230.86 890.072C1232.91 890.072 1234.56 892.106 1234.56 894.602C1234.56 897.106 1232.91 899.133 1230.86 899.133H1210.52V890.072H1230.86Z" fill="#5283E9"/>
<path d="M1230.86 835.706C1232.91 835.706 1234.56 837.741 1234.56 840.237C1234.56 842.741 1232.91 844.767 1230.86 844.767H1210.52V835.706H1230.86Z" fill="#5283E9"/>
<path d="M1230.86 944.438C1232.91 944.438 1234.56 946.472 1234.56 948.968C1234.56 951.472 1232.91 953.498 1230.86 953.498H1210.52V944.438H1230.86Z" fill="#5283E9"/>
<path d="M1173.8 1108.8C1172.97 1103.42 1166.84 1102.71 1163.87 1103.04L1116.55 1121.93L1088.15 1136.07C1085.08 1137.59 1083.08 1141.24 1083.08 1145.29C1083.08 1150.79 1086.72 1155.24 1091.21 1155.24H1157.6L1161.59 1148.11C1162.55 1146.4 1164.69 1146.72 1165.28 1148.67L1166.76 1153.57C1167.07 1154.58 1167.85 1155.24 1168.73 1155.24H1173C1174.16 1155.24 1175.1 1154.09 1175.09 1152.66C1174.96 1141.3 1174.58 1113.75 1173.8 1108.8Z" fill="#4152A1"/>
<path d="M1075.5 1108.8C1074.66 1103.42 1068.53 1102.71 1065.56 1103.04L1018.24 1121.93L989.837 1136.07C986.771 1137.59 984.767 1141.24 984.767 1145.29C984.767 1150.79 988.405 1155.24 992.896 1155.24H1059.29L1063.28 1148.11C1064.24 1146.4 1066.38 1146.72 1066.97 1148.67L1068.45 1153.57C1068.76 1154.58 1069.54 1155.24 1070.42 1155.24H1074.69C1075.85 1155.24 1076.79 1154.09 1076.78 1152.66C1076.65 1141.3 1076.27 1113.75 1075.5 1108.8Z" fill="#4152A1"/>
<path d="M1168.09 1108.47L1166.49 1081.58H1135.11L1136.61 1103.38C1136.65 1103.96 1136.44 1104.53 1136.06 1104.87L1117.8 1120.76C1117.37 1121.13 1117.44 1121.93 1117.94 1122.16C1135.6 1130.34 1155.55 1121.38 1165.64 1114.34C1167.32 1113.15 1168.23 1110.85 1168.09 1108.47Z" fill="#FDAE94"/>
<path d="M1070.25 1109.18L1072.36 1081.58H1040.99L1038.61 1102.21C1038.46 1103.56 1037.86 1104.77 1036.95 1105.55L1019.49 1120.76C1019.06 1121.13 1019.13 1121.93 1019.63 1122.16C1037.58 1130.48 1057.91 1121.08 1067.82 1113.98C1069.23 1112.98 1070.09 1111.17 1070.25 1109.18Z" fill="#FDAE94"/>
<path d="M1033.43 1084.38L1039.68 649.479H1153.94L1176.33 1084.3C1176.38 1085.26 1175.77 1086.06 1174.99 1086.06H1126.11C1125.43 1086.06 1124.85 1085.43 1124.77 1084.6L1100.42 826.382L1082.66 1084.55C1082.6 1085.4 1082.02 1086.06 1081.32 1086.06H1034.77C1034.02 1086.06 1033.41 1085.3 1033.43 1084.38Z" fill="#0353A7"/>
<path d="M1167.48 1086.06L1140.47 649.479H1153.94L1176.42 1086.06H1167.48Z" fill="#00468F"/>
<path d="M1100.08 827.617L1089.66 738.656" stroke="#392524" stroke-linecap="round"/>
<path d="M1008.17 556.041L1012.62 524.559L1049.5 532.749L1049.38 583.549C1044.6 596.853 1030.56 621.326 1012.62 612.792C994.685 604.257 949.715 544.607 929.476 515.848C921.38 514.473 915.134 507.995 913.023 504.928L924.951 467.307C922.571 457.105 925.892 450.462 927.856 448.416L935.185 472.177L938.278 488.081L1008.17 556.041Z" fill="#DBA371"/>
<path d="M1034.97 439.357L1062.42 419.818L1090.93 416.294C1107.4 423.982 1142.28 440.51 1150.02 445.122C1157.59 449.64 1176.66 488.532 1185.8 508.588C1186.12 509.305 1185.96 510.192 1185.42 510.687L1151.13 542.425C1150.52 542.989 1149.65 542.82 1149.22 542.054L1140.34 526.481C1139.21 545.912 1138.04 588.236 1142.43 602.073L1154.46 650.119C1154.46 650.119 1098.4 670.619 1075.89 670.619C1053.37 670.619 1039.15 650.119 1039.15 650.119L1047 620.011C1051.81 594.129 1042.2 565.238 1036.8 554.027L1007.51 543.457C1008.04 533.634 1010.28 507.903 1015.1 483.559C1019.91 459.216 1030.35 443.947 1034.97 439.357Z" fill="#5283E9"/>
<path d="M1034.72 553.277L1027.2 550.561L1027.8 538.493C1030.49 544.753 1034.3 550.437 1035.87 552.496L1034.72 553.277Z" fill="#3F73E0"/>
<path d="M1042.84 570.12C1042.01 567.336 1041.15 564.752 1040.29 562.416C1042.94 554.194 1053.91 546.225 1084.62 552.495C1122.64 560.258 1127.02 515.462 1124.21 488.101C1126.88 504.007 1136.58 523.315 1140.34 526.515C1139.2 545.962 1138.04 588.243 1142.43 602.073L1154.46 650.119C1154.46 650.119 1148.96 652.129 1140.72 654.891C1135.55 625.519 1123.56 577.536 1118.57 574.323C1113.46 571.028 1091.56 570.067 1080.58 574.323L1042.84 570.12Z" fill="#3F73E0"/>
<path d="M1141.5 528.519L1141.1 526.961C1140.9 526.918 1140.66 526.779 1140.38 526.551L1141.5 528.519Z" fill="#3F73E0"/>
<path d="M1124.21 488.102C1123.93 486.459 1123.73 484.852 1123.62 483.304C1123.84 484.828 1124.03 486.432 1124.21 488.102Z" fill="#3F73E0"/>
<path d="M1091.79 252.855C1079.19 259.467 1080.09 276.546 1082.12 284.259L1101.9 315.386C1102.5 325.854 1105.68 351.858 1113.59 372.132C1120.45 389.698 1140.52 387.303 1153.41 382.646C1155.59 381.86 1155.95 378.066 1154.43 375.998C1138.57 354.409 1134.06 282.751 1128.88 265.252C1123.26 246.244 1107.52 244.591 1091.79 252.855Z" fill="#311F1E"/>
<path d="M1082.31 281.925L1075.14 288.943L1100.1 305.195L1102.63 295.687C1103.02 294.215 1102.84 292.586 1102.05 291.378C1095.71 281.7 1087.9 280.353 1083.91 281.028C1083.31 281.129 1082.77 281.467 1082.31 281.925Z" fill="#FD5E42"/>
<path fill-rule="evenodd" clip-rule="evenodd" d="M1052.34 426.998C1053.14 439.731 1058.52 460.849 1075.5 462.739C1090.15 464.372 1099.48 441.343 1104.04 422.457C1099.09 420.121 1094.56 417.992 1090.93 416.294L1062.42 419.818L1052.34 426.998Z" fill="#0353A7"/>
<path d="M1110.45 334.945C1114.36 363.045 1098.82 385.924 1090.28 394.163C1090.09 394.343 1089.85 394.379 1089.63 394.27L1043.44 371.581C1031.37 366.531 1014.54 341.28 1017.35 322.273C1022.5 287.467 1050.12 276.384 1064.36 288.207C1064.5 288.324 1064.67 288.374 1064.84 288.346C1090.31 284.09 1105.52 299.532 1110.45 334.945Z" fill="#392524"/>
<path d="M1094.32 418.217L1089.61 353.514C1089.39 350.439 1068.78 376.15 1058.5 389.389L1060.33 422.701C1061.81 432.203 1067.08 450.888 1076.28 449.607C1085.49 448.326 1092.14 428.146 1094.32 418.217Z" fill="#DBA371"/>
<path fill-rule="evenodd" clip-rule="evenodd" d="M1062.99 383.649C1061.37 385.714 1059.85 387.657 1058.5 389.388L1060.16 419.532C1070.25 419.689 1085.68 411.624 1091.47 378.996L1090.7 368.433L1062.99 383.649Z" fill="#DBA371"/>
<path d="M1061.32 407.393C1044.19 406.215 1031.33 372.167 1031.55 350.133C1031.55 349.74 1031.79 349.417 1032.1 349.346C1045.03 346.462 1052.98 337.693 1055.99 332.645C1056.3 332.124 1056.97 332.176 1057.22 332.744C1066.33 353.505 1080.11 355.946 1086.57 354.448C1086.93 354.364 1087.15 353.912 1087.09 353.464C1085.43 341.217 1101.35 335.366 1101.96 348.73C1102.38 361.918 1096.01 368.132 1092.49 369.757C1092.3 369.845 1092.15 370.02 1092.08 370.255C1087.29 385.963 1078.49 408.574 1061.32 407.393Z" fill="#DBA371"/>
<path d="M1036.54 353.567C1037.66 351.92 1040.91 349.614 1044.95 353.567" stroke="#392524" stroke-width="2" stroke-linecap="round"/>
<path d="M1058.73 353.567C1059.85 351.92 1063.1 349.614 1067.14 353.567" stroke="#392524" stroke-width="2" stroke-linecap="round"/>
<path d="M1091.33 348.72C1093.42 346.317 1097.7 343.128 1098.03 349.6C1098.38 356.072 1095.77 360.847 1094.43 362.425" stroke="#E27860" stroke-width="2" stroke-linecap="round"/>
<path d="M1037.06 554.347C1030.52 545.699 1013.53 522.957 1033.14 462.099M1123.87 481.637C1123.87 488.364 1127.11 506.813 1140.08 526.801L1123.87 481.637Z" stroke="#392524" stroke-linecap="round"/>
<path d="M1041.85 367.046C1042.96 367.046 1043.87 365.319 1043.87 363.19C1043.87 361.06 1042.96 359.333 1041.85 359.333C1040.73 359.333 1039.82 361.06 1039.82 363.19C1039.82 365.319 1040.73 367.046 1041.85 367.046Z" fill="#392524"/>
<path d="M1062.54 367.046C1063.65 367.046 1064.56 365.319 1064.56 363.19C1064.56 361.06 1063.65 359.333 1062.54 359.333C1061.42 359.333 1060.51 361.06 1060.51 363.19C1060.51 365.319 1061.42 367.046 1062.54 367.046Z" fill="#392524"/>
<path d="M1050.74 378.449L1052.56 367.112C1052.71 366.211 1053.76 366.231 1053.88 367.137L1055.4 378.475C1055.47 378.976 1055.15 379.431 1054.74 379.431H1051.4C1050.98 379.431 1050.66 378.958 1050.74 378.449Z" fill="#DBA371"/>
<path d="M1050.58 390.092C1051.33 390.827 1053.55 392.186 1056.43 391.745C1059.31 391.304 1060.78 389.174 1061.15 388.164" stroke="#E27860" stroke-width="2" stroke-linecap="round"/>
<path d="M1077.87 540.377L994.716 567.673C992.564 568.379 991.286 571.089 991.863 573.726L1024.1 721.103C1024.67 723.739 1026.89 725.304 1029.04 724.598L1112.19 697.302C1114.35 696.595 1115.62 693.885 1115.05 691.249L1082.81 543.872C1082.23 541.236 1080.02 539.671 1077.87 540.377Z" fill="#DCEBF8"/>
<path fill-rule="evenodd" clip-rule="evenodd" d="M1073.17 541.922C1073.58 542.877 1073.91 543.903 1074.14 544.989L1102.2 673.27C1103.93 681.179 1100.1 689.309 1093.64 691.428L1026.07 713.608C1024.9 713.993 1023.73 714.153 1022.57 714.109L991.861 573.726C991.29 571.09 992.56 568.38 994.719 567.673L1073.17 541.922Z" fill="white"/>
<path d="M1192.63 545.699L1182.44 512.387L1155.25 538.652L1158.38 549.863L1108.44 597.268C1106.14 594.706 1098.38 596.201 1094.37 597.268L1096.41 606.878C1086.57 612.216 1067.13 623.854 1068.18 627.697C1069.22 631.541 1075.06 630.153 1077.85 628.979C1075.33 631.114 1070.63 636.154 1072.1 639.229C1073.56 642.304 1080.55 639.229 1083.86 637.307C1082.47 638.695 1079.94 641.855 1080.99 643.393C1083.08 646.724 1090.58 642.645 1094.06 640.19C1092.23 642.645 1089.14 647.556 1091.45 647.556C1097.09 648.326 1109.14 636.346 1114.45 630.26C1124.65 624.281 1150.59 608.223 1172.76 591.823C1194.93 575.423 1195.25 554.241 1192.63 545.699Z" fill="#DBA371"/>
<path d="M940.119 452.189L911.358 438.506C910.551 438.122 909.642 438.612 909.328 439.602L889.639 501.706C889.325 502.696 889.726 503.809 890.534 504.194L919.294 517.877C920.101 518.261 921.01 517.771 921.324 516.781L941.013 454.677C941.327 453.687 940.926 452.574 940.119 452.189Z" fill="#FD5E42"/>
<path d="M942.071 453.117L909.899 437.811C909.092 437.426 908.183 437.917 907.869 438.906L904.461 449.655C904.148 450.645 904.548 451.758 905.356 452.142L937.528 467.449C938.335 467.834 939.244 467.343 939.558 466.354L942.966 455.605C943.28 454.615 942.879 453.502 942.071 453.117Z" fill="#F6FBFF"/>
<path d="M1048.65 537.072L1016.04 547.776C1014.96 548.13 1014.32 549.485 1014.61 550.803L1018.72 569.568C1019.01 570.886 1020.11 571.668 1021.19 571.315L1053.8 560.611C1054.87 560.257 1055.51 558.902 1055.22 557.584L1051.12 538.819C1050.83 537.501 1049.73 536.719 1048.65 537.072Z" fill="#36474F"/>
<path d="M931.172 485.729L899.487 470.654L895.322 483.792L927.007 498.867L931.172 485.729Z" fill="white"/>
<path d="M895.608 460.497C896.865 457.678 900.839 459.657 902.668 460.497C906.85 462.419 918.093 473.95 917.05 477.794C916.21 480.869 910.73 478.91 908.114 477.949C910.73 479.124 914.959 483.175 913.493 486.763C912.028 490.35 907.637 487.83 905.283 486.763C906.675 487.936 909.203 492.08 908.161 494.129C907.112 496.179 902.668 494.983 900.577 494.129C901.451 494.983 902.93 497.14 901.881 498.934C900.839 500.728 898.485 500.749 897.437 500.535C895.083 499.468 889.859 497.012 887.768 495.73C885.152 494.129 883.841 491.567 884.103 489.324C884.311 487.531 886.631 486.015 887.768 485.481C887.068 484.521 885.885 482.021 886.719 479.716C887.559 477.409 889.509 476.406 890.383 476.192C889.946 475.124 889.334 472.413 890.383 470.106C891.425 467.8 894.303 467.01 895.608 466.903C895.083 465.942 894.357 463.316 895.608 460.497Z" fill="#FDAE94"/>
<path d="M887.606 485.775L900.718 494.012M895.675 466.829L908.114 477.949L895.675 466.829ZM890.295 476.302L904.752 486.598L890.295 476.302Z" stroke="#392524" stroke-linecap="round"/>
<path d="M194.086 801.671H3.14169C0.944704 801.671 -0.836304 803.853 -0.836304 806.544V869.896C-0.836304 872.588 0.944704 874.77 3.14169 874.77H194.086C196.283 874.77 198.064 872.588 198.064 869.896V806.544C198.064 803.853 196.283 801.671 194.086 801.671Z" fill="#DCEBF8"/>
<path fill-rule="evenodd" clip-rule="evenodd" d="M182.47 801.671V818.45C182.47 838.639 169.112 854.998 152.635 854.998H-0.836304V806.547C-0.836304 803.854 0.944874 801.671 3.14159 801.671H182.47Z" fill="#F6FBFF"/>
<path d="M19.054 874.767H178.174V1150.11C178.174 1154.15 175.502 1157.42 172.207 1157.42H25.0208C21.7254 1157.42 19.054 1154.15 19.054 1150.11V874.767Z" fill="#FFBD1C"/>
<path d="M150.759 874.767V1096.68C150.759 1112.6 140.222 1125.51 127.225 1125.51H19.054V874.767H150.759Z" fill="#FFCA48"/>
<path d="M19.054 956.397H178.174V1056.3H19.054V956.397Z" fill="white"/>
<path d="M71.4255 1052.27L118.924 1110.58C126.794 1120.24 126.781 1135.88 118.896 1145.52C111.011 1155.17 98.2385 1155.15 90.3686 1145.49L42.87 1087.19C35.0002 1077.53 35.0128 1061.88 42.8982 1052.24C50.7836 1042.6 63.5557 1042.61 71.4255 1052.27Z" fill="#FD5E42"/>
<path d="M118.896 1145.52C126.781 1135.89 126.794 1120.24 118.924 1110.57L95.1746 1081.42L66.6193 1116.34L90.3683 1145.49C98.238 1155.15 111.01 1155.16 118.896 1145.52Z" fill="#F6FBFF"/>
<path d="M96.532 1108.09H163.772C174.912 1108.09 183.943 1119.16 183.943 1132.81C183.943 1146.45 174.912 1157.52 163.772 1157.52H96.532C85.3914 1157.52 76.3601 1146.45 76.3601 1132.81C76.3601 1119.16 85.3914 1108.09 96.532 1108.09Z" fill="#FD5E42"/>
<path d="M37.9639 1059.76L16.6603 1137.88C13.1306 1150.83 1.70318 1157.82 -8.86351 1153.49C-19.4302 1149.17 -25.1348 1135.17 -21.6051 1122.22L-0.301425 1044.1C3.22828 1031.15 14.6557 1024.16 25.2223 1028.49C35.789 1032.81 41.4936 1046.81 37.9639 1059.76Z" fill="#FD5E42"/>
<path d="M37.9639 1061.4L16.6603 1139.53C13.1306 1152.48 1.70318 1159.46 -8.86351 1155.14C-19.4302 1150.82 -25.1348 1136.82 -21.6051 1123.87L-0.301425 1045.74C3.22828 1032.8 14.6557 1025.81 25.2223 1030.14C35.789 1034.46 41.4936 1048.46 37.9639 1061.4Z" fill="#FE4727"/>
<path d="M12.0885 1134.71C8.55842 1147.66 -2.86896 1154.64 -13.4357 1150.32C-14.9889 1149.68 -16.4379 1148.83 -17.7672 1147.82C-22.238 1141.44 -23.9378 1132.43 -21.6053 1123.87L-0.301746 1045.75C3.22833 1032.8 14.6557 1025.81 25.2224 1030.14C26.7763 1030.77 28.2247 1031.61 29.5547 1032.63C34.0247 1039.02 35.7246 1048.03 33.392 1056.58L12.0885 1134.71Z" fill="#FD5E42"/>
<path d="M183.944 1132.81C183.944 1119.16 174.913 1108.09 163.772 1108.09H130.152V1157.52H163.772C174.913 1157.52 183.944 1146.45 183.944 1132.81Z" fill="white"/>
<path d="M-8.86345 1155.14C1.70325 1159.46 13.1306 1152.48 16.66 1139.53L27.3121 1100.47L-10.9533 1084.81L-21.6054 1123.87C-25.1348 1136.82 -19.4302 1150.81 -8.86345 1155.14Z" fill="#DCEBF8"/>
<path d="M12.0885 1133.16C8.55908 1146.11 -2.86829 1153.09 -13.435 1148.77C-15.7675 1147.81 -17.8627 1146.39 -19.6735 1144.61C-22.6744 1138.61 -23.5694 1131.08 -21.6053 1123.88L-10.9532 1084.81L21.6372 1098.14L12.0885 1133.16Z" fill="white"/>
<path d="M734.154 1003.45H608.711C600.734 1003.45 594.267 995.525 594.267 985.752V933.039C594.267 923.266 600.734 915.344 608.711 915.344H734.154C742.131 915.344 748.598 923.266 748.598 933.039V985.752C748.598 995.525 742.131 1003.45 734.154 1003.45Z" stroke="#5F0E00" stroke-width="27.543"/>
<path d="M794.972 953.062H547.889C537.392 953.062 528.883 963.487 528.883 976.346C528.883 989.206 537.392 999.63 547.889 999.63H794.972C805.469 999.63 813.979 989.206 813.979 976.346C813.979 963.487 805.469 953.062 794.972 953.062Z" fill="#CF2304"/>
<path fill-rule="evenodd" clip-rule="evenodd" d="M802.205 954.809C802.434 956.242 802.548 957.717 802.548 959.224C802.548 972.082 794.035 982.502 783.539 982.502H536.459C533.897 982.502 531.453 981.885 529.223 980.756C529 979.331 528.883 977.857 528.883 976.349C528.883 963.491 537.392 953.062 547.891 953.062H794.97C797.532 953.062 799.979 953.689 802.205 954.809Z" fill="#E43010"/>
<path d="M550.171 999.635H792.69V1138.4C792.69 1148.69 785.886 1157.03 777.487 1157.03H565.373C556.975 1157.03 550.171 1148.69 550.171 1138.4V999.635Z" fill="#FD5E42"/>
<path fill-rule="evenodd" clip-rule="evenodd" d="M758.627 999.635V1106.83C758.627 1117.12 751.822 1125.46 743.424 1125.46H550.171V999.635H758.627Z" fill="#FF7760"/>
<path d="M671.43 1029.9H671.43C665.062 1029.9 659.899 1036.22 659.899 1044.02V1100.53C659.899 1108.33 665.062 1114.65 671.43 1114.65H671.43C677.798 1114.65 682.96 1108.33 682.96 1100.53V1044.02C682.96 1036.22 677.798 1029.9 671.43 1029.9Z" fill="white"/>
<path d="M706.026 1072.28V1072.28C706.026 1064.47 700.863 1058.15 694.495 1058.15H648.373C642.005 1058.15 636.842 1064.47 636.842 1072.28V1072.28C636.842 1080.08 642.005 1086.4 648.373 1086.4H694.495C700.863 1086.4 706.026 1080.08 706.026 1072.28Z" fill="white"/>
<path d="M322.695 1122.62L320.865 1097.31L276.677 1093.47L278.769 1124.54L282.168 1134.79L322.695 1122.62Z" fill="#FDAE94"/>
<path d="M222.579 1122.62L224.646 1094.75L180.458 1090.9L178.653 1124.53L182.052 1134.79L222.579 1122.62Z" fill="#FDAE94"/>
<path d="M210.787 358.735L225.168 346.243H248.439L271.709 359.696L277.2 364.18L303.608 647.333H210.787V358.735Z" fill="#5283E9"/>
<path d="M299.436 647.331H278.67C277.951 626.814 276.346 588.391 275.053 581.737C273.708 574.818 242.442 578.854 226.977 581.737L224.623 572.264L293.88 564.851L299.436 647.331Z" fill="#2E6DF1"/>
<path d="M359.96 666.58L340.612 685.798C343.488 700.853 359.96 745.056 363.359 743.134C366.079 741.596 363.447 728.399 361.791 721.993C365.887 733.204 374.916 755.113 378.263 753.063C381.61 751.013 377.566 736.834 375.125 730.001C378.873 739.61 387.362 757.996 391.336 754.664C394.735 751.782 388.199 734.058 384.538 726.157C387.502 732.137 394.265 743.262 397.612 739.93C400.958 736.599 387.327 709.928 380.093 697.009C383.407 700.414 386.635 701.511 389.302 701.511C392.472 701.512 393.089 697.02 391.02 694.077C388.216 690.089 385.108 685.416 383.754 682.596C381.662 678.239 369.984 674.374 364.405 672.986L359.96 666.58Z" fill="#DBA371"/>
<path d="M210.406 287.858C212.912 311.136 222.707 320.476 227.589 323.72C227.784 323.85 228.015 323.846 228.211 323.717L279.389 290.296C279.477 290.24 279.552 290.164 279.607 290.065C281.513 286.698 282.044 277.103 282.08 272.185C282.082 271.862 282.246 271.565 282.486 271.43C303.489 259.623 301.096 250.377 295.71 248.446C295.189 248.26 294.931 247.444 295.249 246.907C297.252 243.529 299.854 237.045 298.507 230.628C294.21 215.021 277.855 217.27 267.883 221.177C267.187 221.449 266.522 220.228 266.972 219.523C269.21 216.015 270.932 211.716 267.575 210.766C249.436 204.776 233.544 220.055 226.469 230.313C226.025 230.957 225.016 230.485 224.97 229.644C224.815 226.861 224.031 224.019 221.712 224.617C210.622 227.659 208.535 246.436 209.653 254.477C209.71 254.888 209.526 255.293 209.209 255.442C204.619 257.591 196.822 263.428 198.46 271.656C200 279.392 206.057 278.06 209.733 275.998C210.217 275.726 210.79 276.17 210.76 276.821C210.589 280.454 210.31 286.964 210.406 287.858Z" fill="#392524"/>
<path d="M217.562 352.85C221.436 366.81 233.488 390.755 252.884 389.805C261.554 389.805 265.639 369.864 266.935 356.937L248.439 346.243H225.168L217.562 352.85Z" fill="#0353A7"/>
<path d="M223.861 347.523V305.243L226.738 301.72L259.682 335.032V356.172C259.333 364.607 256.806 381.284 249.485 380.515C235.679 377.953 226.65 357.453 223.861 347.523Z" fill="#DBA371"/>
<path d="M321.697 1116.35C299.993 1129.33 284.18 1120.1 278.743 1116.25C278.416 1116.02 278.039 1115.87 277.666 1115.93C270.697 1117.13 271.297 1139.99 272.263 1152.61C272.508 1155.8 274.728 1158.17 277.349 1158.17H373.008C378.298 1158.17 382.586 1152.91 382.586 1146.44C382.586 1141.24 379.793 1136.66 375.724 1135.18L323.244 1116.17C322.733 1115.99 322.176 1116.06 321.697 1116.35Z" fill="#4152A1"/>
<path fill-rule="evenodd" clip-rule="evenodd" d="M280.728 1117.57C277.647 1128.45 278.341 1147.85 303.966 1147.22C330.593 1146.56 357.646 1146.95 367.844 1147.22C371.772 1147.33 378.723 1145.73 380.576 1139.25C381.847 1141.25 382.586 1143.76 382.586 1146.44C382.586 1152.91 378.298 1158.17 373.008 1158.17H277.349C274.728 1158.17 272.508 1155.8 272.263 1152.61C271.297 1139.99 270.697 1117.13 277.666 1115.93C278.039 1115.87 278.416 1116.02 278.743 1116.25C279.298 1116.64 279.961 1117.09 280.728 1117.57Z" fill="#2F429A"/>
<path d="M221.582 1116.35C199.877 1129.33 184.064 1120.1 178.627 1116.25C178.3 1116.02 177.923 1115.87 177.55 1115.93C170.581 1117.13 171.181 1139.99 172.146 1152.61C172.391 1155.8 174.612 1158.17 177.232 1158.17H272.892C278.182 1158.17 282.47 1152.91 282.47 1146.44C282.47 1141.24 279.677 1136.66 275.607 1135.18L223.128 1116.17C222.617 1115.99 222.06 1116.06 221.582 1116.35Z" fill="#5466B8"/>
<path d="M281.886 1142.4C279.07 1146.03 271.336 1148.45 266.312 1148.45H181.926C178.85 1147.83 173.991 1144.36 171.596 1135.68C171.471 1141.63 171.783 1147.85 172.146 1152.61C172.292 1154.5 173.137 1156.12 174.349 1157.1H276.884C280.18 1155.25 282.47 1151.17 282.47 1146.44C282.47 1145.03 282.265 1143.67 281.886 1142.4Z" fill="#475BBA"/>
<path fill-rule="evenodd" clip-rule="evenodd" d="M259.682 350.062V335.032L226.738 301.72L223.861 305.243V312.341C232.314 338.073 248.563 349.406 259.682 350.062Z" fill="#E27860"/>
<path d="M257.336 335.682C279.042 336.094 281.379 294.201 279.804 272.319C279.769 271.822 279.384 271.497 278.985 271.591C268.771 273.993 254.273 267.356 251.15 262.511C253.283 265.82 255.843 271.107 253.283 273.486C249.873 276.656 234.953 275.25 229.285 268.551C228.872 268.063 228.121 268.266 227.989 268.95L224.113 288.975C223.947 289.831 222.948 289.815 222.801 288.954L220.737 276.898C220.681 276.572 220.473 276.318 220.205 276.274C216.747 275.715 210.569 277.491 210.406 288.904C210.242 300.391 218.388 304.059 222.925 304.543C223.219 304.575 223.466 304.815 223.545 305.164C225.919 315.531 235.731 335.272 257.336 335.682Z" fill="#DBA371"/>
<path d="M174.706 1099.05V738.941V647.195C174.706 646.74 175.007 646.371 175.378 646.371H304.279C304.636 646.371 304.931 646.713 304.951 647.149L325.271 1099.01C325.292 1099.48 324.986 1099.87 324.6 1099.87H272.326C271.977 1099.87 271.686 1099.54 271.656 1099.12L251.054 809.084L229.93 1099.12C229.899 1099.54 229.608 1099.87 229.26 1099.87H175.378C175.007 1099.87 174.706 1099.5 174.706 1099.05Z" fill="#0353A7"/>
<path d="M271.355 1100.68L251.053 809.084L250.565 815.789L250.174 810.732L260.597 695.411L271.355 1100.68Z" fill="#00448C"/>
<path d="M250.51 809.906L260.596 694.998" stroke="#392524" stroke-width="2" stroke-linecap="round"/>
<path d="M341.004 501.18C336.744 508.89 327.898 512.994 324.008 514.083L320.949 544.957C327.64 544.285 342.331 541.84 347.572 537.439C352.813 533.039 371.681 525.97 380.842 523.905C383.764 523.27 391.184 521.844 390.953 518.308C390.722 514.774 387.625 514.763 386.541 514.643L388.674 513.88C390.064 513.543 392.801 512.152 392.624 509.283C392.377 504.876 389.802 503.799 388.546 503.812L391.617 502.766C392.844 502.113 395.096 499.991 394.283 496.729C393.47 493.467 390.583 492.808 389.24 492.888L391.679 491.668C393.812 490.904 395.55 488.388 394.767 485.747C393.54 481.61 390.954 482.428 389.532 482.937L360.279 492.706C362.077 489.697 362.949 484.46 363.252 479.603C363.517 475.361 359.768 473.804 357.384 476.897L347.859 489.256C347.349 490.019 345.264 493.47 341.004 501.18Z" fill="#DBA371"/>
<path d="M171.593 377.899C171.593 377.899 199.832 359.696 213.926 356.172L228.306 605.371C228.132 634.947 227.888 700.952 228.306 728.37C228.725 755.79 203.38 765.847 190.655 767.445H148.56C147.004 767.445 145.772 765.831 145.877 763.928L156.376 573.341C118.725 557.966 138.649 480.077 143.094 440.68C146.649 409.162 156.951 386.547 171.593 377.899Z" fill="white"/>
<path d="M287.397 573.342C285.723 527.986 276.241 412.013 271.709 359.696C294.927 366.871 314.764 397.493 316.158 408.703L322.793 500.19H325.102C326.469 500.19 327.618 501.446 327.774 503.11L332.871 557.475C333.055 559.431 331.806 561.146 330.199 561.146H329.181C343.017 601.923 361.28 643.513 369.523 662.592C370.117 663.966 369.837 665.646 368.862 666.642L338.492 697.667C337.208 698.98 335.268 698.552 334.436 696.774L317.466 660.465L326.054 763.821C326.215 765.757 324.96 767.462 323.376 767.256C305.031 764.884 297.337 740.747 295.764 728.37C293.673 695.592 289.071 618.697 287.397 573.342Z" fill="white"/>
<path d="M273.136 292.28C274.785 292.28 276.122 290.291 276.122 287.837C276.122 285.384 274.785 283.395 273.136 283.395C271.486 283.395 270.149 285.384 270.149 287.837C270.149 290.291 271.486 292.28 273.136 292.28Z" fill="#392524"/>
<path d="M253.936 292.28C255.586 292.28 256.923 290.291 256.923 287.837C256.923 285.384 255.586 283.395 253.936 283.395C252.287 283.395 250.95 285.384 250.95 287.837C250.95 290.291 252.287 292.28 253.936 292.28Z" fill="#392524"/>
<path d="M248.494 278.32C249.614 276.673 252.864 274.366 256.898 278.32" stroke="#392524" stroke-width="2" stroke-linecap="round"/>
<path d="M267.993 278.32C269.114 276.673 272.364 274.366 276.398 278.32" stroke="#392524" stroke-width="2" stroke-linecap="round"/>
<path d="M268.302 307.188L263.189 296.798C262.838 296.083 261.941 296.389 261.941 297.224V311.001C261.941 311.625 262.486 312.022 262.934 311.726L268.046 308.338C268.383 308.114 268.5 307.591 268.302 307.188Z" fill="#E27860"/>
<path d="M253.283 319.679C254.136 320.811 256.739 323.024 260.323 322.815C263.907 322.606 265.798 321.16 266.296 320.463" stroke="#E27860" stroke-width="2" stroke-linecap="round"/>
<path d="M218.725 280.28C217.019 280.977 213.819 283.887 214.672 289.949C215.525 296.012 217.73 297.702 218.725 297.789" stroke="#E27860" stroke-linecap="round"/>
<path d="M203.918 359.869C204.647 359.542 205.365 359.228 206.072 358.929C204.729 361.102 203.364 364.023 202.722 368.81C201.905 374.908 202.256 384.094 205.437 398.657L204.138 399.084C200.932 384.405 200.535 374.964 201.395 368.543C201.909 364.709 202.869 361.973 203.918 359.869Z" fill="#392524"/>
<path d="M206.755 396.569C206.418 395.031 205.128 394.118 203.873 394.53C202.617 394.942 201.872 396.523 202.209 398.061L203.156 402.392C203.492 403.93 204.783 404.843 206.038 404.431C207.293 404.019 208.038 402.438 207.702 400.9L206.755 396.569Z" fill="#392524"/>
<path d="M211.301 493.68L203.797 496.143C202.362 496.614 200.887 495.571 200.503 493.813L189.018 441.305C185.28 424.218 193.558 406.654 207.506 402.076C221.455 397.497 235.791 407.637 239.529 424.725L251.014 477.233C251.398 478.99 250.547 480.798 249.112 481.268L240.85 483.98" stroke="#392524" stroke-width="4.66627"/>
<path d="M214.15 500.126C217.615 500.126 220.425 496.684 220.425 492.438C220.425 488.193 217.615 484.751 214.15 484.751C210.684 484.751 207.875 488.193 207.875 492.438C207.875 496.684 210.684 500.126 214.15 500.126Z" fill="#392524"/>
<path d="M238.727 492.44C242.193 492.44 245.002 488.998 245.002 484.752C245.002 480.507 242.193 477.065 238.727 477.065C235.261 477.065 232.452 480.507 232.452 484.752C232.452 488.998 235.261 492.44 238.727 492.44Z" fill="#392524"/>
<path d="M386.802 514.754L370.234 519.37M389.97 492.858L366.369 499.589L389.97 492.858ZM388.855 503.665L368.258 508.518L388.855 503.665Z" stroke="#E27860" stroke-linecap="round"/>
<path fill-rule="evenodd" clip-rule="evenodd" d="M273.345 360.241C273.884 360.434 274.421 360.639 274.955 360.856C278.08 371.763 283.368 396.97 285.976 433.935L284.636 434.078C281.933 395.772 276.35 370.224 273.345 360.241Z" fill="#392524"/>
<path d="M285.567 443.296C289.321 443.296 292.365 439.567 292.365 434.968C292.365 430.368 289.321 426.64 285.567 426.64C281.812 426.64 278.769 430.368 278.769 434.968C278.769 439.567 281.812 443.296 285.567 443.296Z" fill="#392524"/>
<path d="M285.567 439.452C287.588 439.452 289.227 437.444 289.227 434.968C289.227 432.491 287.588 430.483 285.567 430.483C283.545 430.483 281.906 432.491 281.906 434.968C281.906 437.444 283.545 439.452 285.567 439.452Z" fill="#95DFED"/>
<path d="M155.835 583.141L156.343 573.931C160.96 575.501 171.435 577.224 188.65 575.559C206.003 573.882 219.576 572.48 226.366 571.759L226.941 581.708C208.014 584.656 172.643 588.205 155.835 583.141Z" fill="#F0F8FE"/>
<path d="M342.343 693.733L338.492 697.667C337.208 698.98 335.267 698.552 334.436 696.774L317.741 661.055L305.647 426.467C308.673 474.929 317.741 571.76 324.81 616.746C331.259 648.955 338.194 679.135 342.343 693.733Z" fill="#F0F8FE"/>
<path d="M207.814 503.485C193.828 504.143 188.763 476.028 187.978 461.887L187.305 504.72L207.814 503.485Z" fill="#F0F8FE"/>
<path d="M317.75 500.602L209.495 503.896L206.469 574.324L322.457 563.204L317.75 500.602Z" fill="white"/>
<path d="M308.315 500.272L305.438 427.28M157.72 575.56C159.899 575.986 192.349 575.56 192.349 575.56C192.349 575.56 260.261 568.146 311.714 563.167L157.72 575.56ZM329.517 561.145L311.714 563.167L329.517 561.145ZM181.243 506.638L187.517 504.77L181.243 506.638ZM322.457 500.272H308.315H322.457ZM187.517 461.475V504.77V461.475ZM187.517 504.77L308.315 500.272L187.517 504.77ZM317.988 661.105L311.714 563.167L317.988 661.105Z" stroke="#392524" stroke-width="2" stroke-linecap="round"/>
<path d="M835.426 267.078H835.426C824.751 267.078 816.097 277.68 816.097 290.758V385.476C816.097 398.554 824.751 409.155 835.426 409.155C846.102 409.155 854.756 398.554 854.756 385.476V290.758C854.756 277.68 846.102 267.078 835.426 267.078Z" fill="white"/>
<path d="M893.416 338.117V338.117C893.416 325.039 884.761 314.438 874.086 314.438H796.768C786.093 314.438 777.439 325.039 777.439 338.117V338.117C777.439 351.195 786.093 361.797 796.768 361.797H874.086C884.761 361.797 893.416 351.195 893.416 338.117Z" fill="white"/>
<path d="M371.115 987.28C371.115 978.595 365.368 971.555 358.278 971.555C351.188 971.555 345.441 978.595 345.441 987.28V1050.18C345.441 1058.87 351.188 1065.91 358.278 1065.91C365.368 1065.91 371.115 1058.87 371.115 1050.18V987.28Z" fill="white"/>
<path d="M383.952 1034.46C391.041 1034.46 396.788 1027.41 396.788 1018.73C396.788 1010.04 391.041 1003 383.952 1003H332.604C325.515 1003 319.768 1010.04 319.768 1018.73C319.768 1027.41 325.515 1034.46 332.604 1034.46H383.952Z" fill="white"/>
<path d="M873.665 997.653C873.665 983.239 864.127 971.555 852.361 971.555C840.596 971.555 831.058 983.239 831.058 997.653V1102.05C831.058 1116.46 840.596 1128.14 852.361 1128.14C864.127 1128.14 873.665 1116.46 873.665 1102.05V997.653Z" fill="white"/>
<path d="M894.966 1075.95C906.732 1075.95 916.27 1064.26 916.27 1049.85C916.27 1035.44 906.732 1023.75 894.966 1023.75H809.751C797.986 1023.75 788.448 1035.44 788.448 1049.85C788.448 1064.26 797.986 1075.95 809.751 1075.95H894.966Z" fill="white"/>
<path d="M445.679 1087.65C445.679 1080.63 441.032 1074.94 435.3 1074.94C429.568 1074.94 424.921 1080.63 424.921 1087.65V1138.51C424.921 1145.53 429.568 1151.22 435.3 1151.22C441.032 1151.22 445.679 1145.53 445.679 1138.51V1087.65Z" fill="white"/>
<path d="M456.057 1125.8C461.789 1125.8 466.436 1120.11 466.436 1113.08C466.436 1106.06 461.789 1100.37 456.057 1100.37H414.543C408.81 1100.37 404.164 1106.06 404.164 1113.08C404.164 1120.11 408.81 1125.8 414.543 1125.8H456.057Z" fill="white"/>
<path d="M941.694 878.768C941.694 871.746 937.047 866.053 931.315 866.053C925.583 866.053 920.937 871.746 920.937 878.768V929.625C920.937 936.647 925.583 942.34 931.315 942.34C937.047 942.34 941.694 936.647 941.694 929.625V878.768Z" fill="white"/>
<path d="M952.072 916.909C957.804 916.909 962.45 911.217 962.45 904.195C962.45 897.173 957.804 891.48 952.072 891.48H910.557C904.825 891.48 900.178 897.173 900.178 904.195C900.178 911.217 904.825 916.909 910.557 916.909H952.072Z" fill="white"/>
<path d="M533.894 461.57C533.894 451.51 527.237 443.354 519.025 443.354C510.813 443.354 504.156 451.51 504.156 461.57V534.43C504.156 544.49 510.813 552.645 519.025 552.645C527.237 552.645 533.894 544.49 533.894 534.43V461.57Z" fill="white"/>
<path d="M548.763 516.214C556.975 516.214 563.632 508.059 563.632 497.999C563.632 487.939 556.975 479.784 548.763 479.784H489.288C481.076 479.784 474.419 487.939 474.419 497.999C474.419 508.059 481.076 516.214 489.288 516.214H548.763Z" fill="white"/>
<path d="M920.207 185.321C920.207 176.792 914.563 169.878 907.601 169.878C900.639 169.878 894.996 176.792 894.996 185.321V247.09C894.996 255.619 900.639 262.533 907.601 262.533C914.563 262.533 920.207 255.619 920.207 247.09V185.321Z" fill="white"/>
<path d="M945.419 216.205V216.205C945.419 207.676 939.775 200.763 932.813 200.763H882.391C875.429 200.763 869.786 207.676 869.786 216.205V216.205C869.786 224.734 875.429 231.648 882.391 231.648H932.813C939.775 231.648 945.419 224.734 945.419 216.205Z" fill="white"/>
</g>
</svg>
